%TF.GenerationSoftware,KiCad,Pcbnew,7.0.6*%
%TF.CreationDate,2024-01-05T19:18:28-07:00*%
%TF.ProjectId,SparkFun_NEO-F10N_panelized,53706172-6b46-4756-9e5f-4e454f2d4631,rev?*%
%TF.SameCoordinates,Original*%
%TF.FileFunction,Soldermask,Bot*%
%TF.FilePolarity,Negative*%
%FSLAX46Y46*%
G04 Gerber Fmt 4.6, Leading zero omitted, Abs format (unit mm)*
G04 Created by KiCad (PCBNEW 7.0.6) date 2024-01-05 19:18:28*
%MOMM*%
%LPD*%
G01*
G04 APERTURE LIST*
%TA.AperFunction,Profile*%
%ADD10C,0.100000*%
%TD*%
%ADD11C,0.250000*%
%ADD12C,0.500000*%
%ADD13C,0.101600*%
G04 APERTURE END LIST*
D10*
X-3039428Y-500000D02*
X-3039428Y77200000D01*
X158980572Y-500000D02*
X-3039428Y-500000D01*
X158980572Y77200000D02*
X158980572Y-500000D01*
X-3039428Y77200000D02*
X158980572Y77200000D01*
X-9389428Y-6850000D02*
X-9389428Y83550000D01*
X165330572Y-6850000D02*
X-9389428Y-6850000D01*
X165330572Y83550000D02*
X165330572Y-6850000D01*
X-9389428Y83550000D02*
X165330572Y83550000D01*
X158480572Y61968000D02*
X157083572Y61968000D01*
X157083572Y53586000D01*
X158480572Y53586000D01*
X158480572Y38600000D01*
X107680572Y38600000D01*
X107680572Y76700000D01*
X158480572Y76700000D01*
X158480572Y61968000D01*
X158480572Y23368000D02*
X157083572Y23368000D01*
X157083572Y14986000D01*
X158480572Y14986000D01*
X158480572Y0D01*
X107680572Y0D01*
X107680572Y38100000D01*
X158480572Y38100000D01*
X158480572Y23368000D01*
X104640572Y61968000D02*
X103243572Y61968000D01*
X103243572Y53586000D01*
X104640572Y53586000D01*
X104640572Y38600000D01*
X53840572Y38600000D01*
X53840572Y76700000D01*
X104640572Y76700000D01*
X104640572Y61968000D01*
X104640572Y23368000D02*
X103243572Y23368000D01*
X103243572Y14986000D01*
X104640572Y14986000D01*
X104640572Y0D01*
X53840572Y0D01*
X53840572Y38100000D01*
X104640572Y38100000D01*
X104640572Y23368000D01*
X50800572Y61968000D02*
X49403572Y61968000D01*
X49403572Y53586000D01*
X50800572Y53586000D01*
X50800572Y38600000D01*
X572Y38600000D01*
X572Y76700000D01*
X50800572Y76700000D01*
X50800572Y61968000D01*
X50800572Y23368000D02*
X49403572Y23368000D01*
X49403572Y14986000D01*
X50800572Y14986000D01*
X50800572Y0D01*
X572Y0D01*
X572Y38100000D01*
X50800572Y38100000D01*
X50800572Y23368000D01*
D11*
X107072810Y31588095D02*
X106120429Y30921428D01*
X107072810Y30445238D02*
X105072810Y30445238D01*
X105072810Y30445238D02*
X105072810Y31207143D01*
X105072810Y31207143D02*
X105168048Y31397619D01*
X105168048Y31397619D02*
X105263286Y31492857D01*
X105263286Y31492857D02*
X105453762Y31588095D01*
X105453762Y31588095D02*
X105739476Y31588095D01*
X105739476Y31588095D02*
X105929952Y31492857D01*
X105929952Y31492857D02*
X106025191Y31397619D01*
X106025191Y31397619D02*
X106120429Y31207143D01*
X106120429Y31207143D02*
X106120429Y30445238D01*
X105072810Y32826190D02*
X105072810Y33207143D01*
X105072810Y33207143D02*
X105168048Y33397619D01*
X105168048Y33397619D02*
X105358524Y33588095D01*
X105358524Y33588095D02*
X105739476Y33683333D01*
X105739476Y33683333D02*
X106406143Y33683333D01*
X106406143Y33683333D02*
X106787095Y33588095D01*
X106787095Y33588095D02*
X106977572Y33397619D01*
X106977572Y33397619D02*
X107072810Y33207143D01*
X107072810Y33207143D02*
X107072810Y32826190D01*
X107072810Y32826190D02*
X106977572Y32635714D01*
X106977572Y32635714D02*
X106787095Y32445238D01*
X106787095Y32445238D02*
X106406143Y32350000D01*
X106406143Y32350000D02*
X105739476Y32350000D01*
X105739476Y32350000D02*
X105358524Y32445238D01*
X105358524Y32445238D02*
X105168048Y32635714D01*
X105168048Y32635714D02*
X105072810Y32826190D01*
X105072810Y34540476D02*
X106691857Y34540476D01*
X106691857Y34540476D02*
X106882333Y34635714D01*
X106882333Y34635714D02*
X106977572Y34730952D01*
X106977572Y34730952D02*
X107072810Y34921428D01*
X107072810Y34921428D02*
X107072810Y35302381D01*
X107072810Y35302381D02*
X106977572Y35492857D01*
X106977572Y35492857D02*
X106882333Y35588095D01*
X106882333Y35588095D02*
X106691857Y35683333D01*
X106691857Y35683333D02*
X105072810Y35683333D01*
X105072810Y36350000D02*
X105072810Y37492857D01*
X107072810Y36921428D02*
X105072810Y36921428D01*
X106025191Y38159524D02*
X106025191Y38826191D01*
X107072810Y39111905D02*
X107072810Y38159524D01*
X107072810Y38159524D02*
X105072810Y38159524D01*
X105072810Y38159524D02*
X105072810Y39111905D01*
X105072810Y41873810D02*
X105072810Y42254763D01*
X105072810Y42254763D02*
X105168048Y42445239D01*
X105168048Y42445239D02*
X105358524Y42635715D01*
X105358524Y42635715D02*
X105739476Y42730953D01*
X105739476Y42730953D02*
X106406143Y42730953D01*
X106406143Y42730953D02*
X106787095Y42635715D01*
X106787095Y42635715D02*
X106977572Y42445239D01*
X106977572Y42445239D02*
X107072810Y42254763D01*
X107072810Y42254763D02*
X107072810Y41873810D01*
X107072810Y41873810D02*
X106977572Y41683334D01*
X106977572Y41683334D02*
X106787095Y41492858D01*
X106787095Y41492858D02*
X106406143Y41397620D01*
X106406143Y41397620D02*
X105739476Y41397620D01*
X105739476Y41397620D02*
X105358524Y41492858D01*
X105358524Y41492858D02*
X105168048Y41683334D01*
X105168048Y41683334D02*
X105072810Y41873810D01*
X105072810Y43588096D02*
X106691857Y43588096D01*
X106691857Y43588096D02*
X106882333Y43683334D01*
X106882333Y43683334D02*
X106977572Y43778572D01*
X106977572Y43778572D02*
X107072810Y43969048D01*
X107072810Y43969048D02*
X107072810Y44350001D01*
X107072810Y44350001D02*
X106977572Y44540477D01*
X106977572Y44540477D02*
X106882333Y44635715D01*
X106882333Y44635715D02*
X106691857Y44730953D01*
X106691857Y44730953D02*
X105072810Y44730953D01*
X105072810Y45397620D02*
X105072810Y46540477D01*
X107072810Y45969048D02*
X105072810Y45969048D01*
X53232810Y31588095D02*
X52280429Y30921428D01*
X53232810Y30445238D02*
X51232810Y30445238D01*
X51232810Y30445238D02*
X51232810Y31207143D01*
X51232810Y31207143D02*
X51328048Y31397619D01*
X51328048Y31397619D02*
X51423286Y31492857D01*
X51423286Y31492857D02*
X51613762Y31588095D01*
X51613762Y31588095D02*
X51899476Y31588095D01*
X51899476Y31588095D02*
X52089952Y31492857D01*
X52089952Y31492857D02*
X52185191Y31397619D01*
X52185191Y31397619D02*
X52280429Y31207143D01*
X52280429Y31207143D02*
X52280429Y30445238D01*
X51232810Y32826190D02*
X51232810Y33207143D01*
X51232810Y33207143D02*
X51328048Y33397619D01*
X51328048Y33397619D02*
X51518524Y33588095D01*
X51518524Y33588095D02*
X51899476Y33683333D01*
X51899476Y33683333D02*
X52566143Y33683333D01*
X52566143Y33683333D02*
X52947095Y33588095D01*
X52947095Y33588095D02*
X53137572Y33397619D01*
X53137572Y33397619D02*
X53232810Y33207143D01*
X53232810Y33207143D02*
X53232810Y32826190D01*
X53232810Y32826190D02*
X53137572Y32635714D01*
X53137572Y32635714D02*
X52947095Y32445238D01*
X52947095Y32445238D02*
X52566143Y32350000D01*
X52566143Y32350000D02*
X51899476Y32350000D01*
X51899476Y32350000D02*
X51518524Y32445238D01*
X51518524Y32445238D02*
X51328048Y32635714D01*
X51328048Y32635714D02*
X51232810Y32826190D01*
X51232810Y34540476D02*
X52851857Y34540476D01*
X52851857Y34540476D02*
X53042333Y34635714D01*
X53042333Y34635714D02*
X53137572Y34730952D01*
X53137572Y34730952D02*
X53232810Y34921428D01*
X53232810Y34921428D02*
X53232810Y35302381D01*
X53232810Y35302381D02*
X53137572Y35492857D01*
X53137572Y35492857D02*
X53042333Y35588095D01*
X53042333Y35588095D02*
X52851857Y35683333D01*
X52851857Y35683333D02*
X51232810Y35683333D01*
X51232810Y36350000D02*
X51232810Y37492857D01*
X53232810Y36921428D02*
X51232810Y36921428D01*
X52185191Y38159524D02*
X52185191Y38826191D01*
X53232810Y39111905D02*
X53232810Y38159524D01*
X53232810Y38159524D02*
X51232810Y38159524D01*
X51232810Y38159524D02*
X51232810Y39111905D01*
X51232810Y41873810D02*
X51232810Y42254763D01*
X51232810Y42254763D02*
X51328048Y42445239D01*
X51328048Y42445239D02*
X51518524Y42635715D01*
X51518524Y42635715D02*
X51899476Y42730953D01*
X51899476Y42730953D02*
X52566143Y42730953D01*
X52566143Y42730953D02*
X52947095Y42635715D01*
X52947095Y42635715D02*
X53137572Y42445239D01*
X53137572Y42445239D02*
X53232810Y42254763D01*
X53232810Y42254763D02*
X53232810Y41873810D01*
X53232810Y41873810D02*
X53137572Y41683334D01*
X53137572Y41683334D02*
X52947095Y41492858D01*
X52947095Y41492858D02*
X52566143Y41397620D01*
X52566143Y41397620D02*
X51899476Y41397620D01*
X51899476Y41397620D02*
X51518524Y41492858D01*
X51518524Y41492858D02*
X51328048Y41683334D01*
X51328048Y41683334D02*
X51232810Y41873810D01*
X51232810Y43588096D02*
X52851857Y43588096D01*
X52851857Y43588096D02*
X53042333Y43683334D01*
X53042333Y43683334D02*
X53137572Y43778572D01*
X53137572Y43778572D02*
X53232810Y43969048D01*
X53232810Y43969048D02*
X53232810Y44350001D01*
X53232810Y44350001D02*
X53137572Y44540477D01*
X53137572Y44540477D02*
X53042333Y44635715D01*
X53042333Y44635715D02*
X52851857Y44730953D01*
X52851857Y44730953D02*
X51232810Y44730953D01*
X51232810Y45397620D02*
X51232810Y46540477D01*
X53232810Y45969048D02*
X51232810Y45969048D01*
X-607190Y31588095D02*
X-1559571Y30921428D01*
X-607190Y30445238D02*
X-2607190Y30445238D01*
X-2607190Y30445238D02*
X-2607190Y31207143D01*
X-2607190Y31207143D02*
X-2511952Y31397619D01*
X-2511952Y31397619D02*
X-2416714Y31492857D01*
X-2416714Y31492857D02*
X-2226238Y31588095D01*
X-2226238Y31588095D02*
X-1940524Y31588095D01*
X-1940524Y31588095D02*
X-1750048Y31492857D01*
X-1750048Y31492857D02*
X-1654809Y31397619D01*
X-1654809Y31397619D02*
X-1559571Y31207143D01*
X-1559571Y31207143D02*
X-1559571Y30445238D01*
X-2607190Y32826190D02*
X-2607190Y33207143D01*
X-2607190Y33207143D02*
X-2511952Y33397619D01*
X-2511952Y33397619D02*
X-2321476Y33588095D01*
X-2321476Y33588095D02*
X-1940524Y33683333D01*
X-1940524Y33683333D02*
X-1273857Y33683333D01*
X-1273857Y33683333D02*
X-892905Y33588095D01*
X-892905Y33588095D02*
X-702428Y33397619D01*
X-702428Y33397619D02*
X-607190Y33207143D01*
X-607190Y33207143D02*
X-607190Y32826190D01*
X-607190Y32826190D02*
X-702428Y32635714D01*
X-702428Y32635714D02*
X-892905Y32445238D01*
X-892905Y32445238D02*
X-1273857Y32350000D01*
X-1273857Y32350000D02*
X-1940524Y32350000D01*
X-1940524Y32350000D02*
X-2321476Y32445238D01*
X-2321476Y32445238D02*
X-2511952Y32635714D01*
X-2511952Y32635714D02*
X-2607190Y32826190D01*
X-2607190Y34540476D02*
X-988143Y34540476D01*
X-988143Y34540476D02*
X-797667Y34635714D01*
X-797667Y34635714D02*
X-702428Y34730952D01*
X-702428Y34730952D02*
X-607190Y34921428D01*
X-607190Y34921428D02*
X-607190Y35302381D01*
X-607190Y35302381D02*
X-702428Y35492857D01*
X-702428Y35492857D02*
X-797667Y35588095D01*
X-797667Y35588095D02*
X-988143Y35683333D01*
X-988143Y35683333D02*
X-2607190Y35683333D01*
X-2607190Y36350000D02*
X-2607190Y37492857D01*
X-607190Y36921428D02*
X-2607190Y36921428D01*
X-1654809Y38159524D02*
X-1654809Y38826191D01*
X-607190Y39111905D02*
X-607190Y38159524D01*
X-607190Y38159524D02*
X-2607190Y38159524D01*
X-2607190Y38159524D02*
X-2607190Y39111905D01*
X-2607190Y41873810D02*
X-2607190Y42254763D01*
X-2607190Y42254763D02*
X-2511952Y42445239D01*
X-2511952Y42445239D02*
X-2321476Y42635715D01*
X-2321476Y42635715D02*
X-1940524Y42730953D01*
X-1940524Y42730953D02*
X-1273857Y42730953D01*
X-1273857Y42730953D02*
X-892905Y42635715D01*
X-892905Y42635715D02*
X-702428Y42445239D01*
X-702428Y42445239D02*
X-607190Y42254763D01*
X-607190Y42254763D02*
X-607190Y41873810D01*
X-607190Y41873810D02*
X-702428Y41683334D01*
X-702428Y41683334D02*
X-892905Y41492858D01*
X-892905Y41492858D02*
X-1273857Y41397620D01*
X-1273857Y41397620D02*
X-1940524Y41397620D01*
X-1940524Y41397620D02*
X-2321476Y41492858D01*
X-2321476Y41492858D02*
X-2511952Y41683334D01*
X-2511952Y41683334D02*
X-2607190Y41873810D01*
X-2607190Y43588096D02*
X-988143Y43588096D01*
X-988143Y43588096D02*
X-797667Y43683334D01*
X-797667Y43683334D02*
X-702428Y43778572D01*
X-702428Y43778572D02*
X-607190Y43969048D01*
X-607190Y43969048D02*
X-607190Y44350001D01*
X-607190Y44350001D02*
X-702428Y44540477D01*
X-702428Y44540477D02*
X-797667Y44635715D01*
X-797667Y44635715D02*
X-988143Y44730953D01*
X-988143Y44730953D02*
X-2607190Y44730953D01*
X-2607190Y45397620D02*
X-2607190Y46540477D01*
X-607190Y45969048D02*
X-2607190Y45969048D01*
X-25613425Y837762D02*
X-24946759Y-1162238D01*
X-24946759Y-1162238D02*
X-24280092Y837762D01*
X-23613425Y-400333D02*
X-22089615Y-400333D01*
X-21232473Y-1067000D02*
X-20946759Y-1162238D01*
X-20946759Y-1162238D02*
X-20470568Y-1162238D01*
X-20470568Y-1162238D02*
X-20280092Y-1067000D01*
X-20280092Y-1067000D02*
X-20184854Y-971761D01*
X-20184854Y-971761D02*
X-20089616Y-781285D01*
X-20089616Y-781285D02*
X-20089616Y-590809D01*
X-20089616Y-590809D02*
X-20184854Y-400333D01*
X-20184854Y-400333D02*
X-20280092Y-305095D01*
X-20280092Y-305095D02*
X-20470568Y-209857D01*
X-20470568Y-209857D02*
X-20851521Y-114619D01*
X-20851521Y-114619D02*
X-21041997Y-19380D01*
X-21041997Y-19380D02*
X-21137235Y75858D01*
X-21137235Y75858D02*
X-21232473Y266334D01*
X-21232473Y266334D02*
X-21232473Y456810D01*
X-21232473Y456810D02*
X-21137235Y647286D01*
X-21137235Y647286D02*
X-21041997Y742524D01*
X-21041997Y742524D02*
X-20851521Y837762D01*
X-20851521Y837762D02*
X-20375330Y837762D01*
X-20375330Y837762D02*
X-20089616Y742524D01*
X-18089616Y-971761D02*
X-18184854Y-1067000D01*
X-18184854Y-1067000D02*
X-18470568Y-1162238D01*
X-18470568Y-1162238D02*
X-18661044Y-1162238D01*
X-18661044Y-1162238D02*
X-18946759Y-1067000D01*
X-18946759Y-1067000D02*
X-19137235Y-876523D01*
X-19137235Y-876523D02*
X-19232473Y-686047D01*
X-19232473Y-686047D02*
X-19327711Y-305095D01*
X-19327711Y-305095D02*
X-19327711Y-19380D01*
X-19327711Y-19380D02*
X-19232473Y361572D01*
X-19232473Y361572D02*
X-19137235Y552048D01*
X-19137235Y552048D02*
X-18946759Y742524D01*
X-18946759Y742524D02*
X-18661044Y837762D01*
X-18661044Y837762D02*
X-18470568Y837762D01*
X-18470568Y837762D02*
X-18184854Y742524D01*
X-18184854Y742524D02*
X-18089616Y647286D01*
X-16851521Y837762D02*
X-16470568Y837762D01*
X-16470568Y837762D02*
X-16280092Y742524D01*
X-16280092Y742524D02*
X-16089616Y552048D01*
X-16089616Y552048D02*
X-15994378Y171096D01*
X-15994378Y171096D02*
X-15994378Y-495571D01*
X-15994378Y-495571D02*
X-16089616Y-876523D01*
X-16089616Y-876523D02*
X-16280092Y-1067000D01*
X-16280092Y-1067000D02*
X-16470568Y-1162238D01*
X-16470568Y-1162238D02*
X-16851521Y-1162238D01*
X-16851521Y-1162238D02*
X-17041997Y-1067000D01*
X-17041997Y-1067000D02*
X-17232473Y-876523D01*
X-17232473Y-876523D02*
X-17327711Y-495571D01*
X-17327711Y-495571D02*
X-17327711Y171096D01*
X-17327711Y171096D02*
X-17232473Y552048D01*
X-17232473Y552048D02*
X-17041997Y742524D01*
X-17041997Y742524D02*
X-16851521Y837762D01*
X-13994378Y-1162238D02*
X-14661045Y-209857D01*
X-15137235Y-1162238D02*
X-15137235Y837762D01*
X-15137235Y837762D02*
X-14375330Y837762D01*
X-14375330Y837762D02*
X-14184854Y742524D01*
X-14184854Y742524D02*
X-14089616Y647286D01*
X-14089616Y647286D02*
X-13994378Y456810D01*
X-13994378Y456810D02*
X-13994378Y171096D01*
X-13994378Y171096D02*
X-14089616Y-19380D01*
X-14089616Y-19380D02*
X-14184854Y-114619D01*
X-14184854Y-114619D02*
X-14375330Y-209857D01*
X-14375330Y-209857D02*
X-15137235Y-209857D01*
X-13137235Y-114619D02*
X-12470568Y-114619D01*
X-12184854Y-1162238D02*
X-13137235Y-1162238D01*
X-13137235Y-1162238D02*
X-13137235Y837762D01*
X-13137235Y837762D02*
X-12184854Y837762D01*
D12*
X-9639428Y-250000D02*
X165580572Y-250000D01*
D11*
X-25613425Y39437762D02*
X-24946759Y37437762D01*
X-24946759Y37437762D02*
X-24280092Y39437762D01*
X-23613425Y38199667D02*
X-22089615Y38199667D01*
X-21232473Y37533000D02*
X-20946759Y37437762D01*
X-20946759Y37437762D02*
X-20470568Y37437762D01*
X-20470568Y37437762D02*
X-20280092Y37533000D01*
X-20280092Y37533000D02*
X-20184854Y37628239D01*
X-20184854Y37628239D02*
X-20089616Y37818715D01*
X-20089616Y37818715D02*
X-20089616Y38009191D01*
X-20089616Y38009191D02*
X-20184854Y38199667D01*
X-20184854Y38199667D02*
X-20280092Y38294905D01*
X-20280092Y38294905D02*
X-20470568Y38390143D01*
X-20470568Y38390143D02*
X-20851521Y38485381D01*
X-20851521Y38485381D02*
X-21041997Y38580620D01*
X-21041997Y38580620D02*
X-21137235Y38675858D01*
X-21137235Y38675858D02*
X-21232473Y38866334D01*
X-21232473Y38866334D02*
X-21232473Y39056810D01*
X-21232473Y39056810D02*
X-21137235Y39247286D01*
X-21137235Y39247286D02*
X-21041997Y39342524D01*
X-21041997Y39342524D02*
X-20851521Y39437762D01*
X-20851521Y39437762D02*
X-20375330Y39437762D01*
X-20375330Y39437762D02*
X-20089616Y39342524D01*
X-18089616Y37628239D02*
X-18184854Y37533000D01*
X-18184854Y37533000D02*
X-18470568Y37437762D01*
X-18470568Y37437762D02*
X-18661044Y37437762D01*
X-18661044Y37437762D02*
X-18946759Y37533000D01*
X-18946759Y37533000D02*
X-19137235Y37723477D01*
X-19137235Y37723477D02*
X-19232473Y37913953D01*
X-19232473Y37913953D02*
X-19327711Y38294905D01*
X-19327711Y38294905D02*
X-19327711Y38580620D01*
X-19327711Y38580620D02*
X-19232473Y38961572D01*
X-19232473Y38961572D02*
X-19137235Y39152048D01*
X-19137235Y39152048D02*
X-18946759Y39342524D01*
X-18946759Y39342524D02*
X-18661044Y39437762D01*
X-18661044Y39437762D02*
X-18470568Y39437762D01*
X-18470568Y39437762D02*
X-18184854Y39342524D01*
X-18184854Y39342524D02*
X-18089616Y39247286D01*
X-16851521Y39437762D02*
X-16470568Y39437762D01*
X-16470568Y39437762D02*
X-16280092Y39342524D01*
X-16280092Y39342524D02*
X-16089616Y39152048D01*
X-16089616Y39152048D02*
X-15994378Y38771096D01*
X-15994378Y38771096D02*
X-15994378Y38104429D01*
X-15994378Y38104429D02*
X-16089616Y37723477D01*
X-16089616Y37723477D02*
X-16280092Y37533000D01*
X-16280092Y37533000D02*
X-16470568Y37437762D01*
X-16470568Y37437762D02*
X-16851521Y37437762D01*
X-16851521Y37437762D02*
X-17041997Y37533000D01*
X-17041997Y37533000D02*
X-17232473Y37723477D01*
X-17232473Y37723477D02*
X-17327711Y38104429D01*
X-17327711Y38104429D02*
X-17327711Y38771096D01*
X-17327711Y38771096D02*
X-17232473Y39152048D01*
X-17232473Y39152048D02*
X-17041997Y39342524D01*
X-17041997Y39342524D02*
X-16851521Y39437762D01*
X-13994378Y37437762D02*
X-14661045Y38390143D01*
X-15137235Y37437762D02*
X-15137235Y39437762D01*
X-15137235Y39437762D02*
X-14375330Y39437762D01*
X-14375330Y39437762D02*
X-14184854Y39342524D01*
X-14184854Y39342524D02*
X-14089616Y39247286D01*
X-14089616Y39247286D02*
X-13994378Y39056810D01*
X-13994378Y39056810D02*
X-13994378Y38771096D01*
X-13994378Y38771096D02*
X-14089616Y38580620D01*
X-14089616Y38580620D02*
X-14184854Y38485381D01*
X-14184854Y38485381D02*
X-14375330Y38390143D01*
X-14375330Y38390143D02*
X-15137235Y38390143D01*
X-13137235Y38485381D02*
X-12470568Y38485381D01*
X-12184854Y37437762D02*
X-13137235Y37437762D01*
X-13137235Y37437762D02*
X-13137235Y39437762D01*
X-13137235Y39437762D02*
X-12184854Y39437762D01*
D12*
X-9639428Y38350000D02*
X165580572Y38350000D01*
D11*
X-25613425Y78037762D02*
X-24946759Y76037762D01*
X-24946759Y76037762D02*
X-24280092Y78037762D01*
X-23613425Y76799667D02*
X-22089615Y76799667D01*
X-21232473Y76133000D02*
X-20946759Y76037762D01*
X-20946759Y76037762D02*
X-20470568Y76037762D01*
X-20470568Y76037762D02*
X-20280092Y76133000D01*
X-20280092Y76133000D02*
X-20184854Y76228239D01*
X-20184854Y76228239D02*
X-20089616Y76418715D01*
X-20089616Y76418715D02*
X-20089616Y76609191D01*
X-20089616Y76609191D02*
X-20184854Y76799667D01*
X-20184854Y76799667D02*
X-20280092Y76894905D01*
X-20280092Y76894905D02*
X-20470568Y76990143D01*
X-20470568Y76990143D02*
X-20851521Y77085381D01*
X-20851521Y77085381D02*
X-21041997Y77180620D01*
X-21041997Y77180620D02*
X-21137235Y77275858D01*
X-21137235Y77275858D02*
X-21232473Y77466334D01*
X-21232473Y77466334D02*
X-21232473Y77656810D01*
X-21232473Y77656810D02*
X-21137235Y77847286D01*
X-21137235Y77847286D02*
X-21041997Y77942524D01*
X-21041997Y77942524D02*
X-20851521Y78037762D01*
X-20851521Y78037762D02*
X-20375330Y78037762D01*
X-20375330Y78037762D02*
X-20089616Y77942524D01*
X-18089616Y76228239D02*
X-18184854Y76133000D01*
X-18184854Y76133000D02*
X-18470568Y76037762D01*
X-18470568Y76037762D02*
X-18661044Y76037762D01*
X-18661044Y76037762D02*
X-18946759Y76133000D01*
X-18946759Y76133000D02*
X-19137235Y76323477D01*
X-19137235Y76323477D02*
X-19232473Y76513953D01*
X-19232473Y76513953D02*
X-19327711Y76894905D01*
X-19327711Y76894905D02*
X-19327711Y77180620D01*
X-19327711Y77180620D02*
X-19232473Y77561572D01*
X-19232473Y77561572D02*
X-19137235Y77752048D01*
X-19137235Y77752048D02*
X-18946759Y77942524D01*
X-18946759Y77942524D02*
X-18661044Y78037762D01*
X-18661044Y78037762D02*
X-18470568Y78037762D01*
X-18470568Y78037762D02*
X-18184854Y77942524D01*
X-18184854Y77942524D02*
X-18089616Y77847286D01*
X-16851521Y78037762D02*
X-16470568Y78037762D01*
X-16470568Y78037762D02*
X-16280092Y77942524D01*
X-16280092Y77942524D02*
X-16089616Y77752048D01*
X-16089616Y77752048D02*
X-15994378Y77371096D01*
X-15994378Y77371096D02*
X-15994378Y76704429D01*
X-15994378Y76704429D02*
X-16089616Y76323477D01*
X-16089616Y76323477D02*
X-16280092Y76133000D01*
X-16280092Y76133000D02*
X-16470568Y76037762D01*
X-16470568Y76037762D02*
X-16851521Y76037762D01*
X-16851521Y76037762D02*
X-17041997Y76133000D01*
X-17041997Y76133000D02*
X-17232473Y76323477D01*
X-17232473Y76323477D02*
X-17327711Y76704429D01*
X-17327711Y76704429D02*
X-17327711Y77371096D01*
X-17327711Y77371096D02*
X-17232473Y77752048D01*
X-17232473Y77752048D02*
X-17041997Y77942524D01*
X-17041997Y77942524D02*
X-16851521Y78037762D01*
X-13994378Y76037762D02*
X-14661045Y76990143D01*
X-15137235Y76037762D02*
X-15137235Y78037762D01*
X-15137235Y78037762D02*
X-14375330Y78037762D01*
X-14375330Y78037762D02*
X-14184854Y77942524D01*
X-14184854Y77942524D02*
X-14089616Y77847286D01*
X-14089616Y77847286D02*
X-13994378Y77656810D01*
X-13994378Y77656810D02*
X-13994378Y77371096D01*
X-13994378Y77371096D02*
X-14089616Y77180620D01*
X-14089616Y77180620D02*
X-14184854Y77085381D01*
X-14184854Y77085381D02*
X-14375330Y76990143D01*
X-14375330Y76990143D02*
X-15137235Y76990143D01*
X-13137235Y77085381D02*
X-12470568Y77085381D01*
X-12184854Y76037762D02*
X-13137235Y76037762D01*
X-13137235Y76037762D02*
X-13137235Y78037762D01*
X-13137235Y78037762D02*
X-12184854Y78037762D01*
D12*
X-9639428Y76950000D02*
X165580572Y76950000D01*
D11*
X157642810Y86154950D02*
X159642810Y86821616D01*
X159642810Y86821616D02*
X157642810Y87488283D01*
X158880905Y88154950D02*
X158880905Y89678759D01*
X159547572Y90535902D02*
X159642810Y90821616D01*
X159642810Y90821616D02*
X159642810Y91297807D01*
X159642810Y91297807D02*
X159547572Y91488283D01*
X159547572Y91488283D02*
X159452333Y91583521D01*
X159452333Y91583521D02*
X159261857Y91678759D01*
X159261857Y91678759D02*
X159071381Y91678759D01*
X159071381Y91678759D02*
X158880905Y91583521D01*
X158880905Y91583521D02*
X158785667Y91488283D01*
X158785667Y91488283D02*
X158690429Y91297807D01*
X158690429Y91297807D02*
X158595191Y90916854D01*
X158595191Y90916854D02*
X158499952Y90726378D01*
X158499952Y90726378D02*
X158404714Y90631140D01*
X158404714Y90631140D02*
X158214238Y90535902D01*
X158214238Y90535902D02*
X158023762Y90535902D01*
X158023762Y90535902D02*
X157833286Y90631140D01*
X157833286Y90631140D02*
X157738048Y90726378D01*
X157738048Y90726378D02*
X157642810Y90916854D01*
X157642810Y90916854D02*
X157642810Y91393045D01*
X157642810Y91393045D02*
X157738048Y91678759D01*
X159452333Y93678759D02*
X159547572Y93583521D01*
X159547572Y93583521D02*
X159642810Y93297807D01*
X159642810Y93297807D02*
X159642810Y93107331D01*
X159642810Y93107331D02*
X159547572Y92821616D01*
X159547572Y92821616D02*
X159357095Y92631140D01*
X159357095Y92631140D02*
X159166619Y92535902D01*
X159166619Y92535902D02*
X158785667Y92440664D01*
X158785667Y92440664D02*
X158499952Y92440664D01*
X158499952Y92440664D02*
X158119000Y92535902D01*
X158119000Y92535902D02*
X157928524Y92631140D01*
X157928524Y92631140D02*
X157738048Y92821616D01*
X157738048Y92821616D02*
X157642810Y93107331D01*
X157642810Y93107331D02*
X157642810Y93297807D01*
X157642810Y93297807D02*
X157738048Y93583521D01*
X157738048Y93583521D02*
X157833286Y93678759D01*
X157642810Y94916854D02*
X157642810Y95297807D01*
X157642810Y95297807D02*
X157738048Y95488283D01*
X157738048Y95488283D02*
X157928524Y95678759D01*
X157928524Y95678759D02*
X158309476Y95773997D01*
X158309476Y95773997D02*
X158976143Y95773997D01*
X158976143Y95773997D02*
X159357095Y95678759D01*
X159357095Y95678759D02*
X159547572Y95488283D01*
X159547572Y95488283D02*
X159642810Y95297807D01*
X159642810Y95297807D02*
X159642810Y94916854D01*
X159642810Y94916854D02*
X159547572Y94726378D01*
X159547572Y94726378D02*
X159357095Y94535902D01*
X159357095Y94535902D02*
X158976143Y94440664D01*
X158976143Y94440664D02*
X158309476Y94440664D01*
X158309476Y94440664D02*
X157928524Y94535902D01*
X157928524Y94535902D02*
X157738048Y94726378D01*
X157738048Y94726378D02*
X157642810Y94916854D01*
X159642810Y97773997D02*
X158690429Y97107330D01*
X159642810Y96631140D02*
X157642810Y96631140D01*
X157642810Y96631140D02*
X157642810Y97393045D01*
X157642810Y97393045D02*
X157738048Y97583521D01*
X157738048Y97583521D02*
X157833286Y97678759D01*
X157833286Y97678759D02*
X158023762Y97773997D01*
X158023762Y97773997D02*
X158309476Y97773997D01*
X158309476Y97773997D02*
X158499952Y97678759D01*
X158499952Y97678759D02*
X158595191Y97583521D01*
X158595191Y97583521D02*
X158690429Y97393045D01*
X158690429Y97393045D02*
X158690429Y96631140D01*
X158595191Y98631140D02*
X158595191Y99297807D01*
X159642810Y99583521D02*
X159642810Y98631140D01*
X159642810Y98631140D02*
X157642810Y98631140D01*
X157642810Y98631140D02*
X157642810Y99583521D01*
D12*
X158730572Y83800000D02*
X158730572Y-7100000D01*
D13*
X158032118Y56023191D02*
X157790213Y55853857D01*
X158032118Y55732905D02*
X157524118Y55732905D01*
X157524118Y55732905D02*
X157524118Y55926429D01*
X157524118Y55926429D02*
X157548308Y55974810D01*
X157548308Y55974810D02*
X157572499Y55999000D01*
X157572499Y55999000D02*
X157620880Y56023191D01*
X157620880Y56023191D02*
X157693451Y56023191D01*
X157693451Y56023191D02*
X157741832Y55999000D01*
X157741832Y55999000D02*
X157766023Y55974810D01*
X157766023Y55974810D02*
X157790213Y55926429D01*
X157790213Y55926429D02*
X157790213Y55732905D01*
X158032118Y56313476D02*
X158007928Y56265095D01*
X158007928Y56265095D02*
X157983737Y56240905D01*
X157983737Y56240905D02*
X157935356Y56216714D01*
X157935356Y56216714D02*
X157790213Y56216714D01*
X157790213Y56216714D02*
X157741832Y56240905D01*
X157741832Y56240905D02*
X157717642Y56265095D01*
X157717642Y56265095D02*
X157693451Y56313476D01*
X157693451Y56313476D02*
X157693451Y56386048D01*
X157693451Y56386048D02*
X157717642Y56434429D01*
X157717642Y56434429D02*
X157741832Y56458619D01*
X157741832Y56458619D02*
X157790213Y56482810D01*
X157790213Y56482810D02*
X157935356Y56482810D01*
X157935356Y56482810D02*
X157983737Y56458619D01*
X157983737Y56458619D02*
X158007928Y56434429D01*
X158007928Y56434429D02*
X158032118Y56386048D01*
X158032118Y56386048D02*
X158032118Y56313476D01*
X157693451Y56918238D02*
X158032118Y56918238D01*
X157693451Y56700524D02*
X157959547Y56700524D01*
X157959547Y56700524D02*
X158007928Y56724714D01*
X158007928Y56724714D02*
X158032118Y56773095D01*
X158032118Y56773095D02*
X158032118Y56845667D01*
X158032118Y56845667D02*
X158007928Y56894048D01*
X158007928Y56894048D02*
X157983737Y56918238D01*
X157693451Y57087571D02*
X157693451Y57281095D01*
X157524118Y57160143D02*
X157959547Y57160143D01*
X157959547Y57160143D02*
X158007928Y57184333D01*
X158007928Y57184333D02*
X158032118Y57232714D01*
X158032118Y57232714D02*
X158032118Y57281095D01*
X158007928Y57643953D02*
X158032118Y57595572D01*
X158032118Y57595572D02*
X158032118Y57498810D01*
X158032118Y57498810D02*
X158007928Y57450429D01*
X158007928Y57450429D02*
X157959547Y57426238D01*
X157959547Y57426238D02*
X157766023Y57426238D01*
X157766023Y57426238D02*
X157717642Y57450429D01*
X157717642Y57450429D02*
X157693451Y57498810D01*
X157693451Y57498810D02*
X157693451Y57595572D01*
X157693451Y57595572D02*
X157717642Y57643953D01*
X157717642Y57643953D02*
X157766023Y57668143D01*
X157766023Y57668143D02*
X157814404Y57668143D01*
X157814404Y57668143D02*
X157862785Y57426238D01*
X157524118Y58369668D02*
X157524118Y58466430D01*
X157524118Y58466430D02*
X157548308Y58514811D01*
X157548308Y58514811D02*
X157596689Y58563192D01*
X157596689Y58563192D02*
X157693451Y58587382D01*
X157693451Y58587382D02*
X157862785Y58587382D01*
X157862785Y58587382D02*
X157959547Y58563192D01*
X157959547Y58563192D02*
X158007928Y58514811D01*
X158007928Y58514811D02*
X158032118Y58466430D01*
X158032118Y58466430D02*
X158032118Y58369668D01*
X158032118Y58369668D02*
X158007928Y58321287D01*
X158007928Y58321287D02*
X157959547Y58272906D01*
X157959547Y58272906D02*
X157862785Y58248715D01*
X157862785Y58248715D02*
X157693451Y58248715D01*
X157693451Y58248715D02*
X157596689Y58272906D01*
X157596689Y58272906D02*
X157548308Y58321287D01*
X157548308Y58321287D02*
X157524118Y58369668D01*
X157693451Y59022810D02*
X158032118Y59022810D01*
X157693451Y58805096D02*
X157959547Y58805096D01*
X157959547Y58805096D02*
X158007928Y58829286D01*
X158007928Y58829286D02*
X158032118Y58877667D01*
X158032118Y58877667D02*
X158032118Y58950239D01*
X158032118Y58950239D02*
X158007928Y58998620D01*
X158007928Y58998620D02*
X157983737Y59022810D01*
X157693451Y59192143D02*
X157693451Y59385667D01*
X157524118Y59264715D02*
X157959547Y59264715D01*
X157959547Y59264715D02*
X158007928Y59288905D01*
X158007928Y59288905D02*
X158032118Y59337286D01*
X158032118Y59337286D02*
X158032118Y59385667D01*
X158032118Y17423191D02*
X157790213Y17253857D01*
X158032118Y17132905D02*
X157524118Y17132905D01*
X157524118Y17132905D02*
X157524118Y17326429D01*
X157524118Y17326429D02*
X157548308Y17374810D01*
X157548308Y17374810D02*
X157572499Y17399000D01*
X157572499Y17399000D02*
X157620880Y17423191D01*
X157620880Y17423191D02*
X157693451Y17423191D01*
X157693451Y17423191D02*
X157741832Y17399000D01*
X157741832Y17399000D02*
X157766023Y17374810D01*
X157766023Y17374810D02*
X157790213Y17326429D01*
X157790213Y17326429D02*
X157790213Y17132905D01*
X158032118Y17713476D02*
X158007928Y17665095D01*
X158007928Y17665095D02*
X157983737Y17640905D01*
X157983737Y17640905D02*
X157935356Y17616714D01*
X157935356Y17616714D02*
X157790213Y17616714D01*
X157790213Y17616714D02*
X157741832Y17640905D01*
X157741832Y17640905D02*
X157717642Y17665095D01*
X157717642Y17665095D02*
X157693451Y17713476D01*
X157693451Y17713476D02*
X157693451Y17786048D01*
X157693451Y17786048D02*
X157717642Y17834429D01*
X157717642Y17834429D02*
X157741832Y17858619D01*
X157741832Y17858619D02*
X157790213Y17882810D01*
X157790213Y17882810D02*
X157935356Y17882810D01*
X157935356Y17882810D02*
X157983737Y17858619D01*
X157983737Y17858619D02*
X158007928Y17834429D01*
X158007928Y17834429D02*
X158032118Y17786048D01*
X158032118Y17786048D02*
X158032118Y17713476D01*
X157693451Y18318238D02*
X158032118Y18318238D01*
X157693451Y18100524D02*
X157959547Y18100524D01*
X157959547Y18100524D02*
X158007928Y18124714D01*
X158007928Y18124714D02*
X158032118Y18173095D01*
X158032118Y18173095D02*
X158032118Y18245667D01*
X158032118Y18245667D02*
X158007928Y18294048D01*
X158007928Y18294048D02*
X157983737Y18318238D01*
X157693451Y18487571D02*
X157693451Y18681095D01*
X157524118Y18560143D02*
X157959547Y18560143D01*
X157959547Y18560143D02*
X158007928Y18584333D01*
X158007928Y18584333D02*
X158032118Y18632714D01*
X158032118Y18632714D02*
X158032118Y18681095D01*
X158007928Y19043953D02*
X158032118Y18995572D01*
X158032118Y18995572D02*
X158032118Y18898810D01*
X158032118Y18898810D02*
X158007928Y18850429D01*
X158007928Y18850429D02*
X157959547Y18826238D01*
X157959547Y18826238D02*
X157766023Y18826238D01*
X157766023Y18826238D02*
X157717642Y18850429D01*
X157717642Y18850429D02*
X157693451Y18898810D01*
X157693451Y18898810D02*
X157693451Y18995572D01*
X157693451Y18995572D02*
X157717642Y19043953D01*
X157717642Y19043953D02*
X157766023Y19068143D01*
X157766023Y19068143D02*
X157814404Y19068143D01*
X157814404Y19068143D02*
X157862785Y18826238D01*
X157524118Y19769668D02*
X157524118Y19866430D01*
X157524118Y19866430D02*
X157548308Y19914811D01*
X157548308Y19914811D02*
X157596689Y19963192D01*
X157596689Y19963192D02*
X157693451Y19987382D01*
X157693451Y19987382D02*
X157862785Y19987382D01*
X157862785Y19987382D02*
X157959547Y19963192D01*
X157959547Y19963192D02*
X158007928Y19914811D01*
X158007928Y19914811D02*
X158032118Y19866430D01*
X158032118Y19866430D02*
X158032118Y19769668D01*
X158032118Y19769668D02*
X158007928Y19721287D01*
X158007928Y19721287D02*
X157959547Y19672906D01*
X157959547Y19672906D02*
X157862785Y19648715D01*
X157862785Y19648715D02*
X157693451Y19648715D01*
X157693451Y19648715D02*
X157596689Y19672906D01*
X157596689Y19672906D02*
X157548308Y19721287D01*
X157548308Y19721287D02*
X157524118Y19769668D01*
X157693451Y20422810D02*
X158032118Y20422810D01*
X157693451Y20205096D02*
X157959547Y20205096D01*
X157959547Y20205096D02*
X158007928Y20229286D01*
X158007928Y20229286D02*
X158032118Y20277667D01*
X158032118Y20277667D02*
X158032118Y20350239D01*
X158032118Y20350239D02*
X158007928Y20398620D01*
X158007928Y20398620D02*
X157983737Y20422810D01*
X157693451Y20592143D02*
X157693451Y20785667D01*
X157524118Y20664715D02*
X157959547Y20664715D01*
X157959547Y20664715D02*
X158007928Y20688905D01*
X158007928Y20688905D02*
X158032118Y20737286D01*
X158032118Y20737286D02*
X158032118Y20785667D01*
X104192118Y56023191D02*
X103950213Y55853857D01*
X104192118Y55732905D02*
X103684118Y55732905D01*
X103684118Y55732905D02*
X103684118Y55926429D01*
X103684118Y55926429D02*
X103708308Y55974810D01*
X103708308Y55974810D02*
X103732499Y55999000D01*
X103732499Y55999000D02*
X103780880Y56023191D01*
X103780880Y56023191D02*
X103853451Y56023191D01*
X103853451Y56023191D02*
X103901832Y55999000D01*
X103901832Y55999000D02*
X103926023Y55974810D01*
X103926023Y55974810D02*
X103950213Y55926429D01*
X103950213Y55926429D02*
X103950213Y55732905D01*
X104192118Y56313476D02*
X104167928Y56265095D01*
X104167928Y56265095D02*
X104143737Y56240905D01*
X104143737Y56240905D02*
X104095356Y56216714D01*
X104095356Y56216714D02*
X103950213Y56216714D01*
X103950213Y56216714D02*
X103901832Y56240905D01*
X103901832Y56240905D02*
X103877642Y56265095D01*
X103877642Y56265095D02*
X103853451Y56313476D01*
X103853451Y56313476D02*
X103853451Y56386048D01*
X103853451Y56386048D02*
X103877642Y56434429D01*
X103877642Y56434429D02*
X103901832Y56458619D01*
X103901832Y56458619D02*
X103950213Y56482810D01*
X103950213Y56482810D02*
X104095356Y56482810D01*
X104095356Y56482810D02*
X104143737Y56458619D01*
X104143737Y56458619D02*
X104167928Y56434429D01*
X104167928Y56434429D02*
X104192118Y56386048D01*
X104192118Y56386048D02*
X104192118Y56313476D01*
X103853451Y56918238D02*
X104192118Y56918238D01*
X103853451Y56700524D02*
X104119547Y56700524D01*
X104119547Y56700524D02*
X104167928Y56724714D01*
X104167928Y56724714D02*
X104192118Y56773095D01*
X104192118Y56773095D02*
X104192118Y56845667D01*
X104192118Y56845667D02*
X104167928Y56894048D01*
X104167928Y56894048D02*
X104143737Y56918238D01*
X103853451Y57087571D02*
X103853451Y57281095D01*
X103684118Y57160143D02*
X104119547Y57160143D01*
X104119547Y57160143D02*
X104167928Y57184333D01*
X104167928Y57184333D02*
X104192118Y57232714D01*
X104192118Y57232714D02*
X104192118Y57281095D01*
X104167928Y57643953D02*
X104192118Y57595572D01*
X104192118Y57595572D02*
X104192118Y57498810D01*
X104192118Y57498810D02*
X104167928Y57450429D01*
X104167928Y57450429D02*
X104119547Y57426238D01*
X104119547Y57426238D02*
X103926023Y57426238D01*
X103926023Y57426238D02*
X103877642Y57450429D01*
X103877642Y57450429D02*
X103853451Y57498810D01*
X103853451Y57498810D02*
X103853451Y57595572D01*
X103853451Y57595572D02*
X103877642Y57643953D01*
X103877642Y57643953D02*
X103926023Y57668143D01*
X103926023Y57668143D02*
X103974404Y57668143D01*
X103974404Y57668143D02*
X104022785Y57426238D01*
X103684118Y58369668D02*
X103684118Y58466430D01*
X103684118Y58466430D02*
X103708308Y58514811D01*
X103708308Y58514811D02*
X103756689Y58563192D01*
X103756689Y58563192D02*
X103853451Y58587382D01*
X103853451Y58587382D02*
X104022785Y58587382D01*
X104022785Y58587382D02*
X104119547Y58563192D01*
X104119547Y58563192D02*
X104167928Y58514811D01*
X104167928Y58514811D02*
X104192118Y58466430D01*
X104192118Y58466430D02*
X104192118Y58369668D01*
X104192118Y58369668D02*
X104167928Y58321287D01*
X104167928Y58321287D02*
X104119547Y58272906D01*
X104119547Y58272906D02*
X104022785Y58248715D01*
X104022785Y58248715D02*
X103853451Y58248715D01*
X103853451Y58248715D02*
X103756689Y58272906D01*
X103756689Y58272906D02*
X103708308Y58321287D01*
X103708308Y58321287D02*
X103684118Y58369668D01*
X103853451Y59022810D02*
X104192118Y59022810D01*
X103853451Y58805096D02*
X104119547Y58805096D01*
X104119547Y58805096D02*
X104167928Y58829286D01*
X104167928Y58829286D02*
X104192118Y58877667D01*
X104192118Y58877667D02*
X104192118Y58950239D01*
X104192118Y58950239D02*
X104167928Y58998620D01*
X104167928Y58998620D02*
X104143737Y59022810D01*
X103853451Y59192143D02*
X103853451Y59385667D01*
X103684118Y59264715D02*
X104119547Y59264715D01*
X104119547Y59264715D02*
X104167928Y59288905D01*
X104167928Y59288905D02*
X104192118Y59337286D01*
X104192118Y59337286D02*
X104192118Y59385667D01*
X104192118Y17423191D02*
X103950213Y17253857D01*
X104192118Y17132905D02*
X103684118Y17132905D01*
X103684118Y17132905D02*
X103684118Y17326429D01*
X103684118Y17326429D02*
X103708308Y17374810D01*
X103708308Y17374810D02*
X103732499Y17399000D01*
X103732499Y17399000D02*
X103780880Y17423191D01*
X103780880Y17423191D02*
X103853451Y17423191D01*
X103853451Y17423191D02*
X103901832Y17399000D01*
X103901832Y17399000D02*
X103926023Y17374810D01*
X103926023Y17374810D02*
X103950213Y17326429D01*
X103950213Y17326429D02*
X103950213Y17132905D01*
X104192118Y17713476D02*
X104167928Y17665095D01*
X104167928Y17665095D02*
X104143737Y17640905D01*
X104143737Y17640905D02*
X104095356Y17616714D01*
X104095356Y17616714D02*
X103950213Y17616714D01*
X103950213Y17616714D02*
X103901832Y17640905D01*
X103901832Y17640905D02*
X103877642Y17665095D01*
X103877642Y17665095D02*
X103853451Y17713476D01*
X103853451Y17713476D02*
X103853451Y17786048D01*
X103853451Y17786048D02*
X103877642Y17834429D01*
X103877642Y17834429D02*
X103901832Y17858619D01*
X103901832Y17858619D02*
X103950213Y17882810D01*
X103950213Y17882810D02*
X104095356Y17882810D01*
X104095356Y17882810D02*
X104143737Y17858619D01*
X104143737Y17858619D02*
X104167928Y17834429D01*
X104167928Y17834429D02*
X104192118Y17786048D01*
X104192118Y17786048D02*
X104192118Y17713476D01*
X103853451Y18318238D02*
X104192118Y18318238D01*
X103853451Y18100524D02*
X104119547Y18100524D01*
X104119547Y18100524D02*
X104167928Y18124714D01*
X104167928Y18124714D02*
X104192118Y18173095D01*
X104192118Y18173095D02*
X104192118Y18245667D01*
X104192118Y18245667D02*
X104167928Y18294048D01*
X104167928Y18294048D02*
X104143737Y18318238D01*
X103853451Y18487571D02*
X103853451Y18681095D01*
X103684118Y18560143D02*
X104119547Y18560143D01*
X104119547Y18560143D02*
X104167928Y18584333D01*
X104167928Y18584333D02*
X104192118Y18632714D01*
X104192118Y18632714D02*
X104192118Y18681095D01*
X104167928Y19043953D02*
X104192118Y18995572D01*
X104192118Y18995572D02*
X104192118Y18898810D01*
X104192118Y18898810D02*
X104167928Y18850429D01*
X104167928Y18850429D02*
X104119547Y18826238D01*
X104119547Y18826238D02*
X103926023Y18826238D01*
X103926023Y18826238D02*
X103877642Y18850429D01*
X103877642Y18850429D02*
X103853451Y18898810D01*
X103853451Y18898810D02*
X103853451Y18995572D01*
X103853451Y18995572D02*
X103877642Y19043953D01*
X103877642Y19043953D02*
X103926023Y19068143D01*
X103926023Y19068143D02*
X103974404Y19068143D01*
X103974404Y19068143D02*
X104022785Y18826238D01*
X103684118Y19769668D02*
X103684118Y19866430D01*
X103684118Y19866430D02*
X103708308Y19914811D01*
X103708308Y19914811D02*
X103756689Y19963192D01*
X103756689Y19963192D02*
X103853451Y19987382D01*
X103853451Y19987382D02*
X104022785Y19987382D01*
X104022785Y19987382D02*
X104119547Y19963192D01*
X104119547Y19963192D02*
X104167928Y19914811D01*
X104167928Y19914811D02*
X104192118Y19866430D01*
X104192118Y19866430D02*
X104192118Y19769668D01*
X104192118Y19769668D02*
X104167928Y19721287D01*
X104167928Y19721287D02*
X104119547Y19672906D01*
X104119547Y19672906D02*
X104022785Y19648715D01*
X104022785Y19648715D02*
X103853451Y19648715D01*
X103853451Y19648715D02*
X103756689Y19672906D01*
X103756689Y19672906D02*
X103708308Y19721287D01*
X103708308Y19721287D02*
X103684118Y19769668D01*
X103853451Y20422810D02*
X104192118Y20422810D01*
X103853451Y20205096D02*
X104119547Y20205096D01*
X104119547Y20205096D02*
X104167928Y20229286D01*
X104167928Y20229286D02*
X104192118Y20277667D01*
X104192118Y20277667D02*
X104192118Y20350239D01*
X104192118Y20350239D02*
X104167928Y20398620D01*
X104167928Y20398620D02*
X104143737Y20422810D01*
X103853451Y20592143D02*
X103853451Y20785667D01*
X103684118Y20664715D02*
X104119547Y20664715D01*
X104119547Y20664715D02*
X104167928Y20688905D01*
X104167928Y20688905D02*
X104192118Y20737286D01*
X104192118Y20737286D02*
X104192118Y20785667D01*
X50352118Y56023191D02*
X50110213Y55853857D01*
X50352118Y55732905D02*
X49844118Y55732905D01*
X49844118Y55732905D02*
X49844118Y55926429D01*
X49844118Y55926429D02*
X49868308Y55974810D01*
X49868308Y55974810D02*
X49892499Y55999000D01*
X49892499Y55999000D02*
X49940880Y56023191D01*
X49940880Y56023191D02*
X50013451Y56023191D01*
X50013451Y56023191D02*
X50061832Y55999000D01*
X50061832Y55999000D02*
X50086023Y55974810D01*
X50086023Y55974810D02*
X50110213Y55926429D01*
X50110213Y55926429D02*
X50110213Y55732905D01*
X50352118Y56313476D02*
X50327928Y56265095D01*
X50327928Y56265095D02*
X50303737Y56240905D01*
X50303737Y56240905D02*
X50255356Y56216714D01*
X50255356Y56216714D02*
X50110213Y56216714D01*
X50110213Y56216714D02*
X50061832Y56240905D01*
X50061832Y56240905D02*
X50037642Y56265095D01*
X50037642Y56265095D02*
X50013451Y56313476D01*
X50013451Y56313476D02*
X50013451Y56386048D01*
X50013451Y56386048D02*
X50037642Y56434429D01*
X50037642Y56434429D02*
X50061832Y56458619D01*
X50061832Y56458619D02*
X50110213Y56482810D01*
X50110213Y56482810D02*
X50255356Y56482810D01*
X50255356Y56482810D02*
X50303737Y56458619D01*
X50303737Y56458619D02*
X50327928Y56434429D01*
X50327928Y56434429D02*
X50352118Y56386048D01*
X50352118Y56386048D02*
X50352118Y56313476D01*
X50013451Y56918238D02*
X50352118Y56918238D01*
X50013451Y56700524D02*
X50279547Y56700524D01*
X50279547Y56700524D02*
X50327928Y56724714D01*
X50327928Y56724714D02*
X50352118Y56773095D01*
X50352118Y56773095D02*
X50352118Y56845667D01*
X50352118Y56845667D02*
X50327928Y56894048D01*
X50327928Y56894048D02*
X50303737Y56918238D01*
X50013451Y57087571D02*
X50013451Y57281095D01*
X49844118Y57160143D02*
X50279547Y57160143D01*
X50279547Y57160143D02*
X50327928Y57184333D01*
X50327928Y57184333D02*
X50352118Y57232714D01*
X50352118Y57232714D02*
X50352118Y57281095D01*
X50327928Y57643953D02*
X50352118Y57595572D01*
X50352118Y57595572D02*
X50352118Y57498810D01*
X50352118Y57498810D02*
X50327928Y57450429D01*
X50327928Y57450429D02*
X50279547Y57426238D01*
X50279547Y57426238D02*
X50086023Y57426238D01*
X50086023Y57426238D02*
X50037642Y57450429D01*
X50037642Y57450429D02*
X50013451Y57498810D01*
X50013451Y57498810D02*
X50013451Y57595572D01*
X50013451Y57595572D02*
X50037642Y57643953D01*
X50037642Y57643953D02*
X50086023Y57668143D01*
X50086023Y57668143D02*
X50134404Y57668143D01*
X50134404Y57668143D02*
X50182785Y57426238D01*
X49844118Y58369668D02*
X49844118Y58466430D01*
X49844118Y58466430D02*
X49868308Y58514811D01*
X49868308Y58514811D02*
X49916689Y58563192D01*
X49916689Y58563192D02*
X50013451Y58587382D01*
X50013451Y58587382D02*
X50182785Y58587382D01*
X50182785Y58587382D02*
X50279547Y58563192D01*
X50279547Y58563192D02*
X50327928Y58514811D01*
X50327928Y58514811D02*
X50352118Y58466430D01*
X50352118Y58466430D02*
X50352118Y58369668D01*
X50352118Y58369668D02*
X50327928Y58321287D01*
X50327928Y58321287D02*
X50279547Y58272906D01*
X50279547Y58272906D02*
X50182785Y58248715D01*
X50182785Y58248715D02*
X50013451Y58248715D01*
X50013451Y58248715D02*
X49916689Y58272906D01*
X49916689Y58272906D02*
X49868308Y58321287D01*
X49868308Y58321287D02*
X49844118Y58369668D01*
X50013451Y59022810D02*
X50352118Y59022810D01*
X50013451Y58805096D02*
X50279547Y58805096D01*
X50279547Y58805096D02*
X50327928Y58829286D01*
X50327928Y58829286D02*
X50352118Y58877667D01*
X50352118Y58877667D02*
X50352118Y58950239D01*
X50352118Y58950239D02*
X50327928Y58998620D01*
X50327928Y58998620D02*
X50303737Y59022810D01*
X50013451Y59192143D02*
X50013451Y59385667D01*
X49844118Y59264715D02*
X50279547Y59264715D01*
X50279547Y59264715D02*
X50327928Y59288905D01*
X50327928Y59288905D02*
X50352118Y59337286D01*
X50352118Y59337286D02*
X50352118Y59385667D01*
X50352118Y17423191D02*
X50110213Y17253857D01*
X50352118Y17132905D02*
X49844118Y17132905D01*
X49844118Y17132905D02*
X49844118Y17326429D01*
X49844118Y17326429D02*
X49868308Y17374810D01*
X49868308Y17374810D02*
X49892499Y17399000D01*
X49892499Y17399000D02*
X49940880Y17423191D01*
X49940880Y17423191D02*
X50013451Y17423191D01*
X50013451Y17423191D02*
X50061832Y17399000D01*
X50061832Y17399000D02*
X50086023Y17374810D01*
X50086023Y17374810D02*
X50110213Y17326429D01*
X50110213Y17326429D02*
X50110213Y17132905D01*
X50352118Y17713476D02*
X50327928Y17665095D01*
X50327928Y17665095D02*
X50303737Y17640905D01*
X50303737Y17640905D02*
X50255356Y17616714D01*
X50255356Y17616714D02*
X50110213Y17616714D01*
X50110213Y17616714D02*
X50061832Y17640905D01*
X50061832Y17640905D02*
X50037642Y17665095D01*
X50037642Y17665095D02*
X50013451Y17713476D01*
X50013451Y17713476D02*
X50013451Y17786048D01*
X50013451Y17786048D02*
X50037642Y17834429D01*
X50037642Y17834429D02*
X50061832Y17858619D01*
X50061832Y17858619D02*
X50110213Y17882810D01*
X50110213Y17882810D02*
X50255356Y17882810D01*
X50255356Y17882810D02*
X50303737Y17858619D01*
X50303737Y17858619D02*
X50327928Y17834429D01*
X50327928Y17834429D02*
X50352118Y17786048D01*
X50352118Y17786048D02*
X50352118Y17713476D01*
X50013451Y18318238D02*
X50352118Y18318238D01*
X50013451Y18100524D02*
X50279547Y18100524D01*
X50279547Y18100524D02*
X50327928Y18124714D01*
X50327928Y18124714D02*
X50352118Y18173095D01*
X50352118Y18173095D02*
X50352118Y18245667D01*
X50352118Y18245667D02*
X50327928Y18294048D01*
X50327928Y18294048D02*
X50303737Y18318238D01*
X50013451Y18487571D02*
X50013451Y18681095D01*
X49844118Y18560143D02*
X50279547Y18560143D01*
X50279547Y18560143D02*
X50327928Y18584333D01*
X50327928Y18584333D02*
X50352118Y18632714D01*
X50352118Y18632714D02*
X50352118Y18681095D01*
X50327928Y19043953D02*
X50352118Y18995572D01*
X50352118Y18995572D02*
X50352118Y18898810D01*
X50352118Y18898810D02*
X50327928Y18850429D01*
X50327928Y18850429D02*
X50279547Y18826238D01*
X50279547Y18826238D02*
X50086023Y18826238D01*
X50086023Y18826238D02*
X50037642Y18850429D01*
X50037642Y18850429D02*
X50013451Y18898810D01*
X50013451Y18898810D02*
X50013451Y18995572D01*
X50013451Y18995572D02*
X50037642Y19043953D01*
X50037642Y19043953D02*
X50086023Y19068143D01*
X50086023Y19068143D02*
X50134404Y19068143D01*
X50134404Y19068143D02*
X50182785Y18826238D01*
X49844118Y19769668D02*
X49844118Y19866430D01*
X49844118Y19866430D02*
X49868308Y19914811D01*
X49868308Y19914811D02*
X49916689Y19963192D01*
X49916689Y19963192D02*
X50013451Y19987382D01*
X50013451Y19987382D02*
X50182785Y19987382D01*
X50182785Y19987382D02*
X50279547Y19963192D01*
X50279547Y19963192D02*
X50327928Y19914811D01*
X50327928Y19914811D02*
X50352118Y19866430D01*
X50352118Y19866430D02*
X50352118Y19769668D01*
X50352118Y19769668D02*
X50327928Y19721287D01*
X50327928Y19721287D02*
X50279547Y19672906D01*
X50279547Y19672906D02*
X50182785Y19648715D01*
X50182785Y19648715D02*
X50013451Y19648715D01*
X50013451Y19648715D02*
X49916689Y19672906D01*
X49916689Y19672906D02*
X49868308Y19721287D01*
X49868308Y19721287D02*
X49844118Y19769668D01*
X50013451Y20422810D02*
X50352118Y20422810D01*
X50013451Y20205096D02*
X50279547Y20205096D01*
X50279547Y20205096D02*
X50327928Y20229286D01*
X50327928Y20229286D02*
X50352118Y20277667D01*
X50352118Y20277667D02*
X50352118Y20350239D01*
X50352118Y20350239D02*
X50327928Y20398620D01*
X50327928Y20398620D02*
X50303737Y20422810D01*
X50013451Y20592143D02*
X50013451Y20785667D01*
X49844118Y20664715D02*
X50279547Y20664715D01*
X50279547Y20664715D02*
X50327928Y20688905D01*
X50327928Y20688905D02*
X50352118Y20737286D01*
X50352118Y20737286D02*
X50352118Y20785667D01*
M02*
