%TF.GenerationSoftware,KiCad,Pcbnew,7.0.6*%
%TF.CreationDate,2024-01-05T19:18:28-07:00*%
%TF.ProjectId,SparkFun_NEO-F10N_panelized,53706172-6b46-4756-9e5f-4e454f2d4631,rev?*%
%TF.SameCoordinates,Original*%
%TF.FileFunction,Soldermask,Top*%
%TF.FilePolarity,Negative*%
%FSLAX46Y46*%
G04 Gerber Fmt 4.6, Leading zero omitted, Abs format (unit mm)*
G04 Created by KiCad (PCBNEW 7.0.6) date 2024-01-05 19:18:28*
%MOMM*%
%LPD*%
G01*
G04 APERTURE LIST*
G04 Aperture macros list*
%AMRoundRect*
0 Rectangle with rounded corners*
0 $1 Rounding radius*
0 $2 $3 $4 $5 $6 $7 $8 $9 X,Y pos of 4 corners*
0 Add a 4 corners polygon primitive as box body*
4,1,4,$2,$3,$4,$5,$6,$7,$8,$9,$2,$3,0*
0 Add four circle primitives for the rounded corners*
1,1,$1+$1,$2,$3*
1,1,$1+$1,$4,$5*
1,1,$1+$1,$6,$7*
1,1,$1+$1,$8,$9*
0 Add four rect primitives between the rounded corners*
20,1,$1+$1,$2,$3,$4,$5,0*
20,1,$1+$1,$4,$5,$6,$7,0*
20,1,$1+$1,$6,$7,$8,$9,0*
20,1,$1+$1,$8,$9,$2,$3,0*%
G04 Aperture macros list end*
%ADD10C,3.000000*%
%ADD11C,2.082800*%
%ADD12C,3.302000*%
%ADD13RoundRect,0.101600X0.900000X0.400000X-0.900000X0.400000X-0.900000X-0.400000X0.900000X-0.400000X0*%
%ADD14RoundRect,0.140000X0.170000X-0.140000X0.170000X0.140000X-0.170000X0.140000X-0.170000X-0.140000X0*%
%ADD15RoundRect,0.200000X-0.200000X-0.275000X0.200000X-0.275000X0.200000X0.275000X-0.200000X0.275000X0*%
%ADD16RoundRect,0.225000X-0.225000X-0.250000X0.225000X-0.250000X0.225000X0.250000X-0.225000X0.250000X0*%
%ADD17RoundRect,0.200000X-0.275000X0.200000X-0.275000X-0.200000X0.275000X-0.200000X0.275000X0.200000X0*%
%ADD18RoundRect,0.225000X0.225000X0.250000X-0.225000X0.250000X-0.225000X-0.250000X0.225000X-0.250000X0*%
%ADD19RoundRect,0.101600X0.600000X-0.275000X0.600000X0.275000X-0.600000X0.275000X-0.600000X-0.275000X0*%
%ADD20RoundRect,0.225000X-0.250000X0.225000X-0.250000X-0.225000X0.250000X-0.225000X0.250000X0.225000X0*%
%ADD21RoundRect,0.101600X0.150000X0.350000X-0.150000X0.350000X-0.150000X-0.350000X0.150000X-0.350000X0*%
%ADD22RoundRect,0.101600X-0.600000X0.275000X-0.600000X-0.275000X0.600000X-0.275000X0.600000X0.275000X0*%
%ADD23RoundRect,0.200000X0.200000X0.275000X-0.200000X0.275000X-0.200000X-0.275000X0.200000X-0.275000X0*%
%ADD24RoundRect,0.101600X0.315000X0.415000X-0.315000X0.415000X-0.315000X-0.415000X0.315000X-0.415000X0*%
%ADD25RoundRect,0.225000X0.250000X-0.225000X0.250000X0.225000X-0.250000X0.225000X-0.250000X-0.225000X0*%
%ADD26RoundRect,0.101600X-2.000000X0.750000X-2.000000X-0.750000X2.000000X-0.750000X2.000000X0.750000X0*%
%ADD27C,1.000000*%
%ADD28RoundRect,0.101600X-0.600000X0.300000X-0.600000X-0.300000X0.600000X-0.300000X0.600000X0.300000X0*%
%ADD29RoundRect,0.101600X0.400000X0.450000X-0.400000X0.450000X-0.400000X-0.450000X0.400000X-0.450000X0*%
%ADD30RoundRect,0.200000X0.275000X-0.200000X0.275000X0.200000X-0.275000X0.200000X-0.275000X-0.200000X0*%
%ADD31RoundRect,0.218750X-0.256250X0.218750X-0.256250X-0.218750X0.256250X-0.218750X0.256250X0.218750X0*%
%ADD32RoundRect,0.101600X-0.315000X-0.415000X0.315000X-0.415000X0.315000X0.415000X-0.315000X0.415000X0*%
%ADD33C,0.650000*%
%ADD34RoundRect,0.070000X0.500000X-0.150000X0.500000X0.150000X-0.500000X0.150000X-0.500000X-0.150000X0*%
%ADD35RoundRect,0.070000X-0.500000X0.150000X-0.500000X-0.150000X0.500000X-0.150000X0.500000X0.150000X0*%
%ADD36RoundRect,0.070000X0.500000X-0.300000X0.500000X0.300000X-0.500000X0.300000X-0.500000X-0.300000X0*%
%ADD37RoundRect,0.070000X-0.500000X0.300000X-0.500000X-0.300000X0.500000X-0.300000X0.500000X0.300000X0*%
%ADD38O,1.600000X1.000000*%
%ADD39O,2.100000X1.000000*%
G04 APERTURE END LIST*
%TO.C,BT1*%
G36*
X123085000Y47709645D02*
G01*
X120599645Y50195000D01*
X123085000Y50195000D01*
X123085000Y47709645D01*
G37*
G36*
X123080000Y44790000D02*
G01*
X118880000Y44790000D01*
X118880000Y46490000D01*
X123080000Y46490000D01*
X123080000Y44790000D01*
G37*
G36*
X123085000Y9109645D02*
G01*
X120599645Y11595000D01*
X123085000Y11595000D01*
X123085000Y9109645D01*
G37*
G36*
X123080000Y6190000D02*
G01*
X118880000Y6190000D01*
X118880000Y7890000D01*
X123080000Y7890000D01*
X123080000Y6190000D01*
G37*
G36*
X69245000Y47709645D02*
G01*
X66759645Y50195000D01*
X69245000Y50195000D01*
X69245000Y47709645D01*
G37*
G36*
X69240000Y44790000D02*
G01*
X65040000Y44790000D01*
X65040000Y46490000D01*
X69240000Y46490000D01*
X69240000Y44790000D01*
G37*
G36*
X69245000Y9109645D02*
G01*
X66759645Y11595000D01*
X69245000Y11595000D01*
X69245000Y9109645D01*
G37*
G36*
X69240000Y6190000D02*
G01*
X65040000Y6190000D01*
X65040000Y7890000D01*
X69240000Y7890000D01*
X69240000Y6190000D01*
G37*
G36*
X15405000Y47709645D02*
G01*
X12919645Y50195000D01*
X15405000Y50195000D01*
X15405000Y47709645D01*
G37*
G36*
X15400000Y44790000D02*
G01*
X11200000Y44790000D01*
X11200000Y46490000D01*
X15400000Y46490000D01*
X15400000Y44790000D01*
G37*
G36*
X15405000Y9109645D02*
G01*
X12919645Y11595000D01*
X15405000Y11595000D01*
X15405000Y9109645D01*
G37*
G36*
X15400000Y6190000D02*
G01*
X11200000Y6190000D01*
X11200000Y7890000D01*
X15400000Y7890000D01*
X15400000Y6190000D01*
G37*
%TD*%
D10*
%TO.C,*%
X162155572Y74700000D03*
%TD*%
%TO.C,*%
X-6214428Y74700000D03*
%TD*%
%TO.C,*%
X-6214428Y2000000D03*
%TD*%
D11*
%TO.C,JP5*%
X115300000Y72890000D03*
X117840000Y72890000D03*
%TD*%
%TO.C,JP5*%
X115300000Y34290000D03*
X117840000Y34290000D03*
%TD*%
%TO.C,JP5*%
X61460000Y72890000D03*
X64000000Y72890000D03*
%TD*%
%TO.C,JP5*%
X61460000Y34290000D03*
X64000000Y34290000D03*
%TD*%
%TO.C,JP5*%
X7620000Y72890000D03*
X10160000Y72890000D03*
%TD*%
D12*
%TO.C,ST4*%
X110220000Y41140000D03*
%TD*%
%TO.C,ST4*%
X110220000Y2540000D03*
%TD*%
%TO.C,ST4*%
X56380000Y41140000D03*
%TD*%
%TO.C,ST4*%
X56380000Y2540000D03*
%TD*%
%TO.C,ST4*%
X2540000Y41140000D03*
%TD*%
D13*
%TO.C,U3*%
X144160000Y50650000D03*
X144160000Y51750000D03*
X144160000Y52850000D03*
X144160000Y53950000D03*
X144160000Y55050000D03*
X144160000Y56150000D03*
X144160000Y57250000D03*
X144160000Y60250000D03*
X144160000Y61350000D03*
X144160000Y62450000D03*
X144160000Y63550000D03*
X144160000Y64650000D03*
X132160000Y64650000D03*
X132160000Y63550000D03*
X132160000Y62450000D03*
X132160000Y61350000D03*
X132160000Y60250000D03*
X132160000Y57250000D03*
X132160000Y56150000D03*
X132160000Y55050000D03*
X132160000Y53950000D03*
X132160000Y52850000D03*
X132160000Y51750000D03*
X132160000Y50650000D03*
%TD*%
%TO.C,U3*%
X144160000Y12050000D03*
X144160000Y13150000D03*
X144160000Y14250000D03*
X144160000Y15350000D03*
X144160000Y16450000D03*
X144160000Y17550000D03*
X144160000Y18650000D03*
X144160000Y21650000D03*
X144160000Y22750000D03*
X144160000Y23850000D03*
X144160000Y24950000D03*
X144160000Y26050000D03*
X132160000Y26050000D03*
X132160000Y24950000D03*
X132160000Y23850000D03*
X132160000Y22750000D03*
X132160000Y21650000D03*
X132160000Y18650000D03*
X132160000Y17550000D03*
X132160000Y16450000D03*
X132160000Y15350000D03*
X132160000Y14250000D03*
X132160000Y13150000D03*
X132160000Y12050000D03*
%TD*%
%TO.C,U3*%
X90320000Y50650000D03*
X90320000Y51750000D03*
X90320000Y52850000D03*
X90320000Y53950000D03*
X90320000Y55050000D03*
X90320000Y56150000D03*
X90320000Y57250000D03*
X90320000Y60250000D03*
X90320000Y61350000D03*
X90320000Y62450000D03*
X90320000Y63550000D03*
X90320000Y64650000D03*
X78320000Y64650000D03*
X78320000Y63550000D03*
X78320000Y62450000D03*
X78320000Y61350000D03*
X78320000Y60250000D03*
X78320000Y57250000D03*
X78320000Y56150000D03*
X78320000Y55050000D03*
X78320000Y53950000D03*
X78320000Y52850000D03*
X78320000Y51750000D03*
X78320000Y50650000D03*
%TD*%
%TO.C,U3*%
X90320000Y12050000D03*
X90320000Y13150000D03*
X90320000Y14250000D03*
X90320000Y15350000D03*
X90320000Y16450000D03*
X90320000Y17550000D03*
X90320000Y18650000D03*
X90320000Y21650000D03*
X90320000Y22750000D03*
X90320000Y23850000D03*
X90320000Y24950000D03*
X90320000Y26050000D03*
X78320000Y26050000D03*
X78320000Y24950000D03*
X78320000Y23850000D03*
X78320000Y22750000D03*
X78320000Y21650000D03*
X78320000Y18650000D03*
X78320000Y17550000D03*
X78320000Y16450000D03*
X78320000Y15350000D03*
X78320000Y14250000D03*
X78320000Y13150000D03*
X78320000Y12050000D03*
%TD*%
%TO.C,U3*%
X36480000Y50650000D03*
X36480000Y51750000D03*
X36480000Y52850000D03*
X36480000Y53950000D03*
X36480000Y55050000D03*
X36480000Y56150000D03*
X36480000Y57250000D03*
X36480000Y60250000D03*
X36480000Y61350000D03*
X36480000Y62450000D03*
X36480000Y63550000D03*
X36480000Y64650000D03*
X24480000Y64650000D03*
X24480000Y63550000D03*
X24480000Y62450000D03*
X24480000Y61350000D03*
X24480000Y60250000D03*
X24480000Y57250000D03*
X24480000Y56150000D03*
X24480000Y55050000D03*
X24480000Y53950000D03*
X24480000Y52850000D03*
X24480000Y51750000D03*
X24480000Y50650000D03*
%TD*%
D14*
%TO.C,D6*%
X151495000Y56535000D03*
X151495000Y57495000D03*
%TD*%
%TO.C,D6*%
X151495000Y17935000D03*
X151495000Y18895000D03*
%TD*%
%TO.C,D6*%
X97655000Y56535000D03*
X97655000Y57495000D03*
%TD*%
%TO.C,D6*%
X97655000Y17935000D03*
X97655000Y18895000D03*
%TD*%
%TO.C,D6*%
X43815000Y56535000D03*
X43815000Y57495000D03*
%TD*%
D15*
%TO.C,R7*%
X124635000Y47490000D03*
X126285000Y47490000D03*
%TD*%
%TO.C,R7*%
X124635000Y8890000D03*
X126285000Y8890000D03*
%TD*%
%TO.C,R7*%
X70795000Y47490000D03*
X72445000Y47490000D03*
%TD*%
%TO.C,R7*%
X70795000Y8890000D03*
X72445000Y8890000D03*
%TD*%
%TO.C,R7*%
X16955000Y47490000D03*
X18605000Y47490000D03*
%TD*%
D16*
%TO.C,L1*%
X149291250Y61460000D03*
X150841250Y61460000D03*
%TD*%
%TO.C,L1*%
X149291250Y22860000D03*
X150841250Y22860000D03*
%TD*%
%TO.C,L1*%
X95451250Y61460000D03*
X97001250Y61460000D03*
%TD*%
%TO.C,L1*%
X95451250Y22860000D03*
X97001250Y22860000D03*
%TD*%
%TO.C,L1*%
X41611250Y61460000D03*
X43161250Y61460000D03*
%TD*%
%TO.C,C3*%
X124685000Y44950000D03*
X126235000Y44950000D03*
%TD*%
%TO.C,C3*%
X124685000Y6350000D03*
X126235000Y6350000D03*
%TD*%
%TO.C,C3*%
X70845000Y44950000D03*
X72395000Y44950000D03*
%TD*%
%TO.C,C3*%
X70845000Y6350000D03*
X72395000Y6350000D03*
%TD*%
%TO.C,C3*%
X17005000Y44950000D03*
X18555000Y44950000D03*
%TD*%
D17*
%TO.C,R30*%
X139430000Y47045000D03*
X139430000Y45395000D03*
%TD*%
%TO.C,R30*%
X139430000Y8445000D03*
X139430000Y6795000D03*
%TD*%
%TO.C,R30*%
X85590000Y47045000D03*
X85590000Y45395000D03*
%TD*%
%TO.C,R30*%
X85590000Y8445000D03*
X85590000Y6795000D03*
%TD*%
%TO.C,R30*%
X31750000Y47045000D03*
X31750000Y45395000D03*
%TD*%
D12*
%TO.C,ST3*%
X110220000Y74160000D03*
%TD*%
%TO.C,ST3*%
X110220000Y35560000D03*
%TD*%
%TO.C,ST3*%
X56380000Y74160000D03*
%TD*%
%TO.C,ST3*%
X56380000Y35560000D03*
%TD*%
%TO.C,ST3*%
X2540000Y74160000D03*
%TD*%
D18*
%TO.C,C13*%
X122425000Y64000000D03*
X120875000Y64000000D03*
%TD*%
%TO.C,C13*%
X122425000Y25400000D03*
X120875000Y25400000D03*
%TD*%
%TO.C,C13*%
X68585000Y64000000D03*
X67035000Y64000000D03*
%TD*%
%TO.C,C13*%
X68585000Y25400000D03*
X67035000Y25400000D03*
%TD*%
%TO.C,C13*%
X14745000Y64000000D03*
X13195000Y64000000D03*
%TD*%
D19*
%TO.C,U1*%
X119140100Y56700000D03*
X119140100Y57650000D03*
X119140100Y58600000D03*
X116539900Y58600000D03*
X116539900Y57700000D03*
X116539900Y56700000D03*
%TD*%
%TO.C,U1*%
X119140100Y18100000D03*
X119140100Y19050000D03*
X119140100Y20000000D03*
X116539900Y20000000D03*
X116539900Y19100000D03*
X116539900Y18100000D03*
%TD*%
%TO.C,U1*%
X65300100Y56700000D03*
X65300100Y57650000D03*
X65300100Y58600000D03*
X62699900Y58600000D03*
X62699900Y57700000D03*
X62699900Y56700000D03*
%TD*%
%TO.C,U1*%
X65300100Y18100000D03*
X65300100Y19050000D03*
X65300100Y20000000D03*
X62699900Y20000000D03*
X62699900Y19100000D03*
X62699900Y18100000D03*
%TD*%
%TO.C,U1*%
X11460100Y56700000D03*
X11460100Y57650000D03*
X11460100Y58600000D03*
X8859900Y58600000D03*
X8859900Y57700000D03*
X8859900Y56700000D03*
%TD*%
D20*
%TO.C,C1*%
X115300000Y69855000D03*
X115300000Y68305000D03*
%TD*%
%TO.C,C1*%
X115300000Y31255000D03*
X115300000Y29705000D03*
%TD*%
%TO.C,C1*%
X61460000Y69855000D03*
X61460000Y68305000D03*
%TD*%
%TO.C,C1*%
X61460000Y31255000D03*
X61460000Y29705000D03*
%TD*%
%TO.C,C1*%
X7620000Y69855000D03*
X7620000Y68305000D03*
%TD*%
D17*
%TO.C,R31*%
X144510000Y47045000D03*
X144510000Y45395000D03*
%TD*%
%TO.C,R31*%
X144510000Y8445000D03*
X144510000Y6795000D03*
%TD*%
%TO.C,R31*%
X90670000Y47045000D03*
X90670000Y45395000D03*
%TD*%
%TO.C,R31*%
X90670000Y8445000D03*
X90670000Y6795000D03*
%TD*%
%TO.C,R31*%
X36830000Y47045000D03*
X36830000Y45395000D03*
%TD*%
D18*
%TO.C,C6*%
X148460000Y59713750D03*
X146910000Y59713750D03*
%TD*%
%TO.C,C6*%
X148460000Y21113750D03*
X146910000Y21113750D03*
%TD*%
%TO.C,C6*%
X94620000Y59713750D03*
X93070000Y59713750D03*
%TD*%
%TO.C,C6*%
X94620000Y21113750D03*
X93070000Y21113750D03*
%TD*%
%TO.C,C6*%
X40780000Y59713750D03*
X39230000Y59713750D03*
%TD*%
D16*
%TO.C,C12*%
X125955000Y64000000D03*
X127505000Y64000000D03*
%TD*%
%TO.C,C12*%
X125955000Y25400000D03*
X127505000Y25400000D03*
%TD*%
%TO.C,C12*%
X72115000Y64000000D03*
X73665000Y64000000D03*
%TD*%
%TO.C,C12*%
X72115000Y25400000D03*
X73665000Y25400000D03*
%TD*%
%TO.C,C12*%
X18275000Y64000000D03*
X19825000Y64000000D03*
%TD*%
D18*
%TO.C,C7*%
X149730000Y63365000D03*
X148180000Y63365000D03*
%TD*%
%TO.C,C7*%
X149730000Y24765000D03*
X148180000Y24765000D03*
%TD*%
%TO.C,C7*%
X95890000Y63365000D03*
X94340000Y63365000D03*
%TD*%
%TO.C,C7*%
X95890000Y24765000D03*
X94340000Y24765000D03*
%TD*%
%TO.C,C7*%
X42050000Y63365000D03*
X40500000Y63365000D03*
%TD*%
D21*
%TO.C,D3*%
X142620000Y47020000D03*
X141970000Y47020000D03*
X141320000Y47020000D03*
X141320000Y45420000D03*
X142620000Y45420000D03*
%TD*%
%TO.C,D3*%
X142620000Y8420000D03*
X141970000Y8420000D03*
X141320000Y8420000D03*
X141320000Y6820000D03*
X142620000Y6820000D03*
%TD*%
%TO.C,D3*%
X88780000Y47020000D03*
X88130000Y47020000D03*
X87480000Y47020000D03*
X87480000Y45420000D03*
X88780000Y45420000D03*
%TD*%
%TO.C,D3*%
X88780000Y8420000D03*
X88130000Y8420000D03*
X87480000Y8420000D03*
X87480000Y6820000D03*
X88780000Y6820000D03*
%TD*%
%TO.C,D3*%
X34940000Y47020000D03*
X34290000Y47020000D03*
X33640000Y47020000D03*
X33640000Y45420000D03*
X34940000Y45420000D03*
%TD*%
D20*
%TO.C,C8*%
X125460000Y69855000D03*
X125460000Y68305000D03*
%TD*%
%TO.C,C8*%
X125460000Y31255000D03*
X125460000Y29705000D03*
%TD*%
%TO.C,C8*%
X71620000Y69855000D03*
X71620000Y68305000D03*
%TD*%
%TO.C,C8*%
X71620000Y31255000D03*
X71620000Y29705000D03*
%TD*%
%TO.C,C8*%
X17780000Y69855000D03*
X17780000Y68305000D03*
%TD*%
D18*
%TO.C,C4*%
X148460000Y58126250D03*
X146910000Y58126250D03*
%TD*%
%TO.C,C4*%
X148460000Y19526250D03*
X146910000Y19526250D03*
%TD*%
%TO.C,C4*%
X94620000Y58126250D03*
X93070000Y58126250D03*
%TD*%
%TO.C,C4*%
X94620000Y19526250D03*
X93070000Y19526250D03*
%TD*%
%TO.C,C4*%
X40780000Y58126250D03*
X39230000Y58126250D03*
%TD*%
D11*
%TO.C,J4*%
X134350000Y75430000D03*
X131810000Y75430000D03*
X129270000Y75430000D03*
X126730000Y75430000D03*
X124190000Y75430000D03*
X121650000Y75430000D03*
%TD*%
%TO.C,J4*%
X134350000Y36830000D03*
X131810000Y36830000D03*
X129270000Y36830000D03*
X126730000Y36830000D03*
X124190000Y36830000D03*
X121650000Y36830000D03*
%TD*%
%TO.C,J4*%
X80510000Y75430000D03*
X77970000Y75430000D03*
X75430000Y75430000D03*
X72890000Y75430000D03*
X70350000Y75430000D03*
X67810000Y75430000D03*
%TD*%
%TO.C,J4*%
X80510000Y36830000D03*
X77970000Y36830000D03*
X75430000Y36830000D03*
X72890000Y36830000D03*
X70350000Y36830000D03*
X67810000Y36830000D03*
%TD*%
%TO.C,J4*%
X26670000Y75430000D03*
X24130000Y75430000D03*
X21590000Y75430000D03*
X19050000Y75430000D03*
X16510000Y75430000D03*
X13970000Y75430000D03*
%TD*%
D22*
%TO.C,U2*%
X117809900Y70030000D03*
X117809900Y69080000D03*
X117809900Y68130000D03*
X120410100Y68130000D03*
X120410100Y70030000D03*
%TD*%
%TO.C,U2*%
X117809900Y31430000D03*
X117809900Y30480000D03*
X117809900Y29530000D03*
X120410100Y29530000D03*
X120410100Y31430000D03*
%TD*%
%TO.C,U2*%
X63969900Y70030000D03*
X63969900Y69080000D03*
X63969900Y68130000D03*
X66570100Y68130000D03*
X66570100Y70030000D03*
%TD*%
%TO.C,U2*%
X63969900Y31430000D03*
X63969900Y30480000D03*
X63969900Y29530000D03*
X66570100Y29530000D03*
X66570100Y31430000D03*
%TD*%
%TO.C,U2*%
X10129900Y70030000D03*
X10129900Y69080000D03*
X10129900Y68130000D03*
X12730100Y68130000D03*
X12730100Y70030000D03*
%TD*%
D12*
%TO.C,ST1*%
X155940000Y74160000D03*
%TD*%
%TO.C,ST1*%
X155940000Y35560000D03*
%TD*%
%TO.C,ST1*%
X102100000Y74160000D03*
%TD*%
%TO.C,ST1*%
X102100000Y35560000D03*
%TD*%
%TO.C,ST1*%
X48260000Y74160000D03*
%TD*%
D23*
%TO.C,R1*%
X111045000Y51300000D03*
X109395000Y51300000D03*
%TD*%
%TO.C,R1*%
X111045000Y12700000D03*
X109395000Y12700000D03*
%TD*%
%TO.C,R1*%
X57205000Y51300000D03*
X55555000Y51300000D03*
%TD*%
%TO.C,R1*%
X57205000Y12700000D03*
X55555000Y12700000D03*
%TD*%
%TO.C,R1*%
X3365000Y51300000D03*
X1715000Y51300000D03*
%TD*%
D24*
%TO.C,D8*%
X110340000Y67810000D03*
X112640000Y67810000D03*
%TD*%
%TO.C,D8*%
X110340000Y29210000D03*
X112640000Y29210000D03*
%TD*%
%TO.C,D8*%
X56500000Y67810000D03*
X58800000Y67810000D03*
%TD*%
%TO.C,D8*%
X56500000Y29210000D03*
X58800000Y29210000D03*
%TD*%
%TO.C,D8*%
X2660000Y67810000D03*
X4960000Y67810000D03*
%TD*%
D25*
%TO.C,C16*%
X130540000Y68305000D03*
X130540000Y69855000D03*
%TD*%
%TO.C,C16*%
X130540000Y29705000D03*
X130540000Y31255000D03*
%TD*%
%TO.C,C16*%
X76700000Y68305000D03*
X76700000Y69855000D03*
%TD*%
%TO.C,C16*%
X76700000Y29705000D03*
X76700000Y31255000D03*
%TD*%
%TO.C,C16*%
X22860000Y68305000D03*
X22860000Y69855000D03*
%TD*%
D26*
%TO.C,J5*%
X154797000Y60190000D03*
X154797000Y55110000D03*
X154797000Y57650000D03*
%TD*%
%TO.C,J5*%
X154797000Y21590000D03*
X154797000Y16510000D03*
X154797000Y19050000D03*
%TD*%
%TO.C,J5*%
X100957000Y60190000D03*
X100957000Y55110000D03*
X100957000Y57650000D03*
%TD*%
%TO.C,J5*%
X100957000Y21590000D03*
X100957000Y16510000D03*
X100957000Y19050000D03*
%TD*%
%TO.C,J5*%
X47117000Y60190000D03*
X47117000Y55110000D03*
X47117000Y57650000D03*
%TD*%
D27*
%TO.C,FID4*%
X152130000Y39870000D03*
%TD*%
%TO.C,FID4*%
X152130000Y1270000D03*
%TD*%
%TO.C,FID4*%
X98290000Y39870000D03*
%TD*%
%TO.C,FID4*%
X98290000Y1270000D03*
%TD*%
%TO.C,FID4*%
X44450000Y39870000D03*
%TD*%
D28*
%TO.C,U8*%
X121390000Y62095000D03*
X121390000Y60825000D03*
X121390000Y59555000D03*
X121390000Y58285000D03*
X121390000Y57015000D03*
X121390000Y55745000D03*
X121390000Y54475000D03*
X121390000Y53205000D03*
X126990000Y53205000D03*
X126990000Y54475000D03*
X126990000Y55745000D03*
X126990000Y57015000D03*
X126990000Y58285000D03*
X126990000Y59555000D03*
X126990000Y60825000D03*
X126990000Y62095000D03*
%TD*%
%TO.C,U8*%
X121390000Y23495000D03*
X121390000Y22225000D03*
X121390000Y20955000D03*
X121390000Y19685000D03*
X121390000Y18415000D03*
X121390000Y17145000D03*
X121390000Y15875000D03*
X121390000Y14605000D03*
X126990000Y14605000D03*
X126990000Y15875000D03*
X126990000Y17145000D03*
X126990000Y18415000D03*
X126990000Y19685000D03*
X126990000Y20955000D03*
X126990000Y22225000D03*
X126990000Y23495000D03*
%TD*%
%TO.C,U8*%
X67550000Y62095000D03*
X67550000Y60825000D03*
X67550000Y59555000D03*
X67550000Y58285000D03*
X67550000Y57015000D03*
X67550000Y55745000D03*
X67550000Y54475000D03*
X67550000Y53205000D03*
X73150000Y53205000D03*
X73150000Y54475000D03*
X73150000Y55745000D03*
X73150000Y57015000D03*
X73150000Y58285000D03*
X73150000Y59555000D03*
X73150000Y60825000D03*
X73150000Y62095000D03*
%TD*%
%TO.C,U8*%
X67550000Y23495000D03*
X67550000Y22225000D03*
X67550000Y20955000D03*
X67550000Y19685000D03*
X67550000Y18415000D03*
X67550000Y17145000D03*
X67550000Y15875000D03*
X67550000Y14605000D03*
X73150000Y14605000D03*
X73150000Y15875000D03*
X73150000Y17145000D03*
X73150000Y18415000D03*
X73150000Y19685000D03*
X73150000Y20955000D03*
X73150000Y22225000D03*
X73150000Y23495000D03*
%TD*%
%TO.C,U8*%
X13710000Y62095000D03*
X13710000Y60825000D03*
X13710000Y59555000D03*
X13710000Y58285000D03*
X13710000Y57015000D03*
X13710000Y55745000D03*
X13710000Y54475000D03*
X13710000Y53205000D03*
X19310000Y53205000D03*
X19310000Y54475000D03*
X19310000Y55745000D03*
X19310000Y57015000D03*
X19310000Y58285000D03*
X19310000Y59555000D03*
X19310000Y60825000D03*
X19310000Y62095000D03*
%TD*%
D29*
%TO.C,Q1*%
X156255000Y47220000D03*
X154355000Y47220000D03*
X155305000Y45120000D03*
%TD*%
%TO.C,Q1*%
X156255000Y8620000D03*
X154355000Y8620000D03*
X155305000Y6520000D03*
%TD*%
%TO.C,Q1*%
X102415000Y47220000D03*
X100515000Y47220000D03*
X101465000Y45120000D03*
%TD*%
%TO.C,Q1*%
X102415000Y8620000D03*
X100515000Y8620000D03*
X101465000Y6520000D03*
%TD*%
%TO.C,Q1*%
X48575000Y47220000D03*
X46675000Y47220000D03*
X47625000Y45120000D03*
%TD*%
D17*
%TO.C,R16*%
X134350000Y47045000D03*
X134350000Y45395000D03*
%TD*%
%TO.C,R16*%
X134350000Y8445000D03*
X134350000Y6795000D03*
%TD*%
%TO.C,R16*%
X80510000Y47045000D03*
X80510000Y45395000D03*
%TD*%
%TO.C,R16*%
X80510000Y8445000D03*
X80510000Y6795000D03*
%TD*%
%TO.C,R16*%
X26670000Y47045000D03*
X26670000Y45395000D03*
%TD*%
D20*
%TO.C,L2*%
X128000000Y69855000D03*
X128000000Y68305000D03*
%TD*%
%TO.C,L2*%
X128000000Y31255000D03*
X128000000Y29705000D03*
%TD*%
%TO.C,L2*%
X74160000Y69855000D03*
X74160000Y68305000D03*
%TD*%
%TO.C,L2*%
X74160000Y31255000D03*
X74160000Y29705000D03*
%TD*%
%TO.C,L2*%
X20320000Y69855000D03*
X20320000Y68305000D03*
%TD*%
D21*
%TO.C,D2*%
X132460000Y47020000D03*
X131810000Y47020000D03*
X131160000Y47020000D03*
X131160000Y45420000D03*
X132460000Y45420000D03*
%TD*%
%TO.C,D2*%
X132460000Y8420000D03*
X131810000Y8420000D03*
X131160000Y8420000D03*
X131160000Y6820000D03*
X132460000Y6820000D03*
%TD*%
%TO.C,D2*%
X78620000Y47020000D03*
X77970000Y47020000D03*
X77320000Y47020000D03*
X77320000Y45420000D03*
X78620000Y45420000D03*
%TD*%
%TO.C,D2*%
X78620000Y8420000D03*
X77970000Y8420000D03*
X77320000Y8420000D03*
X77320000Y6820000D03*
X78620000Y6820000D03*
%TD*%
%TO.C,D2*%
X24780000Y47020000D03*
X24130000Y47020000D03*
X23480000Y47020000D03*
X23480000Y45420000D03*
X24780000Y45420000D03*
%TD*%
D20*
%TO.C,C2*%
X122920000Y69855000D03*
X122920000Y68305000D03*
%TD*%
%TO.C,C2*%
X122920000Y31255000D03*
X122920000Y29705000D03*
%TD*%
%TO.C,C2*%
X69080000Y69855000D03*
X69080000Y68305000D03*
%TD*%
%TO.C,C2*%
X69080000Y31255000D03*
X69080000Y29705000D03*
%TD*%
%TO.C,C2*%
X15240000Y69855000D03*
X15240000Y68305000D03*
%TD*%
D30*
%TO.C,R4*%
X149590000Y41585000D03*
X149590000Y43235000D03*
%TD*%
%TO.C,R4*%
X149590000Y2985000D03*
X149590000Y4635000D03*
%TD*%
%TO.C,R4*%
X95750000Y41585000D03*
X95750000Y43235000D03*
%TD*%
%TO.C,R4*%
X95750000Y2985000D03*
X95750000Y4635000D03*
%TD*%
%TO.C,R4*%
X41910000Y41585000D03*
X41910000Y43235000D03*
%TD*%
D31*
%TO.C,D1*%
X149590000Y47007500D03*
X149590000Y45432500D03*
%TD*%
%TO.C,D1*%
X149590000Y8407500D03*
X149590000Y6832500D03*
%TD*%
%TO.C,D1*%
X95750000Y47007500D03*
X95750000Y45432500D03*
%TD*%
%TO.C,D1*%
X95750000Y8407500D03*
X95750000Y6832500D03*
%TD*%
%TO.C,D1*%
X41910000Y47007500D03*
X41910000Y45432500D03*
%TD*%
D30*
%TO.C,R5*%
X152130000Y41585000D03*
X152130000Y43235000D03*
%TD*%
%TO.C,R5*%
X152130000Y2985000D03*
X152130000Y4635000D03*
%TD*%
%TO.C,R5*%
X98290000Y41585000D03*
X98290000Y43235000D03*
%TD*%
%TO.C,R5*%
X98290000Y2985000D03*
X98290000Y4635000D03*
%TD*%
%TO.C,R5*%
X44450000Y41585000D03*
X44450000Y43235000D03*
%TD*%
D23*
%TO.C,R2*%
X111045000Y64000000D03*
X109395000Y64000000D03*
%TD*%
%TO.C,R2*%
X111045000Y25400000D03*
X109395000Y25400000D03*
%TD*%
%TO.C,R2*%
X57205000Y64000000D03*
X55555000Y64000000D03*
%TD*%
%TO.C,R2*%
X57205000Y25400000D03*
X55555000Y25400000D03*
%TD*%
%TO.C,R2*%
X3365000Y64000000D03*
X1715000Y64000000D03*
%TD*%
D32*
%TO.C,D5*%
X126610000Y50030000D03*
X124310000Y50030000D03*
%TD*%
%TO.C,D5*%
X126610000Y11430000D03*
X124310000Y11430000D03*
%TD*%
%TO.C,D5*%
X72770000Y50030000D03*
X70470000Y50030000D03*
%TD*%
%TO.C,D5*%
X72770000Y11430000D03*
X70470000Y11430000D03*
%TD*%
%TO.C,D5*%
X18930000Y50030000D03*
X16630000Y50030000D03*
%TD*%
D17*
%TO.C,R29*%
X136890000Y47045000D03*
X136890000Y45395000D03*
%TD*%
%TO.C,R29*%
X136890000Y8445000D03*
X136890000Y6795000D03*
%TD*%
%TO.C,R29*%
X83050000Y47045000D03*
X83050000Y45395000D03*
%TD*%
%TO.C,R29*%
X83050000Y8445000D03*
X83050000Y6795000D03*
%TD*%
%TO.C,R29*%
X29210000Y47045000D03*
X29210000Y45395000D03*
%TD*%
D12*
%TO.C,ST2*%
X155940000Y41140000D03*
%TD*%
%TO.C,ST2*%
X155940000Y2540000D03*
%TD*%
%TO.C,ST2*%
X102100000Y41140000D03*
%TD*%
%TO.C,ST2*%
X102100000Y2540000D03*
%TD*%
%TO.C,ST2*%
X48260000Y41140000D03*
%TD*%
D24*
%TO.C,D7*%
X110340000Y70350000D03*
X112640000Y70350000D03*
%TD*%
%TO.C,D7*%
X110340000Y31750000D03*
X112640000Y31750000D03*
%TD*%
%TO.C,D7*%
X56500000Y70350000D03*
X58800000Y70350000D03*
%TD*%
%TO.C,D7*%
X56500000Y31750000D03*
X58800000Y31750000D03*
%TD*%
%TO.C,D7*%
X2660000Y70350000D03*
X4960000Y70350000D03*
%TD*%
D33*
%TO.C,J1*%
X112585000Y60540000D03*
X112585000Y54760000D03*
D34*
X113690000Y58900000D03*
X113690000Y57900000D03*
D35*
X113690000Y57400000D03*
X113690000Y56400000D03*
X113690000Y55900000D03*
X113690000Y56900000D03*
D34*
X113690000Y58400000D03*
X113690000Y59400000D03*
D36*
X113690000Y60875000D03*
D37*
X113690000Y54425000D03*
D38*
X108935000Y61968000D03*
D39*
X113115000Y61968000D03*
X113115000Y53332000D03*
D38*
X108935000Y53332000D03*
D36*
X113690000Y60100000D03*
D37*
X113690000Y55200000D03*
%TD*%
D33*
%TO.C,J1*%
X112585000Y21940000D03*
X112585000Y16160000D03*
D34*
X113690000Y20300000D03*
X113690000Y19300000D03*
D35*
X113690000Y18800000D03*
X113690000Y17800000D03*
X113690000Y17300000D03*
X113690000Y18300000D03*
D34*
X113690000Y19800000D03*
X113690000Y20800000D03*
D36*
X113690000Y22275000D03*
D37*
X113690000Y15825000D03*
D38*
X108935000Y23368000D03*
D39*
X113115000Y23368000D03*
X113115000Y14732000D03*
D38*
X108935000Y14732000D03*
D36*
X113690000Y21500000D03*
D37*
X113690000Y16600000D03*
%TD*%
D33*
%TO.C,J1*%
X58745000Y60540000D03*
X58745000Y54760000D03*
D34*
X59850000Y58900000D03*
X59850000Y57900000D03*
D35*
X59850000Y57400000D03*
X59850000Y56400000D03*
X59850000Y55900000D03*
X59850000Y56900000D03*
D34*
X59850000Y58400000D03*
X59850000Y59400000D03*
D36*
X59850000Y60875000D03*
D37*
X59850000Y54425000D03*
D38*
X55095000Y61968000D03*
D39*
X59275000Y61968000D03*
X59275000Y53332000D03*
D38*
X55095000Y53332000D03*
D36*
X59850000Y60100000D03*
D37*
X59850000Y55200000D03*
%TD*%
D33*
%TO.C,J1*%
X58745000Y21940000D03*
X58745000Y16160000D03*
D34*
X59850000Y20300000D03*
X59850000Y19300000D03*
D35*
X59850000Y18800000D03*
X59850000Y17800000D03*
X59850000Y17300000D03*
X59850000Y18300000D03*
D34*
X59850000Y19800000D03*
X59850000Y20800000D03*
D36*
X59850000Y22275000D03*
D37*
X59850000Y15825000D03*
D38*
X55095000Y23368000D03*
D39*
X59275000Y23368000D03*
X59275000Y14732000D03*
D38*
X55095000Y14732000D03*
D36*
X59850000Y21500000D03*
D37*
X59850000Y16600000D03*
%TD*%
D33*
%TO.C,J1*%
X4905000Y60540000D03*
X4905000Y54760000D03*
D34*
X6010000Y58900000D03*
X6010000Y57900000D03*
D35*
X6010000Y57400000D03*
X6010000Y56400000D03*
X6010000Y55900000D03*
X6010000Y56900000D03*
D34*
X6010000Y58400000D03*
X6010000Y59400000D03*
D36*
X6010000Y60875000D03*
D37*
X6010000Y54425000D03*
D38*
X1255000Y61968000D03*
D39*
X5435000Y61968000D03*
X5435000Y53332000D03*
D38*
X1255000Y53332000D03*
D36*
X6010000Y60100000D03*
D37*
X6010000Y55200000D03*
%TD*%
D17*
%TO.C,R15*%
X129270000Y47045000D03*
X129270000Y45395000D03*
%TD*%
%TO.C,R15*%
X129270000Y8445000D03*
X129270000Y6795000D03*
%TD*%
%TO.C,R15*%
X75430000Y47045000D03*
X75430000Y45395000D03*
%TD*%
%TO.C,R15*%
X75430000Y8445000D03*
X75430000Y6795000D03*
%TD*%
%TO.C,R15*%
X21590000Y47045000D03*
X21590000Y45395000D03*
%TD*%
D23*
%TO.C,R3*%
X147875000Y61460000D03*
X146225000Y61460000D03*
%TD*%
%TO.C,R3*%
X147875000Y22860000D03*
X146225000Y22860000D03*
%TD*%
%TO.C,R3*%
X94035000Y61460000D03*
X92385000Y61460000D03*
%TD*%
%TO.C,R3*%
X94035000Y22860000D03*
X92385000Y22860000D03*
%TD*%
%TO.C,R3*%
X40195000Y61460000D03*
X38545000Y61460000D03*
%TD*%
D30*
%TO.C,R34*%
X147050000Y41585000D03*
X147050000Y43235000D03*
%TD*%
%TO.C,R34*%
X147050000Y2985000D03*
X147050000Y4635000D03*
%TD*%
%TO.C,R34*%
X93210000Y41585000D03*
X93210000Y43235000D03*
%TD*%
%TO.C,R34*%
X93210000Y2985000D03*
X93210000Y4635000D03*
%TD*%
%TO.C,R34*%
X39370000Y41585000D03*
X39370000Y43235000D03*
%TD*%
D27*
%TO.C,FID3*%
X114030000Y75430000D03*
%TD*%
%TO.C,FID3*%
X114030000Y36830000D03*
%TD*%
%TO.C,FID3*%
X60190000Y75430000D03*
%TD*%
%TO.C,FID3*%
X60190000Y36830000D03*
%TD*%
%TO.C,FID3*%
X6350000Y75430000D03*
%TD*%
D17*
%TO.C,R12*%
X144510000Y43235000D03*
X144510000Y41585000D03*
%TD*%
%TO.C,R12*%
X144510000Y4635000D03*
X144510000Y2985000D03*
%TD*%
%TO.C,R12*%
X90670000Y43235000D03*
X90670000Y41585000D03*
%TD*%
%TO.C,R12*%
X90670000Y4635000D03*
X90670000Y2985000D03*
%TD*%
%TO.C,R12*%
X36830000Y43235000D03*
X36830000Y41585000D03*
%TD*%
D11*
%TO.C,J2*%
X141970000Y39870000D03*
X139430000Y39870000D03*
X136890000Y39870000D03*
X134350000Y39870000D03*
X131810000Y39870000D03*
X129270000Y39870000D03*
X126730000Y39870000D03*
X124190000Y39870000D03*
X121650000Y39870000D03*
%TD*%
%TO.C,J2*%
X141970000Y1270000D03*
X139430000Y1270000D03*
X136890000Y1270000D03*
X134350000Y1270000D03*
X131810000Y1270000D03*
X129270000Y1270000D03*
X126730000Y1270000D03*
X124190000Y1270000D03*
X121650000Y1270000D03*
%TD*%
%TO.C,J2*%
X88130000Y39870000D03*
X85590000Y39870000D03*
X83050000Y39870000D03*
X80510000Y39870000D03*
X77970000Y39870000D03*
X75430000Y39870000D03*
X72890000Y39870000D03*
X70350000Y39870000D03*
X67810000Y39870000D03*
%TD*%
%TO.C,J2*%
X88130000Y1270000D03*
X85590000Y1270000D03*
X83050000Y1270000D03*
X80510000Y1270000D03*
X77970000Y1270000D03*
X75430000Y1270000D03*
X72890000Y1270000D03*
X70350000Y1270000D03*
X67810000Y1270000D03*
%TD*%
%TO.C,J2*%
X34290000Y39870000D03*
X31750000Y39870000D03*
X29210000Y39870000D03*
X26670000Y39870000D03*
X24130000Y39870000D03*
X21590000Y39870000D03*
X19050000Y39870000D03*
X16510000Y39870000D03*
X13970000Y39870000D03*
%TD*%
D31*
%TO.C,D4*%
X152130000Y47007500D03*
X152130000Y45432500D03*
%TD*%
%TO.C,D4*%
X152130000Y8407500D03*
X152130000Y6832500D03*
%TD*%
%TO.C,D4*%
X98290000Y47007500D03*
X98290000Y45432500D03*
%TD*%
%TO.C,D4*%
X98290000Y8407500D03*
X98290000Y6832500D03*
%TD*%
%TO.C,D4*%
X44450000Y47007500D03*
X44450000Y45432500D03*
%TD*%
%TO.C,D4*%
X44450000Y8407500D03*
X44450000Y6832500D03*
%TD*%
D11*
%TO.C,J2*%
X34290000Y1270000D03*
X31750000Y1270000D03*
X29210000Y1270000D03*
X26670000Y1270000D03*
X24130000Y1270000D03*
X21590000Y1270000D03*
X19050000Y1270000D03*
X16510000Y1270000D03*
X13970000Y1270000D03*
%TD*%
D17*
%TO.C,R12*%
X36830000Y4635000D03*
X36830000Y2985000D03*
%TD*%
D27*
%TO.C,FID3*%
X6350000Y36830000D03*
%TD*%
D30*
%TO.C,R34*%
X39370000Y2985000D03*
X39370000Y4635000D03*
%TD*%
D23*
%TO.C,R3*%
X40195000Y22860000D03*
X38545000Y22860000D03*
%TD*%
D17*
%TO.C,R15*%
X21590000Y8445000D03*
X21590000Y6795000D03*
%TD*%
D33*
%TO.C,J1*%
X4905000Y21940000D03*
X4905000Y16160000D03*
D34*
X6010000Y20300000D03*
X6010000Y19300000D03*
D35*
X6010000Y18800000D03*
X6010000Y17800000D03*
X6010000Y17300000D03*
X6010000Y18300000D03*
D34*
X6010000Y19800000D03*
X6010000Y20800000D03*
D36*
X6010000Y22275000D03*
D37*
X6010000Y15825000D03*
D38*
X1255000Y23368000D03*
D39*
X5435000Y23368000D03*
X5435000Y14732000D03*
D38*
X1255000Y14732000D03*
D36*
X6010000Y21500000D03*
D37*
X6010000Y16600000D03*
%TD*%
D24*
%TO.C,D7*%
X2660000Y31750000D03*
X4960000Y31750000D03*
%TD*%
D12*
%TO.C,ST2*%
X48260000Y2540000D03*
%TD*%
D17*
%TO.C,R29*%
X29210000Y8445000D03*
X29210000Y6795000D03*
%TD*%
D32*
%TO.C,D5*%
X18930000Y11430000D03*
X16630000Y11430000D03*
%TD*%
D23*
%TO.C,R2*%
X3365000Y25400000D03*
X1715000Y25400000D03*
%TD*%
D30*
%TO.C,R5*%
X44450000Y2985000D03*
X44450000Y4635000D03*
%TD*%
D31*
%TO.C,D1*%
X41910000Y8407500D03*
X41910000Y6832500D03*
%TD*%
D30*
%TO.C,R4*%
X41910000Y2985000D03*
X41910000Y4635000D03*
%TD*%
D20*
%TO.C,C2*%
X15240000Y31255000D03*
X15240000Y29705000D03*
%TD*%
D21*
%TO.C,D2*%
X24780000Y8420000D03*
X24130000Y8420000D03*
X23480000Y8420000D03*
X23480000Y6820000D03*
X24780000Y6820000D03*
%TD*%
D20*
%TO.C,L2*%
X20320000Y31255000D03*
X20320000Y29705000D03*
%TD*%
D17*
%TO.C,R16*%
X26670000Y8445000D03*
X26670000Y6795000D03*
%TD*%
D29*
%TO.C,Q1*%
X48575000Y8620000D03*
X46675000Y8620000D03*
X47625000Y6520000D03*
%TD*%
D28*
%TO.C,U8*%
X13710000Y23495000D03*
X13710000Y22225000D03*
X13710000Y20955000D03*
X13710000Y19685000D03*
X13710000Y18415000D03*
X13710000Y17145000D03*
X13710000Y15875000D03*
X13710000Y14605000D03*
X19310000Y14605000D03*
X19310000Y15875000D03*
X19310000Y17145000D03*
X19310000Y18415000D03*
X19310000Y19685000D03*
X19310000Y20955000D03*
X19310000Y22225000D03*
X19310000Y23495000D03*
%TD*%
D27*
%TO.C,FID4*%
X44450000Y1270000D03*
%TD*%
D26*
%TO.C,J5*%
X47117000Y21590000D03*
X47117000Y16510000D03*
X47117000Y19050000D03*
%TD*%
D25*
%TO.C,C16*%
X22860000Y29705000D03*
X22860000Y31255000D03*
%TD*%
D24*
%TO.C,D8*%
X2660000Y29210000D03*
X4960000Y29210000D03*
%TD*%
D23*
%TO.C,R1*%
X3365000Y12700000D03*
X1715000Y12700000D03*
%TD*%
D12*
%TO.C,ST1*%
X48260000Y35560000D03*
%TD*%
D22*
%TO.C,U2*%
X10129900Y31430000D03*
X10129900Y30480000D03*
X10129900Y29530000D03*
X12730100Y29530000D03*
X12730100Y31430000D03*
%TD*%
D11*
%TO.C,J4*%
X26670000Y36830000D03*
X24130000Y36830000D03*
X21590000Y36830000D03*
X19050000Y36830000D03*
X16510000Y36830000D03*
X13970000Y36830000D03*
%TD*%
D18*
%TO.C,C4*%
X40780000Y19526250D03*
X39230000Y19526250D03*
%TD*%
D20*
%TO.C,C8*%
X17780000Y31255000D03*
X17780000Y29705000D03*
%TD*%
D21*
%TO.C,D3*%
X34940000Y8420000D03*
X34290000Y8420000D03*
X33640000Y8420000D03*
X33640000Y6820000D03*
X34940000Y6820000D03*
%TD*%
D18*
%TO.C,C7*%
X42050000Y24765000D03*
X40500000Y24765000D03*
%TD*%
D16*
%TO.C,C12*%
X18275000Y25400000D03*
X19825000Y25400000D03*
%TD*%
D18*
%TO.C,C6*%
X40780000Y21113750D03*
X39230000Y21113750D03*
%TD*%
D17*
%TO.C,R31*%
X36830000Y8445000D03*
X36830000Y6795000D03*
%TD*%
D20*
%TO.C,C1*%
X7620000Y31255000D03*
X7620000Y29705000D03*
%TD*%
D19*
%TO.C,U1*%
X11460100Y18100000D03*
X11460100Y19050000D03*
X11460100Y20000000D03*
X8859900Y20000000D03*
X8859900Y19100000D03*
X8859900Y18100000D03*
%TD*%
D18*
%TO.C,C13*%
X14745000Y25400000D03*
X13195000Y25400000D03*
%TD*%
D12*
%TO.C,ST3*%
X2540000Y35560000D03*
%TD*%
D17*
%TO.C,R30*%
X31750000Y8445000D03*
X31750000Y6795000D03*
%TD*%
D16*
%TO.C,C3*%
X17005000Y6350000D03*
X18555000Y6350000D03*
%TD*%
%TO.C,L1*%
X41611250Y22860000D03*
X43161250Y22860000D03*
%TD*%
D15*
%TO.C,R7*%
X16955000Y8890000D03*
X18605000Y8890000D03*
%TD*%
D14*
%TO.C,D6*%
X43815000Y17935000D03*
X43815000Y18895000D03*
%TD*%
D13*
%TO.C,U3*%
X36480000Y12050000D03*
X36480000Y13150000D03*
X36480000Y14250000D03*
X36480000Y15350000D03*
X36480000Y16450000D03*
X36480000Y17550000D03*
X36480000Y18650000D03*
X36480000Y21650000D03*
X36480000Y22750000D03*
X36480000Y23850000D03*
X36480000Y24950000D03*
X36480000Y26050000D03*
X24480000Y26050000D03*
X24480000Y24950000D03*
X24480000Y23850000D03*
X24480000Y22750000D03*
X24480000Y21650000D03*
X24480000Y18650000D03*
X24480000Y17550000D03*
X24480000Y16450000D03*
X24480000Y15350000D03*
X24480000Y14250000D03*
X24480000Y13150000D03*
X24480000Y12050000D03*
%TD*%
D12*
%TO.C,ST4*%
X2540000Y2540000D03*
%TD*%
D11*
%TO.C,JP5*%
X7620000Y34290000D03*
X10160000Y34290000D03*
%TD*%
M02*
