%TF.GenerationSoftware,KiCad,Pcbnew,7.0.6*%
%TF.CreationDate,2024-01-05T19:18:27-07:00*%
%TF.ProjectId,SparkFun_NEO-F10N_panelized,53706172-6b46-4756-9e5f-4e454f2d4631,rev?*%
%TF.SameCoordinates,Original*%
%TF.FileFunction,Paste,Top*%
%TF.FilePolarity,Positive*%
%FSLAX46Y46*%
G04 Gerber Fmt 4.6, Leading zero omitted, Abs format (unit mm)*
G04 Created by KiCad (PCBNEW 7.0.6) date 2024-01-05 19:18:27*
%MOMM*%
%LPD*%
G01*
G04 APERTURE LIST*
G04 Aperture macros list*
%AMRoundRect*
0 Rectangle with rounded corners*
0 $1 Rounding radius*
0 $2 $3 $4 $5 $6 $7 $8 $9 X,Y pos of 4 corners*
0 Add a 4 corners polygon primitive as box body*
4,1,4,$2,$3,$4,$5,$6,$7,$8,$9,$2,$3,0*
0 Add four circle primitives for the rounded corners*
1,1,$1+$1,$2,$3*
1,1,$1+$1,$4,$5*
1,1,$1+$1,$6,$7*
1,1,$1+$1,$8,$9*
0 Add four rect primitives between the rounded corners*
20,1,$1+$1,$2,$3,$4,$5,0*
20,1,$1+$1,$4,$5,$6,$7,0*
20,1,$1+$1,$6,$7,$8,$9,0*
20,1,$1+$1,$8,$9,$2,$3,0*%
G04 Aperture macros list end*
%ADD10RoundRect,0.140000X0.170000X-0.140000X0.170000X0.140000X-0.170000X0.140000X-0.170000X-0.140000X0*%
%ADD11RoundRect,0.200000X-0.200000X-0.275000X0.200000X-0.275000X0.200000X0.275000X-0.200000X0.275000X0*%
%ADD12RoundRect,0.225000X-0.225000X-0.250000X0.225000X-0.250000X0.225000X0.250000X-0.225000X0.250000X0*%
%ADD13RoundRect,0.200000X-0.275000X0.200000X-0.275000X-0.200000X0.275000X-0.200000X0.275000X0.200000X0*%
%ADD14RoundRect,0.225000X0.225000X0.250000X-0.225000X0.250000X-0.225000X-0.250000X0.225000X-0.250000X0*%
%ADD15R,1.200000X0.550000*%
%ADD16RoundRect,0.225000X-0.250000X0.225000X-0.250000X-0.225000X0.250000X-0.225000X0.250000X0.225000X0*%
%ADD17R,0.300000X0.700000*%
%ADD18RoundRect,0.200000X0.200000X0.275000X-0.200000X0.275000X-0.200000X-0.275000X0.200000X-0.275000X0*%
%ADD19R,0.630000X0.830000*%
%ADD20RoundRect,0.225000X0.250000X-0.225000X0.250000X0.225000X-0.250000X0.225000X-0.250000X-0.225000X0*%
%ADD21R,1.200000X0.600000*%
%ADD22R,0.800000X0.900000*%
%ADD23RoundRect,0.200000X0.275000X-0.200000X0.275000X0.200000X-0.275000X0.200000X-0.275000X-0.200000X0*%
%ADD24RoundRect,0.218750X-0.256250X0.218750X-0.256250X-0.218750X0.256250X-0.218750X0.256250X0.218750X0*%
%ADD25R,1.000000X0.300000*%
%ADD26R,1.000000X0.600000*%
%ADD27O,1.600000X1.000000*%
%ADD28O,2.100000X1.000000*%
G04 APERTURE END LIST*
%TO.C,U3*%
G36*
X132060000Y64250000D02*
G01*
X130860000Y64250000D01*
X130860000Y65050000D01*
X132060000Y65050000D01*
X132060000Y64250000D01*
G37*
G36*
X132060000Y63150000D02*
G01*
X130860000Y63150000D01*
X130860000Y63950000D01*
X132060000Y63950000D01*
X132060000Y63150000D01*
G37*
G36*
X132060000Y62050000D02*
G01*
X130860000Y62050000D01*
X130860000Y62850000D01*
X132060000Y62850000D01*
X132060000Y62050000D01*
G37*
G36*
X132060000Y60950000D02*
G01*
X130860000Y60950000D01*
X130860000Y61750000D01*
X132060000Y61750000D01*
X132060000Y60950000D01*
G37*
G36*
X132060000Y59850000D02*
G01*
X130860000Y59850000D01*
X130860000Y60650000D01*
X132060000Y60650000D01*
X132060000Y59850000D01*
G37*
G36*
X132060000Y56850000D02*
G01*
X130860000Y56850000D01*
X130860000Y57650000D01*
X132060000Y57650000D01*
X132060000Y56850000D01*
G37*
G36*
X132060000Y55750000D02*
G01*
X130860000Y55750000D01*
X130860000Y56550000D01*
X132060000Y56550000D01*
X132060000Y55750000D01*
G37*
G36*
X132060000Y54650000D02*
G01*
X130860000Y54650000D01*
X130860000Y55450000D01*
X132060000Y55450000D01*
X132060000Y54650000D01*
G37*
G36*
X132060000Y53550000D02*
G01*
X130860000Y53550000D01*
X130860000Y54350000D01*
X132060000Y54350000D01*
X132060000Y53550000D01*
G37*
G36*
X132060000Y52450000D02*
G01*
X130860000Y52450000D01*
X130860000Y53250000D01*
X132060000Y53250000D01*
X132060000Y52450000D01*
G37*
G36*
X132060000Y51350000D02*
G01*
X130860000Y51350000D01*
X130860000Y52150000D01*
X132060000Y52150000D01*
X132060000Y51350000D01*
G37*
G36*
X132060000Y50250000D02*
G01*
X130860000Y50250000D01*
X130860000Y51050000D01*
X132060000Y51050000D01*
X132060000Y50250000D01*
G37*
G36*
X132960000Y64350000D02*
G01*
X132060000Y64350000D01*
X132060000Y64950000D01*
X132960000Y64950000D01*
X132960000Y64350000D01*
G37*
G36*
X132960000Y63250000D02*
G01*
X132060000Y63250000D01*
X132060000Y63850000D01*
X132960000Y63850000D01*
X132960000Y63250000D01*
G37*
G36*
X132960000Y62150000D02*
G01*
X132060000Y62150000D01*
X132060000Y62750000D01*
X132960000Y62750000D01*
X132960000Y62150000D01*
G37*
G36*
X132960000Y61050000D02*
G01*
X132060000Y61050000D01*
X132060000Y61650000D01*
X132960000Y61650000D01*
X132960000Y61050000D01*
G37*
G36*
X132960000Y59950000D02*
G01*
X132060000Y59950000D01*
X132060000Y60550000D01*
X132960000Y60550000D01*
X132960000Y59950000D01*
G37*
G36*
X132960000Y56950000D02*
G01*
X132060000Y56950000D01*
X132060000Y57550000D01*
X132960000Y57550000D01*
X132960000Y56950000D01*
G37*
G36*
X132960000Y55850000D02*
G01*
X132060000Y55850000D01*
X132060000Y56450000D01*
X132960000Y56450000D01*
X132960000Y55850000D01*
G37*
G36*
X132960000Y54750000D02*
G01*
X132060000Y54750000D01*
X132060000Y55350000D01*
X132960000Y55350000D01*
X132960000Y54750000D01*
G37*
G36*
X132960000Y53650000D02*
G01*
X132060000Y53650000D01*
X132060000Y54250000D01*
X132960000Y54250000D01*
X132960000Y53650000D01*
G37*
G36*
X132960000Y52550000D02*
G01*
X132060000Y52550000D01*
X132060000Y53150000D01*
X132960000Y53150000D01*
X132960000Y52550000D01*
G37*
G36*
X132960000Y51450000D02*
G01*
X132060000Y51450000D01*
X132060000Y52050000D01*
X132960000Y52050000D01*
X132960000Y51450000D01*
G37*
G36*
X132960000Y50350000D02*
G01*
X132060000Y50350000D01*
X132060000Y50950000D01*
X132960000Y50950000D01*
X132960000Y50350000D01*
G37*
G36*
X144260000Y64350000D02*
G01*
X143360000Y64350000D01*
X143360000Y64950000D01*
X144260000Y64950000D01*
X144260000Y64350000D01*
G37*
G36*
X144260000Y63250000D02*
G01*
X143360000Y63250000D01*
X143360000Y63850000D01*
X144260000Y63850000D01*
X144260000Y63250000D01*
G37*
G36*
X144260000Y62150000D02*
G01*
X143360000Y62150000D01*
X143360000Y62750000D01*
X144260000Y62750000D01*
X144260000Y62150000D01*
G37*
G36*
X144260000Y61050000D02*
G01*
X143360000Y61050000D01*
X143360000Y61650000D01*
X144260000Y61650000D01*
X144260000Y61050000D01*
G37*
G36*
X144260000Y59950000D02*
G01*
X143360000Y59950000D01*
X143360000Y60550000D01*
X144260000Y60550000D01*
X144260000Y59950000D01*
G37*
G36*
X144260000Y56950000D02*
G01*
X143360000Y56950000D01*
X143360000Y57550000D01*
X144260000Y57550000D01*
X144260000Y56950000D01*
G37*
G36*
X144260000Y55850000D02*
G01*
X143360000Y55850000D01*
X143360000Y56450000D01*
X144260000Y56450000D01*
X144260000Y55850000D01*
G37*
G36*
X144260000Y54750000D02*
G01*
X143360000Y54750000D01*
X143360000Y55350000D01*
X144260000Y55350000D01*
X144260000Y54750000D01*
G37*
G36*
X144260000Y53650000D02*
G01*
X143360000Y53650000D01*
X143360000Y54250000D01*
X144260000Y54250000D01*
X144260000Y53650000D01*
G37*
G36*
X144260000Y52550000D02*
G01*
X143360000Y52550000D01*
X143360000Y53150000D01*
X144260000Y53150000D01*
X144260000Y52550000D01*
G37*
G36*
X144260000Y51450000D02*
G01*
X143360000Y51450000D01*
X143360000Y52050000D01*
X144260000Y52050000D01*
X144260000Y51450000D01*
G37*
G36*
X144260000Y50350000D02*
G01*
X143360000Y50350000D01*
X143360000Y50950000D01*
X144260000Y50950000D01*
X144260000Y50350000D01*
G37*
G36*
X145460000Y64250000D02*
G01*
X144260000Y64250000D01*
X144260000Y65050000D01*
X145460000Y65050000D01*
X145460000Y64250000D01*
G37*
G36*
X145460000Y63150000D02*
G01*
X144260000Y63150000D01*
X144260000Y63950000D01*
X145460000Y63950000D01*
X145460000Y63150000D01*
G37*
G36*
X145460000Y62050000D02*
G01*
X144260000Y62050000D01*
X144260000Y62850000D01*
X145460000Y62850000D01*
X145460000Y62050000D01*
G37*
G36*
X145460000Y60950000D02*
G01*
X144260000Y60950000D01*
X144260000Y61750000D01*
X145460000Y61750000D01*
X145460000Y60950000D01*
G37*
G36*
X145460000Y59850000D02*
G01*
X144260000Y59850000D01*
X144260000Y60650000D01*
X145460000Y60650000D01*
X145460000Y59850000D01*
G37*
G36*
X145460000Y56850000D02*
G01*
X144260000Y56850000D01*
X144260000Y57650000D01*
X145460000Y57650000D01*
X145460000Y56850000D01*
G37*
G36*
X145460000Y55750000D02*
G01*
X144260000Y55750000D01*
X144260000Y56550000D01*
X145460000Y56550000D01*
X145460000Y55750000D01*
G37*
G36*
X145460000Y54650000D02*
G01*
X144260000Y54650000D01*
X144260000Y55450000D01*
X145460000Y55450000D01*
X145460000Y54650000D01*
G37*
G36*
X145460000Y53550000D02*
G01*
X144260000Y53550000D01*
X144260000Y54350000D01*
X145460000Y54350000D01*
X145460000Y53550000D01*
G37*
G36*
X145460000Y52450000D02*
G01*
X144260000Y52450000D01*
X144260000Y53250000D01*
X145460000Y53250000D01*
X145460000Y52450000D01*
G37*
G36*
X145460000Y51350000D02*
G01*
X144260000Y51350000D01*
X144260000Y52150000D01*
X145460000Y52150000D01*
X145460000Y51350000D01*
G37*
G36*
X145460000Y50250000D02*
G01*
X144260000Y50250000D01*
X144260000Y51050000D01*
X145460000Y51050000D01*
X145460000Y50250000D01*
G37*
G36*
X132060000Y25650000D02*
G01*
X130860000Y25650000D01*
X130860000Y26450000D01*
X132060000Y26450000D01*
X132060000Y25650000D01*
G37*
G36*
X132060000Y24550000D02*
G01*
X130860000Y24550000D01*
X130860000Y25350000D01*
X132060000Y25350000D01*
X132060000Y24550000D01*
G37*
G36*
X132060000Y23450000D02*
G01*
X130860000Y23450000D01*
X130860000Y24250000D01*
X132060000Y24250000D01*
X132060000Y23450000D01*
G37*
G36*
X132060000Y22350000D02*
G01*
X130860000Y22350000D01*
X130860000Y23150000D01*
X132060000Y23150000D01*
X132060000Y22350000D01*
G37*
G36*
X132060000Y21250000D02*
G01*
X130860000Y21250000D01*
X130860000Y22050000D01*
X132060000Y22050000D01*
X132060000Y21250000D01*
G37*
G36*
X132060000Y18250000D02*
G01*
X130860000Y18250000D01*
X130860000Y19050000D01*
X132060000Y19050000D01*
X132060000Y18250000D01*
G37*
G36*
X132060000Y17150000D02*
G01*
X130860000Y17150000D01*
X130860000Y17950000D01*
X132060000Y17950000D01*
X132060000Y17150000D01*
G37*
G36*
X132060000Y16050000D02*
G01*
X130860000Y16050000D01*
X130860000Y16850000D01*
X132060000Y16850000D01*
X132060000Y16050000D01*
G37*
G36*
X132060000Y14950000D02*
G01*
X130860000Y14950000D01*
X130860000Y15750000D01*
X132060000Y15750000D01*
X132060000Y14950000D01*
G37*
G36*
X132060000Y13850000D02*
G01*
X130860000Y13850000D01*
X130860000Y14650000D01*
X132060000Y14650000D01*
X132060000Y13850000D01*
G37*
G36*
X132060000Y12750000D02*
G01*
X130860000Y12750000D01*
X130860000Y13550000D01*
X132060000Y13550000D01*
X132060000Y12750000D01*
G37*
G36*
X132060000Y11650000D02*
G01*
X130860000Y11650000D01*
X130860000Y12450000D01*
X132060000Y12450000D01*
X132060000Y11650000D01*
G37*
G36*
X132960000Y25750000D02*
G01*
X132060000Y25750000D01*
X132060000Y26350000D01*
X132960000Y26350000D01*
X132960000Y25750000D01*
G37*
G36*
X132960000Y24650000D02*
G01*
X132060000Y24650000D01*
X132060000Y25250000D01*
X132960000Y25250000D01*
X132960000Y24650000D01*
G37*
G36*
X132960000Y23550000D02*
G01*
X132060000Y23550000D01*
X132060000Y24150000D01*
X132960000Y24150000D01*
X132960000Y23550000D01*
G37*
G36*
X132960000Y22450000D02*
G01*
X132060000Y22450000D01*
X132060000Y23050000D01*
X132960000Y23050000D01*
X132960000Y22450000D01*
G37*
G36*
X132960000Y21350000D02*
G01*
X132060000Y21350000D01*
X132060000Y21950000D01*
X132960000Y21950000D01*
X132960000Y21350000D01*
G37*
G36*
X132960000Y18350000D02*
G01*
X132060000Y18350000D01*
X132060000Y18950000D01*
X132960000Y18950000D01*
X132960000Y18350000D01*
G37*
G36*
X132960000Y17250000D02*
G01*
X132060000Y17250000D01*
X132060000Y17850000D01*
X132960000Y17850000D01*
X132960000Y17250000D01*
G37*
G36*
X132960000Y16150000D02*
G01*
X132060000Y16150000D01*
X132060000Y16750000D01*
X132960000Y16750000D01*
X132960000Y16150000D01*
G37*
G36*
X132960000Y15050000D02*
G01*
X132060000Y15050000D01*
X132060000Y15650000D01*
X132960000Y15650000D01*
X132960000Y15050000D01*
G37*
G36*
X132960000Y13950000D02*
G01*
X132060000Y13950000D01*
X132060000Y14550000D01*
X132960000Y14550000D01*
X132960000Y13950000D01*
G37*
G36*
X132960000Y12850000D02*
G01*
X132060000Y12850000D01*
X132060000Y13450000D01*
X132960000Y13450000D01*
X132960000Y12850000D01*
G37*
G36*
X132960000Y11750000D02*
G01*
X132060000Y11750000D01*
X132060000Y12350000D01*
X132960000Y12350000D01*
X132960000Y11750000D01*
G37*
G36*
X144260000Y25750000D02*
G01*
X143360000Y25750000D01*
X143360000Y26350000D01*
X144260000Y26350000D01*
X144260000Y25750000D01*
G37*
G36*
X144260000Y24650000D02*
G01*
X143360000Y24650000D01*
X143360000Y25250000D01*
X144260000Y25250000D01*
X144260000Y24650000D01*
G37*
G36*
X144260000Y23550000D02*
G01*
X143360000Y23550000D01*
X143360000Y24150000D01*
X144260000Y24150000D01*
X144260000Y23550000D01*
G37*
G36*
X144260000Y22450000D02*
G01*
X143360000Y22450000D01*
X143360000Y23050000D01*
X144260000Y23050000D01*
X144260000Y22450000D01*
G37*
G36*
X144260000Y21350000D02*
G01*
X143360000Y21350000D01*
X143360000Y21950000D01*
X144260000Y21950000D01*
X144260000Y21350000D01*
G37*
G36*
X144260000Y18350000D02*
G01*
X143360000Y18350000D01*
X143360000Y18950000D01*
X144260000Y18950000D01*
X144260000Y18350000D01*
G37*
G36*
X144260000Y17250000D02*
G01*
X143360000Y17250000D01*
X143360000Y17850000D01*
X144260000Y17850000D01*
X144260000Y17250000D01*
G37*
G36*
X144260000Y16150000D02*
G01*
X143360000Y16150000D01*
X143360000Y16750000D01*
X144260000Y16750000D01*
X144260000Y16150000D01*
G37*
G36*
X144260000Y15050000D02*
G01*
X143360000Y15050000D01*
X143360000Y15650000D01*
X144260000Y15650000D01*
X144260000Y15050000D01*
G37*
G36*
X144260000Y13950000D02*
G01*
X143360000Y13950000D01*
X143360000Y14550000D01*
X144260000Y14550000D01*
X144260000Y13950000D01*
G37*
G36*
X144260000Y12850000D02*
G01*
X143360000Y12850000D01*
X143360000Y13450000D01*
X144260000Y13450000D01*
X144260000Y12850000D01*
G37*
G36*
X144260000Y11750000D02*
G01*
X143360000Y11750000D01*
X143360000Y12350000D01*
X144260000Y12350000D01*
X144260000Y11750000D01*
G37*
G36*
X145460000Y25650000D02*
G01*
X144260000Y25650000D01*
X144260000Y26450000D01*
X145460000Y26450000D01*
X145460000Y25650000D01*
G37*
G36*
X145460000Y24550000D02*
G01*
X144260000Y24550000D01*
X144260000Y25350000D01*
X145460000Y25350000D01*
X145460000Y24550000D01*
G37*
G36*
X145460000Y23450000D02*
G01*
X144260000Y23450000D01*
X144260000Y24250000D01*
X145460000Y24250000D01*
X145460000Y23450000D01*
G37*
G36*
X145460000Y22350000D02*
G01*
X144260000Y22350000D01*
X144260000Y23150000D01*
X145460000Y23150000D01*
X145460000Y22350000D01*
G37*
G36*
X145460000Y21250000D02*
G01*
X144260000Y21250000D01*
X144260000Y22050000D01*
X145460000Y22050000D01*
X145460000Y21250000D01*
G37*
G36*
X145460000Y18250000D02*
G01*
X144260000Y18250000D01*
X144260000Y19050000D01*
X145460000Y19050000D01*
X145460000Y18250000D01*
G37*
G36*
X145460000Y17150000D02*
G01*
X144260000Y17150000D01*
X144260000Y17950000D01*
X145460000Y17950000D01*
X145460000Y17150000D01*
G37*
G36*
X145460000Y16050000D02*
G01*
X144260000Y16050000D01*
X144260000Y16850000D01*
X145460000Y16850000D01*
X145460000Y16050000D01*
G37*
G36*
X145460000Y14950000D02*
G01*
X144260000Y14950000D01*
X144260000Y15750000D01*
X145460000Y15750000D01*
X145460000Y14950000D01*
G37*
G36*
X145460000Y13850000D02*
G01*
X144260000Y13850000D01*
X144260000Y14650000D01*
X145460000Y14650000D01*
X145460000Y13850000D01*
G37*
G36*
X145460000Y12750000D02*
G01*
X144260000Y12750000D01*
X144260000Y13550000D01*
X145460000Y13550000D01*
X145460000Y12750000D01*
G37*
G36*
X145460000Y11650000D02*
G01*
X144260000Y11650000D01*
X144260000Y12450000D01*
X145460000Y12450000D01*
X145460000Y11650000D01*
G37*
G36*
X78220000Y64250000D02*
G01*
X77020000Y64250000D01*
X77020000Y65050000D01*
X78220000Y65050000D01*
X78220000Y64250000D01*
G37*
G36*
X78220000Y63150000D02*
G01*
X77020000Y63150000D01*
X77020000Y63950000D01*
X78220000Y63950000D01*
X78220000Y63150000D01*
G37*
G36*
X78220000Y62050000D02*
G01*
X77020000Y62050000D01*
X77020000Y62850000D01*
X78220000Y62850000D01*
X78220000Y62050000D01*
G37*
G36*
X78220000Y60950000D02*
G01*
X77020000Y60950000D01*
X77020000Y61750000D01*
X78220000Y61750000D01*
X78220000Y60950000D01*
G37*
G36*
X78220000Y59850000D02*
G01*
X77020000Y59850000D01*
X77020000Y60650000D01*
X78220000Y60650000D01*
X78220000Y59850000D01*
G37*
G36*
X78220000Y56850000D02*
G01*
X77020000Y56850000D01*
X77020000Y57650000D01*
X78220000Y57650000D01*
X78220000Y56850000D01*
G37*
G36*
X78220000Y55750000D02*
G01*
X77020000Y55750000D01*
X77020000Y56550000D01*
X78220000Y56550000D01*
X78220000Y55750000D01*
G37*
G36*
X78220000Y54650000D02*
G01*
X77020000Y54650000D01*
X77020000Y55450000D01*
X78220000Y55450000D01*
X78220000Y54650000D01*
G37*
G36*
X78220000Y53550000D02*
G01*
X77020000Y53550000D01*
X77020000Y54350000D01*
X78220000Y54350000D01*
X78220000Y53550000D01*
G37*
G36*
X78220000Y52450000D02*
G01*
X77020000Y52450000D01*
X77020000Y53250000D01*
X78220000Y53250000D01*
X78220000Y52450000D01*
G37*
G36*
X78220000Y51350000D02*
G01*
X77020000Y51350000D01*
X77020000Y52150000D01*
X78220000Y52150000D01*
X78220000Y51350000D01*
G37*
G36*
X78220000Y50250000D02*
G01*
X77020000Y50250000D01*
X77020000Y51050000D01*
X78220000Y51050000D01*
X78220000Y50250000D01*
G37*
G36*
X79120000Y64350000D02*
G01*
X78220000Y64350000D01*
X78220000Y64950000D01*
X79120000Y64950000D01*
X79120000Y64350000D01*
G37*
G36*
X79120000Y63250000D02*
G01*
X78220000Y63250000D01*
X78220000Y63850000D01*
X79120000Y63850000D01*
X79120000Y63250000D01*
G37*
G36*
X79120000Y62150000D02*
G01*
X78220000Y62150000D01*
X78220000Y62750000D01*
X79120000Y62750000D01*
X79120000Y62150000D01*
G37*
G36*
X79120000Y61050000D02*
G01*
X78220000Y61050000D01*
X78220000Y61650000D01*
X79120000Y61650000D01*
X79120000Y61050000D01*
G37*
G36*
X79120000Y59950000D02*
G01*
X78220000Y59950000D01*
X78220000Y60550000D01*
X79120000Y60550000D01*
X79120000Y59950000D01*
G37*
G36*
X79120000Y56950000D02*
G01*
X78220000Y56950000D01*
X78220000Y57550000D01*
X79120000Y57550000D01*
X79120000Y56950000D01*
G37*
G36*
X79120000Y55850000D02*
G01*
X78220000Y55850000D01*
X78220000Y56450000D01*
X79120000Y56450000D01*
X79120000Y55850000D01*
G37*
G36*
X79120000Y54750000D02*
G01*
X78220000Y54750000D01*
X78220000Y55350000D01*
X79120000Y55350000D01*
X79120000Y54750000D01*
G37*
G36*
X79120000Y53650000D02*
G01*
X78220000Y53650000D01*
X78220000Y54250000D01*
X79120000Y54250000D01*
X79120000Y53650000D01*
G37*
G36*
X79120000Y52550000D02*
G01*
X78220000Y52550000D01*
X78220000Y53150000D01*
X79120000Y53150000D01*
X79120000Y52550000D01*
G37*
G36*
X79120000Y51450000D02*
G01*
X78220000Y51450000D01*
X78220000Y52050000D01*
X79120000Y52050000D01*
X79120000Y51450000D01*
G37*
G36*
X79120000Y50350000D02*
G01*
X78220000Y50350000D01*
X78220000Y50950000D01*
X79120000Y50950000D01*
X79120000Y50350000D01*
G37*
G36*
X90420000Y64350000D02*
G01*
X89520000Y64350000D01*
X89520000Y64950000D01*
X90420000Y64950000D01*
X90420000Y64350000D01*
G37*
G36*
X90420000Y63250000D02*
G01*
X89520000Y63250000D01*
X89520000Y63850000D01*
X90420000Y63850000D01*
X90420000Y63250000D01*
G37*
G36*
X90420000Y62150000D02*
G01*
X89520000Y62150000D01*
X89520000Y62750000D01*
X90420000Y62750000D01*
X90420000Y62150000D01*
G37*
G36*
X90420000Y61050000D02*
G01*
X89520000Y61050000D01*
X89520000Y61650000D01*
X90420000Y61650000D01*
X90420000Y61050000D01*
G37*
G36*
X90420000Y59950000D02*
G01*
X89520000Y59950000D01*
X89520000Y60550000D01*
X90420000Y60550000D01*
X90420000Y59950000D01*
G37*
G36*
X90420000Y56950000D02*
G01*
X89520000Y56950000D01*
X89520000Y57550000D01*
X90420000Y57550000D01*
X90420000Y56950000D01*
G37*
G36*
X90420000Y55850000D02*
G01*
X89520000Y55850000D01*
X89520000Y56450000D01*
X90420000Y56450000D01*
X90420000Y55850000D01*
G37*
G36*
X90420000Y54750000D02*
G01*
X89520000Y54750000D01*
X89520000Y55350000D01*
X90420000Y55350000D01*
X90420000Y54750000D01*
G37*
G36*
X90420000Y53650000D02*
G01*
X89520000Y53650000D01*
X89520000Y54250000D01*
X90420000Y54250000D01*
X90420000Y53650000D01*
G37*
G36*
X90420000Y52550000D02*
G01*
X89520000Y52550000D01*
X89520000Y53150000D01*
X90420000Y53150000D01*
X90420000Y52550000D01*
G37*
G36*
X90420000Y51450000D02*
G01*
X89520000Y51450000D01*
X89520000Y52050000D01*
X90420000Y52050000D01*
X90420000Y51450000D01*
G37*
G36*
X90420000Y50350000D02*
G01*
X89520000Y50350000D01*
X89520000Y50950000D01*
X90420000Y50950000D01*
X90420000Y50350000D01*
G37*
G36*
X91620000Y64250000D02*
G01*
X90420000Y64250000D01*
X90420000Y65050000D01*
X91620000Y65050000D01*
X91620000Y64250000D01*
G37*
G36*
X91620000Y63150000D02*
G01*
X90420000Y63150000D01*
X90420000Y63950000D01*
X91620000Y63950000D01*
X91620000Y63150000D01*
G37*
G36*
X91620000Y62050000D02*
G01*
X90420000Y62050000D01*
X90420000Y62850000D01*
X91620000Y62850000D01*
X91620000Y62050000D01*
G37*
G36*
X91620000Y60950000D02*
G01*
X90420000Y60950000D01*
X90420000Y61750000D01*
X91620000Y61750000D01*
X91620000Y60950000D01*
G37*
G36*
X91620000Y59850000D02*
G01*
X90420000Y59850000D01*
X90420000Y60650000D01*
X91620000Y60650000D01*
X91620000Y59850000D01*
G37*
G36*
X91620000Y56850000D02*
G01*
X90420000Y56850000D01*
X90420000Y57650000D01*
X91620000Y57650000D01*
X91620000Y56850000D01*
G37*
G36*
X91620000Y55750000D02*
G01*
X90420000Y55750000D01*
X90420000Y56550000D01*
X91620000Y56550000D01*
X91620000Y55750000D01*
G37*
G36*
X91620000Y54650000D02*
G01*
X90420000Y54650000D01*
X90420000Y55450000D01*
X91620000Y55450000D01*
X91620000Y54650000D01*
G37*
G36*
X91620000Y53550000D02*
G01*
X90420000Y53550000D01*
X90420000Y54350000D01*
X91620000Y54350000D01*
X91620000Y53550000D01*
G37*
G36*
X91620000Y52450000D02*
G01*
X90420000Y52450000D01*
X90420000Y53250000D01*
X91620000Y53250000D01*
X91620000Y52450000D01*
G37*
G36*
X91620000Y51350000D02*
G01*
X90420000Y51350000D01*
X90420000Y52150000D01*
X91620000Y52150000D01*
X91620000Y51350000D01*
G37*
G36*
X91620000Y50250000D02*
G01*
X90420000Y50250000D01*
X90420000Y51050000D01*
X91620000Y51050000D01*
X91620000Y50250000D01*
G37*
G36*
X78220000Y25650000D02*
G01*
X77020000Y25650000D01*
X77020000Y26450000D01*
X78220000Y26450000D01*
X78220000Y25650000D01*
G37*
G36*
X78220000Y24550000D02*
G01*
X77020000Y24550000D01*
X77020000Y25350000D01*
X78220000Y25350000D01*
X78220000Y24550000D01*
G37*
G36*
X78220000Y23450000D02*
G01*
X77020000Y23450000D01*
X77020000Y24250000D01*
X78220000Y24250000D01*
X78220000Y23450000D01*
G37*
G36*
X78220000Y22350000D02*
G01*
X77020000Y22350000D01*
X77020000Y23150000D01*
X78220000Y23150000D01*
X78220000Y22350000D01*
G37*
G36*
X78220000Y21250000D02*
G01*
X77020000Y21250000D01*
X77020000Y22050000D01*
X78220000Y22050000D01*
X78220000Y21250000D01*
G37*
G36*
X78220000Y18250000D02*
G01*
X77020000Y18250000D01*
X77020000Y19050000D01*
X78220000Y19050000D01*
X78220000Y18250000D01*
G37*
G36*
X78220000Y17150000D02*
G01*
X77020000Y17150000D01*
X77020000Y17950000D01*
X78220000Y17950000D01*
X78220000Y17150000D01*
G37*
G36*
X78220000Y16050000D02*
G01*
X77020000Y16050000D01*
X77020000Y16850000D01*
X78220000Y16850000D01*
X78220000Y16050000D01*
G37*
G36*
X78220000Y14950000D02*
G01*
X77020000Y14950000D01*
X77020000Y15750000D01*
X78220000Y15750000D01*
X78220000Y14950000D01*
G37*
G36*
X78220000Y13850000D02*
G01*
X77020000Y13850000D01*
X77020000Y14650000D01*
X78220000Y14650000D01*
X78220000Y13850000D01*
G37*
G36*
X78220000Y12750000D02*
G01*
X77020000Y12750000D01*
X77020000Y13550000D01*
X78220000Y13550000D01*
X78220000Y12750000D01*
G37*
G36*
X78220000Y11650000D02*
G01*
X77020000Y11650000D01*
X77020000Y12450000D01*
X78220000Y12450000D01*
X78220000Y11650000D01*
G37*
G36*
X79120000Y25750000D02*
G01*
X78220000Y25750000D01*
X78220000Y26350000D01*
X79120000Y26350000D01*
X79120000Y25750000D01*
G37*
G36*
X79120000Y24650000D02*
G01*
X78220000Y24650000D01*
X78220000Y25250000D01*
X79120000Y25250000D01*
X79120000Y24650000D01*
G37*
G36*
X79120000Y23550000D02*
G01*
X78220000Y23550000D01*
X78220000Y24150000D01*
X79120000Y24150000D01*
X79120000Y23550000D01*
G37*
G36*
X79120000Y22450000D02*
G01*
X78220000Y22450000D01*
X78220000Y23050000D01*
X79120000Y23050000D01*
X79120000Y22450000D01*
G37*
G36*
X79120000Y21350000D02*
G01*
X78220000Y21350000D01*
X78220000Y21950000D01*
X79120000Y21950000D01*
X79120000Y21350000D01*
G37*
G36*
X79120000Y18350000D02*
G01*
X78220000Y18350000D01*
X78220000Y18950000D01*
X79120000Y18950000D01*
X79120000Y18350000D01*
G37*
G36*
X79120000Y17250000D02*
G01*
X78220000Y17250000D01*
X78220000Y17850000D01*
X79120000Y17850000D01*
X79120000Y17250000D01*
G37*
G36*
X79120000Y16150000D02*
G01*
X78220000Y16150000D01*
X78220000Y16750000D01*
X79120000Y16750000D01*
X79120000Y16150000D01*
G37*
G36*
X79120000Y15050000D02*
G01*
X78220000Y15050000D01*
X78220000Y15650000D01*
X79120000Y15650000D01*
X79120000Y15050000D01*
G37*
G36*
X79120000Y13950000D02*
G01*
X78220000Y13950000D01*
X78220000Y14550000D01*
X79120000Y14550000D01*
X79120000Y13950000D01*
G37*
G36*
X79120000Y12850000D02*
G01*
X78220000Y12850000D01*
X78220000Y13450000D01*
X79120000Y13450000D01*
X79120000Y12850000D01*
G37*
G36*
X79120000Y11750000D02*
G01*
X78220000Y11750000D01*
X78220000Y12350000D01*
X79120000Y12350000D01*
X79120000Y11750000D01*
G37*
G36*
X90420000Y25750000D02*
G01*
X89520000Y25750000D01*
X89520000Y26350000D01*
X90420000Y26350000D01*
X90420000Y25750000D01*
G37*
G36*
X90420000Y24650000D02*
G01*
X89520000Y24650000D01*
X89520000Y25250000D01*
X90420000Y25250000D01*
X90420000Y24650000D01*
G37*
G36*
X90420000Y23550000D02*
G01*
X89520000Y23550000D01*
X89520000Y24150000D01*
X90420000Y24150000D01*
X90420000Y23550000D01*
G37*
G36*
X90420000Y22450000D02*
G01*
X89520000Y22450000D01*
X89520000Y23050000D01*
X90420000Y23050000D01*
X90420000Y22450000D01*
G37*
G36*
X90420000Y21350000D02*
G01*
X89520000Y21350000D01*
X89520000Y21950000D01*
X90420000Y21950000D01*
X90420000Y21350000D01*
G37*
G36*
X90420000Y18350000D02*
G01*
X89520000Y18350000D01*
X89520000Y18950000D01*
X90420000Y18950000D01*
X90420000Y18350000D01*
G37*
G36*
X90420000Y17250000D02*
G01*
X89520000Y17250000D01*
X89520000Y17850000D01*
X90420000Y17850000D01*
X90420000Y17250000D01*
G37*
G36*
X90420000Y16150000D02*
G01*
X89520000Y16150000D01*
X89520000Y16750000D01*
X90420000Y16750000D01*
X90420000Y16150000D01*
G37*
G36*
X90420000Y15050000D02*
G01*
X89520000Y15050000D01*
X89520000Y15650000D01*
X90420000Y15650000D01*
X90420000Y15050000D01*
G37*
G36*
X90420000Y13950000D02*
G01*
X89520000Y13950000D01*
X89520000Y14550000D01*
X90420000Y14550000D01*
X90420000Y13950000D01*
G37*
G36*
X90420000Y12850000D02*
G01*
X89520000Y12850000D01*
X89520000Y13450000D01*
X90420000Y13450000D01*
X90420000Y12850000D01*
G37*
G36*
X90420000Y11750000D02*
G01*
X89520000Y11750000D01*
X89520000Y12350000D01*
X90420000Y12350000D01*
X90420000Y11750000D01*
G37*
G36*
X91620000Y25650000D02*
G01*
X90420000Y25650000D01*
X90420000Y26450000D01*
X91620000Y26450000D01*
X91620000Y25650000D01*
G37*
G36*
X91620000Y24550000D02*
G01*
X90420000Y24550000D01*
X90420000Y25350000D01*
X91620000Y25350000D01*
X91620000Y24550000D01*
G37*
G36*
X91620000Y23450000D02*
G01*
X90420000Y23450000D01*
X90420000Y24250000D01*
X91620000Y24250000D01*
X91620000Y23450000D01*
G37*
G36*
X91620000Y22350000D02*
G01*
X90420000Y22350000D01*
X90420000Y23150000D01*
X91620000Y23150000D01*
X91620000Y22350000D01*
G37*
G36*
X91620000Y21250000D02*
G01*
X90420000Y21250000D01*
X90420000Y22050000D01*
X91620000Y22050000D01*
X91620000Y21250000D01*
G37*
G36*
X91620000Y18250000D02*
G01*
X90420000Y18250000D01*
X90420000Y19050000D01*
X91620000Y19050000D01*
X91620000Y18250000D01*
G37*
G36*
X91620000Y17150000D02*
G01*
X90420000Y17150000D01*
X90420000Y17950000D01*
X91620000Y17950000D01*
X91620000Y17150000D01*
G37*
G36*
X91620000Y16050000D02*
G01*
X90420000Y16050000D01*
X90420000Y16850000D01*
X91620000Y16850000D01*
X91620000Y16050000D01*
G37*
G36*
X91620000Y14950000D02*
G01*
X90420000Y14950000D01*
X90420000Y15750000D01*
X91620000Y15750000D01*
X91620000Y14950000D01*
G37*
G36*
X91620000Y13850000D02*
G01*
X90420000Y13850000D01*
X90420000Y14650000D01*
X91620000Y14650000D01*
X91620000Y13850000D01*
G37*
G36*
X91620000Y12750000D02*
G01*
X90420000Y12750000D01*
X90420000Y13550000D01*
X91620000Y13550000D01*
X91620000Y12750000D01*
G37*
G36*
X91620000Y11650000D02*
G01*
X90420000Y11650000D01*
X90420000Y12450000D01*
X91620000Y12450000D01*
X91620000Y11650000D01*
G37*
G36*
X24380000Y64250000D02*
G01*
X23180000Y64250000D01*
X23180000Y65050000D01*
X24380000Y65050000D01*
X24380000Y64250000D01*
G37*
G36*
X24380000Y63150000D02*
G01*
X23180000Y63150000D01*
X23180000Y63950000D01*
X24380000Y63950000D01*
X24380000Y63150000D01*
G37*
G36*
X24380000Y62050000D02*
G01*
X23180000Y62050000D01*
X23180000Y62850000D01*
X24380000Y62850000D01*
X24380000Y62050000D01*
G37*
G36*
X24380000Y60950000D02*
G01*
X23180000Y60950000D01*
X23180000Y61750000D01*
X24380000Y61750000D01*
X24380000Y60950000D01*
G37*
G36*
X24380000Y59850000D02*
G01*
X23180000Y59850000D01*
X23180000Y60650000D01*
X24380000Y60650000D01*
X24380000Y59850000D01*
G37*
G36*
X24380000Y56850000D02*
G01*
X23180000Y56850000D01*
X23180000Y57650000D01*
X24380000Y57650000D01*
X24380000Y56850000D01*
G37*
G36*
X24380000Y55750000D02*
G01*
X23180000Y55750000D01*
X23180000Y56550000D01*
X24380000Y56550000D01*
X24380000Y55750000D01*
G37*
G36*
X24380000Y54650000D02*
G01*
X23180000Y54650000D01*
X23180000Y55450000D01*
X24380000Y55450000D01*
X24380000Y54650000D01*
G37*
G36*
X24380000Y53550000D02*
G01*
X23180000Y53550000D01*
X23180000Y54350000D01*
X24380000Y54350000D01*
X24380000Y53550000D01*
G37*
G36*
X24380000Y52450000D02*
G01*
X23180000Y52450000D01*
X23180000Y53250000D01*
X24380000Y53250000D01*
X24380000Y52450000D01*
G37*
G36*
X24380000Y51350000D02*
G01*
X23180000Y51350000D01*
X23180000Y52150000D01*
X24380000Y52150000D01*
X24380000Y51350000D01*
G37*
G36*
X24380000Y50250000D02*
G01*
X23180000Y50250000D01*
X23180000Y51050000D01*
X24380000Y51050000D01*
X24380000Y50250000D01*
G37*
G36*
X25280000Y64350000D02*
G01*
X24380000Y64350000D01*
X24380000Y64950000D01*
X25280000Y64950000D01*
X25280000Y64350000D01*
G37*
G36*
X25280000Y63250000D02*
G01*
X24380000Y63250000D01*
X24380000Y63850000D01*
X25280000Y63850000D01*
X25280000Y63250000D01*
G37*
G36*
X25280000Y62150000D02*
G01*
X24380000Y62150000D01*
X24380000Y62750000D01*
X25280000Y62750000D01*
X25280000Y62150000D01*
G37*
G36*
X25280000Y61050000D02*
G01*
X24380000Y61050000D01*
X24380000Y61650000D01*
X25280000Y61650000D01*
X25280000Y61050000D01*
G37*
G36*
X25280000Y59950000D02*
G01*
X24380000Y59950000D01*
X24380000Y60550000D01*
X25280000Y60550000D01*
X25280000Y59950000D01*
G37*
G36*
X25280000Y56950000D02*
G01*
X24380000Y56950000D01*
X24380000Y57550000D01*
X25280000Y57550000D01*
X25280000Y56950000D01*
G37*
G36*
X25280000Y55850000D02*
G01*
X24380000Y55850000D01*
X24380000Y56450000D01*
X25280000Y56450000D01*
X25280000Y55850000D01*
G37*
G36*
X25280000Y54750000D02*
G01*
X24380000Y54750000D01*
X24380000Y55350000D01*
X25280000Y55350000D01*
X25280000Y54750000D01*
G37*
G36*
X25280000Y53650000D02*
G01*
X24380000Y53650000D01*
X24380000Y54250000D01*
X25280000Y54250000D01*
X25280000Y53650000D01*
G37*
G36*
X25280000Y52550000D02*
G01*
X24380000Y52550000D01*
X24380000Y53150000D01*
X25280000Y53150000D01*
X25280000Y52550000D01*
G37*
G36*
X25280000Y51450000D02*
G01*
X24380000Y51450000D01*
X24380000Y52050000D01*
X25280000Y52050000D01*
X25280000Y51450000D01*
G37*
G36*
X25280000Y50350000D02*
G01*
X24380000Y50350000D01*
X24380000Y50950000D01*
X25280000Y50950000D01*
X25280000Y50350000D01*
G37*
G36*
X36580000Y64350000D02*
G01*
X35680000Y64350000D01*
X35680000Y64950000D01*
X36580000Y64950000D01*
X36580000Y64350000D01*
G37*
G36*
X36580000Y63250000D02*
G01*
X35680000Y63250000D01*
X35680000Y63850000D01*
X36580000Y63850000D01*
X36580000Y63250000D01*
G37*
G36*
X36580000Y62150000D02*
G01*
X35680000Y62150000D01*
X35680000Y62750000D01*
X36580000Y62750000D01*
X36580000Y62150000D01*
G37*
G36*
X36580000Y61050000D02*
G01*
X35680000Y61050000D01*
X35680000Y61650000D01*
X36580000Y61650000D01*
X36580000Y61050000D01*
G37*
G36*
X36580000Y59950000D02*
G01*
X35680000Y59950000D01*
X35680000Y60550000D01*
X36580000Y60550000D01*
X36580000Y59950000D01*
G37*
G36*
X36580000Y56950000D02*
G01*
X35680000Y56950000D01*
X35680000Y57550000D01*
X36580000Y57550000D01*
X36580000Y56950000D01*
G37*
G36*
X36580000Y55850000D02*
G01*
X35680000Y55850000D01*
X35680000Y56450000D01*
X36580000Y56450000D01*
X36580000Y55850000D01*
G37*
G36*
X36580000Y54750000D02*
G01*
X35680000Y54750000D01*
X35680000Y55350000D01*
X36580000Y55350000D01*
X36580000Y54750000D01*
G37*
G36*
X36580000Y53650000D02*
G01*
X35680000Y53650000D01*
X35680000Y54250000D01*
X36580000Y54250000D01*
X36580000Y53650000D01*
G37*
G36*
X36580000Y52550000D02*
G01*
X35680000Y52550000D01*
X35680000Y53150000D01*
X36580000Y53150000D01*
X36580000Y52550000D01*
G37*
G36*
X36580000Y51450000D02*
G01*
X35680000Y51450000D01*
X35680000Y52050000D01*
X36580000Y52050000D01*
X36580000Y51450000D01*
G37*
G36*
X36580000Y50350000D02*
G01*
X35680000Y50350000D01*
X35680000Y50950000D01*
X36580000Y50950000D01*
X36580000Y50350000D01*
G37*
G36*
X37780000Y64250000D02*
G01*
X36580000Y64250000D01*
X36580000Y65050000D01*
X37780000Y65050000D01*
X37780000Y64250000D01*
G37*
G36*
X37780000Y63150000D02*
G01*
X36580000Y63150000D01*
X36580000Y63950000D01*
X37780000Y63950000D01*
X37780000Y63150000D01*
G37*
G36*
X37780000Y62050000D02*
G01*
X36580000Y62050000D01*
X36580000Y62850000D01*
X37780000Y62850000D01*
X37780000Y62050000D01*
G37*
G36*
X37780000Y60950000D02*
G01*
X36580000Y60950000D01*
X36580000Y61750000D01*
X37780000Y61750000D01*
X37780000Y60950000D01*
G37*
G36*
X37780000Y59850000D02*
G01*
X36580000Y59850000D01*
X36580000Y60650000D01*
X37780000Y60650000D01*
X37780000Y59850000D01*
G37*
G36*
X37780000Y56850000D02*
G01*
X36580000Y56850000D01*
X36580000Y57650000D01*
X37780000Y57650000D01*
X37780000Y56850000D01*
G37*
G36*
X37780000Y55750000D02*
G01*
X36580000Y55750000D01*
X36580000Y56550000D01*
X37780000Y56550000D01*
X37780000Y55750000D01*
G37*
G36*
X37780000Y54650000D02*
G01*
X36580000Y54650000D01*
X36580000Y55450000D01*
X37780000Y55450000D01*
X37780000Y54650000D01*
G37*
G36*
X37780000Y53550000D02*
G01*
X36580000Y53550000D01*
X36580000Y54350000D01*
X37780000Y54350000D01*
X37780000Y53550000D01*
G37*
G36*
X37780000Y52450000D02*
G01*
X36580000Y52450000D01*
X36580000Y53250000D01*
X37780000Y53250000D01*
X37780000Y52450000D01*
G37*
G36*
X37780000Y51350000D02*
G01*
X36580000Y51350000D01*
X36580000Y52150000D01*
X37780000Y52150000D01*
X37780000Y51350000D01*
G37*
G36*
X37780000Y50250000D02*
G01*
X36580000Y50250000D01*
X36580000Y51050000D01*
X37780000Y51050000D01*
X37780000Y50250000D01*
G37*
%TO.C,BT1*%
G36*
X123085000Y47709645D02*
G01*
X120599645Y50195000D01*
X123085000Y50195000D01*
X123085000Y47709645D01*
G37*
G36*
X123080000Y44790000D02*
G01*
X118880000Y44790000D01*
X118880000Y46490000D01*
X123080000Y46490000D01*
X123080000Y44790000D01*
G37*
G36*
X123085000Y9109645D02*
G01*
X120599645Y11595000D01*
X123085000Y11595000D01*
X123085000Y9109645D01*
G37*
G36*
X123080000Y6190000D02*
G01*
X118880000Y6190000D01*
X118880000Y7890000D01*
X123080000Y7890000D01*
X123080000Y6190000D01*
G37*
G36*
X69245000Y47709645D02*
G01*
X66759645Y50195000D01*
X69245000Y50195000D01*
X69245000Y47709645D01*
G37*
G36*
X69240000Y44790000D02*
G01*
X65040000Y44790000D01*
X65040000Y46490000D01*
X69240000Y46490000D01*
X69240000Y44790000D01*
G37*
G36*
X69245000Y9109645D02*
G01*
X66759645Y11595000D01*
X69245000Y11595000D01*
X69245000Y9109645D01*
G37*
G36*
X69240000Y6190000D02*
G01*
X65040000Y6190000D01*
X65040000Y7890000D01*
X69240000Y7890000D01*
X69240000Y6190000D01*
G37*
G36*
X15405000Y47709645D02*
G01*
X12919645Y50195000D01*
X15405000Y50195000D01*
X15405000Y47709645D01*
G37*
G36*
X15400000Y44790000D02*
G01*
X11200000Y44790000D01*
X11200000Y46490000D01*
X15400000Y46490000D01*
X15400000Y44790000D01*
G37*
G36*
X15405000Y9109645D02*
G01*
X12919645Y11595000D01*
X15405000Y11595000D01*
X15405000Y9109645D01*
G37*
G36*
X15400000Y6190000D02*
G01*
X11200000Y6190000D01*
X11200000Y7890000D01*
X15400000Y7890000D01*
X15400000Y6190000D01*
G37*
%TO.C,U3*%
G36*
X24380000Y25650000D02*
G01*
X23180000Y25650000D01*
X23180000Y26450000D01*
X24380000Y26450000D01*
X24380000Y25650000D01*
G37*
G36*
X24380000Y24550000D02*
G01*
X23180000Y24550000D01*
X23180000Y25350000D01*
X24380000Y25350000D01*
X24380000Y24550000D01*
G37*
G36*
X24380000Y23450000D02*
G01*
X23180000Y23450000D01*
X23180000Y24250000D01*
X24380000Y24250000D01*
X24380000Y23450000D01*
G37*
G36*
X24380000Y22350000D02*
G01*
X23180000Y22350000D01*
X23180000Y23150000D01*
X24380000Y23150000D01*
X24380000Y22350000D01*
G37*
G36*
X24380000Y21250000D02*
G01*
X23180000Y21250000D01*
X23180000Y22050000D01*
X24380000Y22050000D01*
X24380000Y21250000D01*
G37*
G36*
X24380000Y18250000D02*
G01*
X23180000Y18250000D01*
X23180000Y19050000D01*
X24380000Y19050000D01*
X24380000Y18250000D01*
G37*
G36*
X24380000Y17150000D02*
G01*
X23180000Y17150000D01*
X23180000Y17950000D01*
X24380000Y17950000D01*
X24380000Y17150000D01*
G37*
G36*
X24380000Y16050000D02*
G01*
X23180000Y16050000D01*
X23180000Y16850000D01*
X24380000Y16850000D01*
X24380000Y16050000D01*
G37*
G36*
X24380000Y14950000D02*
G01*
X23180000Y14950000D01*
X23180000Y15750000D01*
X24380000Y15750000D01*
X24380000Y14950000D01*
G37*
G36*
X24380000Y13850000D02*
G01*
X23180000Y13850000D01*
X23180000Y14650000D01*
X24380000Y14650000D01*
X24380000Y13850000D01*
G37*
G36*
X24380000Y12750000D02*
G01*
X23180000Y12750000D01*
X23180000Y13550000D01*
X24380000Y13550000D01*
X24380000Y12750000D01*
G37*
G36*
X24380000Y11650000D02*
G01*
X23180000Y11650000D01*
X23180000Y12450000D01*
X24380000Y12450000D01*
X24380000Y11650000D01*
G37*
G36*
X25280000Y25750000D02*
G01*
X24380000Y25750000D01*
X24380000Y26350000D01*
X25280000Y26350000D01*
X25280000Y25750000D01*
G37*
G36*
X25280000Y24650000D02*
G01*
X24380000Y24650000D01*
X24380000Y25250000D01*
X25280000Y25250000D01*
X25280000Y24650000D01*
G37*
G36*
X25280000Y23550000D02*
G01*
X24380000Y23550000D01*
X24380000Y24150000D01*
X25280000Y24150000D01*
X25280000Y23550000D01*
G37*
G36*
X25280000Y22450000D02*
G01*
X24380000Y22450000D01*
X24380000Y23050000D01*
X25280000Y23050000D01*
X25280000Y22450000D01*
G37*
G36*
X25280000Y21350000D02*
G01*
X24380000Y21350000D01*
X24380000Y21950000D01*
X25280000Y21950000D01*
X25280000Y21350000D01*
G37*
G36*
X25280000Y18350000D02*
G01*
X24380000Y18350000D01*
X24380000Y18950000D01*
X25280000Y18950000D01*
X25280000Y18350000D01*
G37*
G36*
X25280000Y17250000D02*
G01*
X24380000Y17250000D01*
X24380000Y17850000D01*
X25280000Y17850000D01*
X25280000Y17250000D01*
G37*
G36*
X25280000Y16150000D02*
G01*
X24380000Y16150000D01*
X24380000Y16750000D01*
X25280000Y16750000D01*
X25280000Y16150000D01*
G37*
G36*
X25280000Y15050000D02*
G01*
X24380000Y15050000D01*
X24380000Y15650000D01*
X25280000Y15650000D01*
X25280000Y15050000D01*
G37*
G36*
X25280000Y13950000D02*
G01*
X24380000Y13950000D01*
X24380000Y14550000D01*
X25280000Y14550000D01*
X25280000Y13950000D01*
G37*
G36*
X25280000Y12850000D02*
G01*
X24380000Y12850000D01*
X24380000Y13450000D01*
X25280000Y13450000D01*
X25280000Y12850000D01*
G37*
G36*
X25280000Y11750000D02*
G01*
X24380000Y11750000D01*
X24380000Y12350000D01*
X25280000Y12350000D01*
X25280000Y11750000D01*
G37*
G36*
X36580000Y25750000D02*
G01*
X35680000Y25750000D01*
X35680000Y26350000D01*
X36580000Y26350000D01*
X36580000Y25750000D01*
G37*
G36*
X36580000Y24650000D02*
G01*
X35680000Y24650000D01*
X35680000Y25250000D01*
X36580000Y25250000D01*
X36580000Y24650000D01*
G37*
G36*
X36580000Y23550000D02*
G01*
X35680000Y23550000D01*
X35680000Y24150000D01*
X36580000Y24150000D01*
X36580000Y23550000D01*
G37*
G36*
X36580000Y22450000D02*
G01*
X35680000Y22450000D01*
X35680000Y23050000D01*
X36580000Y23050000D01*
X36580000Y22450000D01*
G37*
G36*
X36580000Y21350000D02*
G01*
X35680000Y21350000D01*
X35680000Y21950000D01*
X36580000Y21950000D01*
X36580000Y21350000D01*
G37*
G36*
X36580000Y18350000D02*
G01*
X35680000Y18350000D01*
X35680000Y18950000D01*
X36580000Y18950000D01*
X36580000Y18350000D01*
G37*
G36*
X36580000Y17250000D02*
G01*
X35680000Y17250000D01*
X35680000Y17850000D01*
X36580000Y17850000D01*
X36580000Y17250000D01*
G37*
G36*
X36580000Y16150000D02*
G01*
X35680000Y16150000D01*
X35680000Y16750000D01*
X36580000Y16750000D01*
X36580000Y16150000D01*
G37*
G36*
X36580000Y15050000D02*
G01*
X35680000Y15050000D01*
X35680000Y15650000D01*
X36580000Y15650000D01*
X36580000Y15050000D01*
G37*
G36*
X36580000Y13950000D02*
G01*
X35680000Y13950000D01*
X35680000Y14550000D01*
X36580000Y14550000D01*
X36580000Y13950000D01*
G37*
G36*
X36580000Y12850000D02*
G01*
X35680000Y12850000D01*
X35680000Y13450000D01*
X36580000Y13450000D01*
X36580000Y12850000D01*
G37*
G36*
X36580000Y11750000D02*
G01*
X35680000Y11750000D01*
X35680000Y12350000D01*
X36580000Y12350000D01*
X36580000Y11750000D01*
G37*
G36*
X37780000Y25650000D02*
G01*
X36580000Y25650000D01*
X36580000Y26450000D01*
X37780000Y26450000D01*
X37780000Y25650000D01*
G37*
G36*
X37780000Y24550000D02*
G01*
X36580000Y24550000D01*
X36580000Y25350000D01*
X37780000Y25350000D01*
X37780000Y24550000D01*
G37*
G36*
X37780000Y23450000D02*
G01*
X36580000Y23450000D01*
X36580000Y24250000D01*
X37780000Y24250000D01*
X37780000Y23450000D01*
G37*
G36*
X37780000Y22350000D02*
G01*
X36580000Y22350000D01*
X36580000Y23150000D01*
X37780000Y23150000D01*
X37780000Y22350000D01*
G37*
G36*
X37780000Y21250000D02*
G01*
X36580000Y21250000D01*
X36580000Y22050000D01*
X37780000Y22050000D01*
X37780000Y21250000D01*
G37*
G36*
X37780000Y18250000D02*
G01*
X36580000Y18250000D01*
X36580000Y19050000D01*
X37780000Y19050000D01*
X37780000Y18250000D01*
G37*
G36*
X37780000Y17150000D02*
G01*
X36580000Y17150000D01*
X36580000Y17950000D01*
X37780000Y17950000D01*
X37780000Y17150000D01*
G37*
G36*
X37780000Y16050000D02*
G01*
X36580000Y16050000D01*
X36580000Y16850000D01*
X37780000Y16850000D01*
X37780000Y16050000D01*
G37*
G36*
X37780000Y14950000D02*
G01*
X36580000Y14950000D01*
X36580000Y15750000D01*
X37780000Y15750000D01*
X37780000Y14950000D01*
G37*
G36*
X37780000Y13850000D02*
G01*
X36580000Y13850000D01*
X36580000Y14650000D01*
X37780000Y14650000D01*
X37780000Y13850000D01*
G37*
G36*
X37780000Y12750000D02*
G01*
X36580000Y12750000D01*
X36580000Y13550000D01*
X37780000Y13550000D01*
X37780000Y12750000D01*
G37*
G36*
X37780000Y11650000D02*
G01*
X36580000Y11650000D01*
X36580000Y12450000D01*
X37780000Y12450000D01*
X37780000Y11650000D01*
G37*
%TD*%
D10*
%TO.C,D6*%
X151495000Y56535000D03*
X151495000Y57495000D03*
%TD*%
%TO.C,D6*%
X151495000Y17935000D03*
X151495000Y18895000D03*
%TD*%
%TO.C,D6*%
X97655000Y56535000D03*
X97655000Y57495000D03*
%TD*%
%TO.C,D6*%
X97655000Y17935000D03*
X97655000Y18895000D03*
%TD*%
%TO.C,D6*%
X43815000Y56535000D03*
X43815000Y57495000D03*
%TD*%
D11*
%TO.C,R7*%
X124635000Y47490000D03*
X126285000Y47490000D03*
%TD*%
%TO.C,R7*%
X124635000Y8890000D03*
X126285000Y8890000D03*
%TD*%
%TO.C,R7*%
X70795000Y47490000D03*
X72445000Y47490000D03*
%TD*%
%TO.C,R7*%
X70795000Y8890000D03*
X72445000Y8890000D03*
%TD*%
%TO.C,R7*%
X16955000Y47490000D03*
X18605000Y47490000D03*
%TD*%
D12*
%TO.C,L1*%
X149291250Y61460000D03*
X150841250Y61460000D03*
%TD*%
%TO.C,L1*%
X149291250Y22860000D03*
X150841250Y22860000D03*
%TD*%
%TO.C,L1*%
X95451250Y61460000D03*
X97001250Y61460000D03*
%TD*%
%TO.C,L1*%
X95451250Y22860000D03*
X97001250Y22860000D03*
%TD*%
%TO.C,L1*%
X41611250Y61460000D03*
X43161250Y61460000D03*
%TD*%
%TO.C,C3*%
X124685000Y44950000D03*
X126235000Y44950000D03*
%TD*%
%TO.C,C3*%
X124685000Y6350000D03*
X126235000Y6350000D03*
%TD*%
%TO.C,C3*%
X70845000Y44950000D03*
X72395000Y44950000D03*
%TD*%
%TO.C,C3*%
X70845000Y6350000D03*
X72395000Y6350000D03*
%TD*%
%TO.C,C3*%
X17005000Y44950000D03*
X18555000Y44950000D03*
%TD*%
D13*
%TO.C,R30*%
X139430000Y47045000D03*
X139430000Y45395000D03*
%TD*%
%TO.C,R30*%
X139430000Y8445000D03*
X139430000Y6795000D03*
%TD*%
%TO.C,R30*%
X85590000Y47045000D03*
X85590000Y45395000D03*
%TD*%
%TO.C,R30*%
X85590000Y8445000D03*
X85590000Y6795000D03*
%TD*%
%TO.C,R30*%
X31750000Y47045000D03*
X31750000Y45395000D03*
%TD*%
D14*
%TO.C,C13*%
X122425000Y64000000D03*
X120875000Y64000000D03*
%TD*%
%TO.C,C13*%
X122425000Y25400000D03*
X120875000Y25400000D03*
%TD*%
%TO.C,C13*%
X68585000Y64000000D03*
X67035000Y64000000D03*
%TD*%
%TO.C,C13*%
X68585000Y25400000D03*
X67035000Y25400000D03*
%TD*%
%TO.C,C13*%
X14745000Y64000000D03*
X13195000Y64000000D03*
%TD*%
D15*
%TO.C,U1*%
X119140100Y56700000D03*
X119140100Y57650000D03*
X119140100Y58600000D03*
X116539900Y58600000D03*
X116539900Y57700000D03*
X116539900Y56700000D03*
%TD*%
%TO.C,U1*%
X119140100Y18100000D03*
X119140100Y19050000D03*
X119140100Y20000000D03*
X116539900Y20000000D03*
X116539900Y19100000D03*
X116539900Y18100000D03*
%TD*%
%TO.C,U1*%
X65300100Y56700000D03*
X65300100Y57650000D03*
X65300100Y58600000D03*
X62699900Y58600000D03*
X62699900Y57700000D03*
X62699900Y56700000D03*
%TD*%
%TO.C,U1*%
X65300100Y18100000D03*
X65300100Y19050000D03*
X65300100Y20000000D03*
X62699900Y20000000D03*
X62699900Y19100000D03*
X62699900Y18100000D03*
%TD*%
%TO.C,U1*%
X11460100Y56700000D03*
X11460100Y57650000D03*
X11460100Y58600000D03*
X8859900Y58600000D03*
X8859900Y57700000D03*
X8859900Y56700000D03*
%TD*%
D16*
%TO.C,C1*%
X115300000Y69855000D03*
X115300000Y68305000D03*
%TD*%
%TO.C,C1*%
X115300000Y31255000D03*
X115300000Y29705000D03*
%TD*%
%TO.C,C1*%
X61460000Y69855000D03*
X61460000Y68305000D03*
%TD*%
%TO.C,C1*%
X61460000Y31255000D03*
X61460000Y29705000D03*
%TD*%
%TO.C,C1*%
X7620000Y69855000D03*
X7620000Y68305000D03*
%TD*%
D13*
%TO.C,R31*%
X144510000Y47045000D03*
X144510000Y45395000D03*
%TD*%
%TO.C,R31*%
X144510000Y8445000D03*
X144510000Y6795000D03*
%TD*%
%TO.C,R31*%
X90670000Y47045000D03*
X90670000Y45395000D03*
%TD*%
%TO.C,R31*%
X90670000Y8445000D03*
X90670000Y6795000D03*
%TD*%
%TO.C,R31*%
X36830000Y47045000D03*
X36830000Y45395000D03*
%TD*%
D14*
%TO.C,C6*%
X148460000Y59713750D03*
X146910000Y59713750D03*
%TD*%
%TO.C,C6*%
X148460000Y21113750D03*
X146910000Y21113750D03*
%TD*%
%TO.C,C6*%
X94620000Y59713750D03*
X93070000Y59713750D03*
%TD*%
%TO.C,C6*%
X94620000Y21113750D03*
X93070000Y21113750D03*
%TD*%
%TO.C,C6*%
X40780000Y59713750D03*
X39230000Y59713750D03*
%TD*%
D12*
%TO.C,C12*%
X125955000Y64000000D03*
X127505000Y64000000D03*
%TD*%
%TO.C,C12*%
X125955000Y25400000D03*
X127505000Y25400000D03*
%TD*%
%TO.C,C12*%
X72115000Y64000000D03*
X73665000Y64000000D03*
%TD*%
%TO.C,C12*%
X72115000Y25400000D03*
X73665000Y25400000D03*
%TD*%
%TO.C,C12*%
X18275000Y64000000D03*
X19825000Y64000000D03*
%TD*%
D14*
%TO.C,C7*%
X149730000Y63365000D03*
X148180000Y63365000D03*
%TD*%
%TO.C,C7*%
X149730000Y24765000D03*
X148180000Y24765000D03*
%TD*%
%TO.C,C7*%
X95890000Y63365000D03*
X94340000Y63365000D03*
%TD*%
%TO.C,C7*%
X95890000Y24765000D03*
X94340000Y24765000D03*
%TD*%
%TO.C,C7*%
X42050000Y63365000D03*
X40500000Y63365000D03*
%TD*%
D17*
%TO.C,D3*%
X142620000Y47020000D03*
X141970000Y47020000D03*
X141320000Y47020000D03*
X141320000Y45420000D03*
X142620000Y45420000D03*
%TD*%
%TO.C,D3*%
X142620000Y8420000D03*
X141970000Y8420000D03*
X141320000Y8420000D03*
X141320000Y6820000D03*
X142620000Y6820000D03*
%TD*%
%TO.C,D3*%
X88780000Y47020000D03*
X88130000Y47020000D03*
X87480000Y47020000D03*
X87480000Y45420000D03*
X88780000Y45420000D03*
%TD*%
%TO.C,D3*%
X88780000Y8420000D03*
X88130000Y8420000D03*
X87480000Y8420000D03*
X87480000Y6820000D03*
X88780000Y6820000D03*
%TD*%
%TO.C,D3*%
X34940000Y47020000D03*
X34290000Y47020000D03*
X33640000Y47020000D03*
X33640000Y45420000D03*
X34940000Y45420000D03*
%TD*%
D16*
%TO.C,C8*%
X125460000Y69855000D03*
X125460000Y68305000D03*
%TD*%
%TO.C,C8*%
X125460000Y31255000D03*
X125460000Y29705000D03*
%TD*%
%TO.C,C8*%
X71620000Y69855000D03*
X71620000Y68305000D03*
%TD*%
%TO.C,C8*%
X71620000Y31255000D03*
X71620000Y29705000D03*
%TD*%
%TO.C,C8*%
X17780000Y69855000D03*
X17780000Y68305000D03*
%TD*%
D14*
%TO.C,C4*%
X148460000Y58126250D03*
X146910000Y58126250D03*
%TD*%
%TO.C,C4*%
X148460000Y19526250D03*
X146910000Y19526250D03*
%TD*%
%TO.C,C4*%
X94620000Y58126250D03*
X93070000Y58126250D03*
%TD*%
%TO.C,C4*%
X94620000Y19526250D03*
X93070000Y19526250D03*
%TD*%
%TO.C,C4*%
X40780000Y58126250D03*
X39230000Y58126250D03*
%TD*%
D15*
%TO.C,U2*%
X117809900Y70030000D03*
X117809900Y69080000D03*
X117809900Y68130000D03*
X120410100Y68130000D03*
X120410100Y70030000D03*
%TD*%
%TO.C,U2*%
X117809900Y31430000D03*
X117809900Y30480000D03*
X117809900Y29530000D03*
X120410100Y29530000D03*
X120410100Y31430000D03*
%TD*%
%TO.C,U2*%
X63969900Y70030000D03*
X63969900Y69080000D03*
X63969900Y68130000D03*
X66570100Y68130000D03*
X66570100Y70030000D03*
%TD*%
%TO.C,U2*%
X63969900Y31430000D03*
X63969900Y30480000D03*
X63969900Y29530000D03*
X66570100Y29530000D03*
X66570100Y31430000D03*
%TD*%
%TO.C,U2*%
X10129900Y70030000D03*
X10129900Y69080000D03*
X10129900Y68130000D03*
X12730100Y68130000D03*
X12730100Y70030000D03*
%TD*%
D18*
%TO.C,R1*%
X111045000Y51300000D03*
X109395000Y51300000D03*
%TD*%
%TO.C,R1*%
X111045000Y12700000D03*
X109395000Y12700000D03*
%TD*%
%TO.C,R1*%
X57205000Y51300000D03*
X55555000Y51300000D03*
%TD*%
%TO.C,R1*%
X57205000Y12700000D03*
X55555000Y12700000D03*
%TD*%
%TO.C,R1*%
X3365000Y51300000D03*
X1715000Y51300000D03*
%TD*%
D19*
%TO.C,D8*%
X110340000Y67810000D03*
X112640000Y67810000D03*
%TD*%
%TO.C,D8*%
X110340000Y29210000D03*
X112640000Y29210000D03*
%TD*%
%TO.C,D8*%
X56500000Y67810000D03*
X58800000Y67810000D03*
%TD*%
%TO.C,D8*%
X56500000Y29210000D03*
X58800000Y29210000D03*
%TD*%
%TO.C,D8*%
X2660000Y67810000D03*
X4960000Y67810000D03*
%TD*%
D20*
%TO.C,C16*%
X130540000Y68305000D03*
X130540000Y69855000D03*
%TD*%
%TO.C,C16*%
X130540000Y29705000D03*
X130540000Y31255000D03*
%TD*%
%TO.C,C16*%
X76700000Y68305000D03*
X76700000Y69855000D03*
%TD*%
%TO.C,C16*%
X76700000Y29705000D03*
X76700000Y31255000D03*
%TD*%
%TO.C,C16*%
X22860000Y68305000D03*
X22860000Y69855000D03*
%TD*%
D21*
%TO.C,U8*%
X121390000Y62095000D03*
X121390000Y60825000D03*
X121390000Y59555000D03*
X121390000Y58285000D03*
X121390000Y57015000D03*
X121390000Y55745000D03*
X121390000Y54475000D03*
X121390000Y53205000D03*
X126990000Y53205000D03*
X126990000Y54475000D03*
X126990000Y55745000D03*
X126990000Y57015000D03*
X126990000Y58285000D03*
X126990000Y59555000D03*
X126990000Y60825000D03*
X126990000Y62095000D03*
%TD*%
%TO.C,U8*%
X121390000Y23495000D03*
X121390000Y22225000D03*
X121390000Y20955000D03*
X121390000Y19685000D03*
X121390000Y18415000D03*
X121390000Y17145000D03*
X121390000Y15875000D03*
X121390000Y14605000D03*
X126990000Y14605000D03*
X126990000Y15875000D03*
X126990000Y17145000D03*
X126990000Y18415000D03*
X126990000Y19685000D03*
X126990000Y20955000D03*
X126990000Y22225000D03*
X126990000Y23495000D03*
%TD*%
%TO.C,U8*%
X67550000Y62095000D03*
X67550000Y60825000D03*
X67550000Y59555000D03*
X67550000Y58285000D03*
X67550000Y57015000D03*
X67550000Y55745000D03*
X67550000Y54475000D03*
X67550000Y53205000D03*
X73150000Y53205000D03*
X73150000Y54475000D03*
X73150000Y55745000D03*
X73150000Y57015000D03*
X73150000Y58285000D03*
X73150000Y59555000D03*
X73150000Y60825000D03*
X73150000Y62095000D03*
%TD*%
%TO.C,U8*%
X67550000Y23495000D03*
X67550000Y22225000D03*
X67550000Y20955000D03*
X67550000Y19685000D03*
X67550000Y18415000D03*
X67550000Y17145000D03*
X67550000Y15875000D03*
X67550000Y14605000D03*
X73150000Y14605000D03*
X73150000Y15875000D03*
X73150000Y17145000D03*
X73150000Y18415000D03*
X73150000Y19685000D03*
X73150000Y20955000D03*
X73150000Y22225000D03*
X73150000Y23495000D03*
%TD*%
%TO.C,U8*%
X13710000Y62095000D03*
X13710000Y60825000D03*
X13710000Y59555000D03*
X13710000Y58285000D03*
X13710000Y57015000D03*
X13710000Y55745000D03*
X13710000Y54475000D03*
X13710000Y53205000D03*
X19310000Y53205000D03*
X19310000Y54475000D03*
X19310000Y55745000D03*
X19310000Y57015000D03*
X19310000Y58285000D03*
X19310000Y59555000D03*
X19310000Y60825000D03*
X19310000Y62095000D03*
%TD*%
D22*
%TO.C,Q1*%
X156255000Y47220000D03*
X154355000Y47220000D03*
X155305000Y45120000D03*
%TD*%
%TO.C,Q1*%
X156255000Y8620000D03*
X154355000Y8620000D03*
X155305000Y6520000D03*
%TD*%
%TO.C,Q1*%
X102415000Y47220000D03*
X100515000Y47220000D03*
X101465000Y45120000D03*
%TD*%
%TO.C,Q1*%
X102415000Y8620000D03*
X100515000Y8620000D03*
X101465000Y6520000D03*
%TD*%
%TO.C,Q1*%
X48575000Y47220000D03*
X46675000Y47220000D03*
X47625000Y45120000D03*
%TD*%
D13*
%TO.C,R16*%
X134350000Y47045000D03*
X134350000Y45395000D03*
%TD*%
%TO.C,R16*%
X134350000Y8445000D03*
X134350000Y6795000D03*
%TD*%
%TO.C,R16*%
X80510000Y47045000D03*
X80510000Y45395000D03*
%TD*%
%TO.C,R16*%
X80510000Y8445000D03*
X80510000Y6795000D03*
%TD*%
%TO.C,R16*%
X26670000Y47045000D03*
X26670000Y45395000D03*
%TD*%
D16*
%TO.C,L2*%
X128000000Y69855000D03*
X128000000Y68305000D03*
%TD*%
%TO.C,L2*%
X128000000Y31255000D03*
X128000000Y29705000D03*
%TD*%
%TO.C,L2*%
X74160000Y69855000D03*
X74160000Y68305000D03*
%TD*%
%TO.C,L2*%
X74160000Y31255000D03*
X74160000Y29705000D03*
%TD*%
%TO.C,L2*%
X20320000Y69855000D03*
X20320000Y68305000D03*
%TD*%
D17*
%TO.C,D2*%
X132460000Y47020000D03*
X131810000Y47020000D03*
X131160000Y47020000D03*
X131160000Y45420000D03*
X132460000Y45420000D03*
%TD*%
%TO.C,D2*%
X132460000Y8420000D03*
X131810000Y8420000D03*
X131160000Y8420000D03*
X131160000Y6820000D03*
X132460000Y6820000D03*
%TD*%
%TO.C,D2*%
X78620000Y47020000D03*
X77970000Y47020000D03*
X77320000Y47020000D03*
X77320000Y45420000D03*
X78620000Y45420000D03*
%TD*%
%TO.C,D2*%
X78620000Y8420000D03*
X77970000Y8420000D03*
X77320000Y8420000D03*
X77320000Y6820000D03*
X78620000Y6820000D03*
%TD*%
%TO.C,D2*%
X24780000Y47020000D03*
X24130000Y47020000D03*
X23480000Y47020000D03*
X23480000Y45420000D03*
X24780000Y45420000D03*
%TD*%
D16*
%TO.C,C2*%
X122920000Y69855000D03*
X122920000Y68305000D03*
%TD*%
%TO.C,C2*%
X122920000Y31255000D03*
X122920000Y29705000D03*
%TD*%
%TO.C,C2*%
X69080000Y69855000D03*
X69080000Y68305000D03*
%TD*%
%TO.C,C2*%
X69080000Y31255000D03*
X69080000Y29705000D03*
%TD*%
%TO.C,C2*%
X15240000Y69855000D03*
X15240000Y68305000D03*
%TD*%
D23*
%TO.C,R4*%
X149590000Y41585000D03*
X149590000Y43235000D03*
%TD*%
%TO.C,R4*%
X149590000Y2985000D03*
X149590000Y4635000D03*
%TD*%
%TO.C,R4*%
X95750000Y41585000D03*
X95750000Y43235000D03*
%TD*%
%TO.C,R4*%
X95750000Y2985000D03*
X95750000Y4635000D03*
%TD*%
%TO.C,R4*%
X41910000Y41585000D03*
X41910000Y43235000D03*
%TD*%
D24*
%TO.C,D1*%
X149590000Y47007500D03*
X149590000Y45432500D03*
%TD*%
%TO.C,D1*%
X149590000Y8407500D03*
X149590000Y6832500D03*
%TD*%
%TO.C,D1*%
X95750000Y47007500D03*
X95750000Y45432500D03*
%TD*%
%TO.C,D1*%
X95750000Y8407500D03*
X95750000Y6832500D03*
%TD*%
%TO.C,D1*%
X41910000Y47007500D03*
X41910000Y45432500D03*
%TD*%
D23*
%TO.C,R5*%
X152130000Y41585000D03*
X152130000Y43235000D03*
%TD*%
%TO.C,R5*%
X152130000Y2985000D03*
X152130000Y4635000D03*
%TD*%
%TO.C,R5*%
X98290000Y41585000D03*
X98290000Y43235000D03*
%TD*%
%TO.C,R5*%
X98290000Y2985000D03*
X98290000Y4635000D03*
%TD*%
%TO.C,R5*%
X44450000Y41585000D03*
X44450000Y43235000D03*
%TD*%
D18*
%TO.C,R2*%
X111045000Y64000000D03*
X109395000Y64000000D03*
%TD*%
%TO.C,R2*%
X111045000Y25400000D03*
X109395000Y25400000D03*
%TD*%
%TO.C,R2*%
X57205000Y64000000D03*
X55555000Y64000000D03*
%TD*%
%TO.C,R2*%
X57205000Y25400000D03*
X55555000Y25400000D03*
%TD*%
%TO.C,R2*%
X3365000Y64000000D03*
X1715000Y64000000D03*
%TD*%
D19*
%TO.C,D5*%
X126610000Y50030000D03*
X124310000Y50030000D03*
%TD*%
%TO.C,D5*%
X126610000Y11430000D03*
X124310000Y11430000D03*
%TD*%
%TO.C,D5*%
X72770000Y50030000D03*
X70470000Y50030000D03*
%TD*%
%TO.C,D5*%
X72770000Y11430000D03*
X70470000Y11430000D03*
%TD*%
%TO.C,D5*%
X18930000Y50030000D03*
X16630000Y50030000D03*
%TD*%
D13*
%TO.C,R29*%
X136890000Y47045000D03*
X136890000Y45395000D03*
%TD*%
%TO.C,R29*%
X136890000Y8445000D03*
X136890000Y6795000D03*
%TD*%
%TO.C,R29*%
X83050000Y47045000D03*
X83050000Y45395000D03*
%TD*%
%TO.C,R29*%
X83050000Y8445000D03*
X83050000Y6795000D03*
%TD*%
%TO.C,R29*%
X29210000Y47045000D03*
X29210000Y45395000D03*
%TD*%
D19*
%TO.C,D7*%
X110340000Y70350000D03*
X112640000Y70350000D03*
%TD*%
%TO.C,D7*%
X110340000Y31750000D03*
X112640000Y31750000D03*
%TD*%
%TO.C,D7*%
X56500000Y70350000D03*
X58800000Y70350000D03*
%TD*%
%TO.C,D7*%
X56500000Y31750000D03*
X58800000Y31750000D03*
%TD*%
%TO.C,D7*%
X2660000Y70350000D03*
X4960000Y70350000D03*
%TD*%
D25*
%TO.C,J1*%
X113690000Y58900000D03*
X113690000Y57900000D03*
X113690000Y57400000D03*
X113690000Y56400000D03*
X113690000Y55900000D03*
X113690000Y56900000D03*
X113690000Y58400000D03*
X113690000Y59400000D03*
D26*
X113690000Y60875000D03*
X113690000Y54425000D03*
D27*
X108935000Y61968000D03*
D28*
X113115000Y61968000D03*
X113115000Y53332000D03*
D27*
X108935000Y53332000D03*
D26*
X113690000Y60100000D03*
X113690000Y55200000D03*
%TD*%
D25*
%TO.C,J1*%
X113690000Y20300000D03*
X113690000Y19300000D03*
X113690000Y18800000D03*
X113690000Y17800000D03*
X113690000Y17300000D03*
X113690000Y18300000D03*
X113690000Y19800000D03*
X113690000Y20800000D03*
D26*
X113690000Y22275000D03*
X113690000Y15825000D03*
D27*
X108935000Y23368000D03*
D28*
X113115000Y23368000D03*
X113115000Y14732000D03*
D27*
X108935000Y14732000D03*
D26*
X113690000Y21500000D03*
X113690000Y16600000D03*
%TD*%
D25*
%TO.C,J1*%
X59850000Y58900000D03*
X59850000Y57900000D03*
X59850000Y57400000D03*
X59850000Y56400000D03*
X59850000Y55900000D03*
X59850000Y56900000D03*
X59850000Y58400000D03*
X59850000Y59400000D03*
D26*
X59850000Y60875000D03*
X59850000Y54425000D03*
D27*
X55095000Y61968000D03*
D28*
X59275000Y61968000D03*
X59275000Y53332000D03*
D27*
X55095000Y53332000D03*
D26*
X59850000Y60100000D03*
X59850000Y55200000D03*
%TD*%
D25*
%TO.C,J1*%
X59850000Y20300000D03*
X59850000Y19300000D03*
X59850000Y18800000D03*
X59850000Y17800000D03*
X59850000Y17300000D03*
X59850000Y18300000D03*
X59850000Y19800000D03*
X59850000Y20800000D03*
D26*
X59850000Y22275000D03*
X59850000Y15825000D03*
D27*
X55095000Y23368000D03*
D28*
X59275000Y23368000D03*
X59275000Y14732000D03*
D27*
X55095000Y14732000D03*
D26*
X59850000Y21500000D03*
X59850000Y16600000D03*
%TD*%
D25*
%TO.C,J1*%
X6010000Y58900000D03*
X6010000Y57900000D03*
X6010000Y57400000D03*
X6010000Y56400000D03*
X6010000Y55900000D03*
X6010000Y56900000D03*
X6010000Y58400000D03*
X6010000Y59400000D03*
D26*
X6010000Y60875000D03*
X6010000Y54425000D03*
D27*
X1255000Y61968000D03*
D28*
X5435000Y61968000D03*
X5435000Y53332000D03*
D27*
X1255000Y53332000D03*
D26*
X6010000Y60100000D03*
X6010000Y55200000D03*
%TD*%
D13*
%TO.C,R15*%
X129270000Y47045000D03*
X129270000Y45395000D03*
%TD*%
%TO.C,R15*%
X129270000Y8445000D03*
X129270000Y6795000D03*
%TD*%
%TO.C,R15*%
X75430000Y47045000D03*
X75430000Y45395000D03*
%TD*%
%TO.C,R15*%
X75430000Y8445000D03*
X75430000Y6795000D03*
%TD*%
%TO.C,R15*%
X21590000Y47045000D03*
X21590000Y45395000D03*
%TD*%
D18*
%TO.C,R3*%
X147875000Y61460000D03*
X146225000Y61460000D03*
%TD*%
%TO.C,R3*%
X147875000Y22860000D03*
X146225000Y22860000D03*
%TD*%
%TO.C,R3*%
X94035000Y61460000D03*
X92385000Y61460000D03*
%TD*%
%TO.C,R3*%
X94035000Y22860000D03*
X92385000Y22860000D03*
%TD*%
%TO.C,R3*%
X40195000Y61460000D03*
X38545000Y61460000D03*
%TD*%
D23*
%TO.C,R34*%
X147050000Y41585000D03*
X147050000Y43235000D03*
%TD*%
%TO.C,R34*%
X147050000Y2985000D03*
X147050000Y4635000D03*
%TD*%
%TO.C,R34*%
X93210000Y41585000D03*
X93210000Y43235000D03*
%TD*%
%TO.C,R34*%
X93210000Y2985000D03*
X93210000Y4635000D03*
%TD*%
%TO.C,R34*%
X39370000Y41585000D03*
X39370000Y43235000D03*
%TD*%
D13*
%TO.C,R12*%
X144510000Y43235000D03*
X144510000Y41585000D03*
%TD*%
%TO.C,R12*%
X144510000Y4635000D03*
X144510000Y2985000D03*
%TD*%
%TO.C,R12*%
X90670000Y43235000D03*
X90670000Y41585000D03*
%TD*%
%TO.C,R12*%
X90670000Y4635000D03*
X90670000Y2985000D03*
%TD*%
%TO.C,R12*%
X36830000Y43235000D03*
X36830000Y41585000D03*
%TD*%
D24*
%TO.C,D4*%
X152130000Y47007500D03*
X152130000Y45432500D03*
%TD*%
%TO.C,D4*%
X152130000Y8407500D03*
X152130000Y6832500D03*
%TD*%
%TO.C,D4*%
X98290000Y47007500D03*
X98290000Y45432500D03*
%TD*%
%TO.C,D4*%
X98290000Y8407500D03*
X98290000Y6832500D03*
%TD*%
%TO.C,D4*%
X44450000Y47007500D03*
X44450000Y45432500D03*
%TD*%
%TO.C,D4*%
X44450000Y8407500D03*
X44450000Y6832500D03*
%TD*%
D13*
%TO.C,R12*%
X36830000Y4635000D03*
X36830000Y2985000D03*
%TD*%
D23*
%TO.C,R34*%
X39370000Y2985000D03*
X39370000Y4635000D03*
%TD*%
D18*
%TO.C,R3*%
X40195000Y22860000D03*
X38545000Y22860000D03*
%TD*%
D13*
%TO.C,R15*%
X21590000Y8445000D03*
X21590000Y6795000D03*
%TD*%
D25*
%TO.C,J1*%
X6010000Y20300000D03*
X6010000Y19300000D03*
X6010000Y18800000D03*
X6010000Y17800000D03*
X6010000Y17300000D03*
X6010000Y18300000D03*
X6010000Y19800000D03*
X6010000Y20800000D03*
D26*
X6010000Y22275000D03*
X6010000Y15825000D03*
D27*
X1255000Y23368000D03*
D28*
X5435000Y23368000D03*
X5435000Y14732000D03*
D27*
X1255000Y14732000D03*
D26*
X6010000Y21500000D03*
X6010000Y16600000D03*
%TD*%
D19*
%TO.C,D7*%
X2660000Y31750000D03*
X4960000Y31750000D03*
%TD*%
D13*
%TO.C,R29*%
X29210000Y8445000D03*
X29210000Y6795000D03*
%TD*%
D19*
%TO.C,D5*%
X18930000Y11430000D03*
X16630000Y11430000D03*
%TD*%
D18*
%TO.C,R2*%
X3365000Y25400000D03*
X1715000Y25400000D03*
%TD*%
D23*
%TO.C,R5*%
X44450000Y2985000D03*
X44450000Y4635000D03*
%TD*%
D24*
%TO.C,D1*%
X41910000Y8407500D03*
X41910000Y6832500D03*
%TD*%
D23*
%TO.C,R4*%
X41910000Y2985000D03*
X41910000Y4635000D03*
%TD*%
D16*
%TO.C,C2*%
X15240000Y31255000D03*
X15240000Y29705000D03*
%TD*%
D17*
%TO.C,D2*%
X24780000Y8420000D03*
X24130000Y8420000D03*
X23480000Y8420000D03*
X23480000Y6820000D03*
X24780000Y6820000D03*
%TD*%
D16*
%TO.C,L2*%
X20320000Y31255000D03*
X20320000Y29705000D03*
%TD*%
D13*
%TO.C,R16*%
X26670000Y8445000D03*
X26670000Y6795000D03*
%TD*%
D22*
%TO.C,Q1*%
X48575000Y8620000D03*
X46675000Y8620000D03*
X47625000Y6520000D03*
%TD*%
D21*
%TO.C,U8*%
X13710000Y23495000D03*
X13710000Y22225000D03*
X13710000Y20955000D03*
X13710000Y19685000D03*
X13710000Y18415000D03*
X13710000Y17145000D03*
X13710000Y15875000D03*
X13710000Y14605000D03*
X19310000Y14605000D03*
X19310000Y15875000D03*
X19310000Y17145000D03*
X19310000Y18415000D03*
X19310000Y19685000D03*
X19310000Y20955000D03*
X19310000Y22225000D03*
X19310000Y23495000D03*
%TD*%
D20*
%TO.C,C16*%
X22860000Y29705000D03*
X22860000Y31255000D03*
%TD*%
D19*
%TO.C,D8*%
X2660000Y29210000D03*
X4960000Y29210000D03*
%TD*%
D18*
%TO.C,R1*%
X3365000Y12700000D03*
X1715000Y12700000D03*
%TD*%
D15*
%TO.C,U2*%
X10129900Y31430000D03*
X10129900Y30480000D03*
X10129900Y29530000D03*
X12730100Y29530000D03*
X12730100Y31430000D03*
%TD*%
D14*
%TO.C,C4*%
X40780000Y19526250D03*
X39230000Y19526250D03*
%TD*%
D16*
%TO.C,C8*%
X17780000Y31255000D03*
X17780000Y29705000D03*
%TD*%
D17*
%TO.C,D3*%
X34940000Y8420000D03*
X34290000Y8420000D03*
X33640000Y8420000D03*
X33640000Y6820000D03*
X34940000Y6820000D03*
%TD*%
D14*
%TO.C,C7*%
X42050000Y24765000D03*
X40500000Y24765000D03*
%TD*%
D12*
%TO.C,C12*%
X18275000Y25400000D03*
X19825000Y25400000D03*
%TD*%
D14*
%TO.C,C6*%
X40780000Y21113750D03*
X39230000Y21113750D03*
%TD*%
D13*
%TO.C,R31*%
X36830000Y8445000D03*
X36830000Y6795000D03*
%TD*%
D16*
%TO.C,C1*%
X7620000Y31255000D03*
X7620000Y29705000D03*
%TD*%
D15*
%TO.C,U1*%
X11460100Y18100000D03*
X11460100Y19050000D03*
X11460100Y20000000D03*
X8859900Y20000000D03*
X8859900Y19100000D03*
X8859900Y18100000D03*
%TD*%
D14*
%TO.C,C13*%
X14745000Y25400000D03*
X13195000Y25400000D03*
%TD*%
D13*
%TO.C,R30*%
X31750000Y8445000D03*
X31750000Y6795000D03*
%TD*%
D12*
%TO.C,C3*%
X17005000Y6350000D03*
X18555000Y6350000D03*
%TD*%
%TO.C,L1*%
X41611250Y22860000D03*
X43161250Y22860000D03*
%TD*%
D11*
%TO.C,R7*%
X16955000Y8890000D03*
X18605000Y8890000D03*
%TD*%
D10*
%TO.C,D6*%
X43815000Y17935000D03*
X43815000Y18895000D03*
%TD*%
M02*
