M48
; DRILL file {KiCad 7.0.6} date Fri Jan  5 19:18:28 2024
; FORMAT={-:-/ absolute / metric / decimal}
; #@! TF.CreationDate,2024-01-05T19:18:28-07:00
; #@! TF.GenerationSoftware,Kicad,Pcbnew,7.0.6
; #@! TF.FileFunction,MixedPlating,1,2
FMAT,2
METRIC
; #@! TA.AperFunction,Plated,PTH,ViaDrill
T1C0.300
; #@! TA.AperFunction,Plated,PTH,ViaDrill
T2C0.305
; #@! TA.AperFunction,Plated,PTH,ComponentDrill
T3C0.600
; #@! TA.AperFunction,Plated,PTH,ComponentDrill
T4C1.016
; #@! TA.AperFunction,NonPlated,NPTH,ComponentDrill
T5C0.650
; #@! TA.AperFunction,NonPlated,NPTH,ComponentDrill
T6C3.302
%
G90
G05
T1
X7.112Y55.237
X7.112Y16.637
X7.239Y60.1
X7.239Y21.5
X7.633Y57.65
X7.633Y19.05
X14.129Y70.667
X14.129Y32.067
X15.081Y60.825
X15.081Y59.555
X15.081Y22.225
X15.081Y20.955
X17.462Y55.269
X17.462Y51.3
X17.462Y16.669
X17.462Y12.7
X17.78Y62.095
X17.78Y23.495
X20.828Y51.046
X20.828Y12.446
X20.955Y73.207
X20.955Y34.608
X21.59Y48.252
X21.59Y9.652
X22.606Y52.824
X22.606Y49.268
X22.606Y14.224
X22.606Y10.668
X22.733Y54.983
X22.733Y53.84
X22.733Y16.383
X22.733Y15.24
X26.67Y48.252
X26.67Y9.652
X39.37Y47.998
X39.37Y9.398
X40.64Y55.11
X40.64Y16.51
X43.18Y49.395
X43.18Y10.795
X48.26Y48.76
X48.26Y10.16
X60.952Y55.237
X60.952Y16.637
X61.079Y60.1
X61.079Y21.5
X61.473Y57.65
X61.473Y19.05
X67.969Y70.667
X67.969Y32.067
X68.921Y60.825
X68.921Y59.555
X68.921Y22.225
X68.921Y20.955
X71.302Y55.269
X71.302Y51.3
X71.302Y16.669
X71.302Y12.7
X71.62Y62.095
X71.62Y23.495
X74.668Y51.046
X74.668Y12.446
X74.795Y73.207
X74.795Y34.608
X75.43Y48.252
X75.43Y9.652
X76.446Y52.824
X76.446Y49.268
X76.446Y14.224
X76.446Y10.668
X76.573Y54.983
X76.573Y53.84
X76.573Y16.383
X76.573Y15.24
X80.51Y48.252
X80.51Y9.652
X93.21Y47.998
X93.21Y9.398
X94.48Y55.11
X94.48Y16.51
X97.02Y49.395
X97.02Y10.795
X102.1Y48.76
X102.1Y10.16
X114.792Y55.237
X114.792Y16.637
X114.919Y60.1
X114.919Y21.5
X115.313Y57.65
X115.313Y19.05
X121.809Y70.667
X121.809Y32.067
X122.761Y60.825
X122.761Y59.555
X122.761Y22.225
X122.761Y20.955
X125.142Y55.269
X125.142Y51.3
X125.142Y16.669
X125.142Y12.7
X125.46Y62.095
X125.46Y23.495
X128.508Y51.046
X128.508Y12.446
X128.635Y73.207
X128.635Y34.608
X129.27Y48.252
X129.27Y9.652
X130.286Y52.824
X130.286Y49.268
X130.286Y14.224
X130.286Y10.668
X130.413Y54.983
X130.413Y53.84
X130.413Y16.383
X130.413Y15.24
X134.35Y48.252
X134.35Y9.652
X147.05Y47.998
X147.05Y9.398
X148.32Y55.11
X148.32Y16.51
X150.86Y49.395
X150.86Y10.795
X155.94Y48.76
X155.94Y10.16
T2
X1.27Y67.81
X1.27Y29.21
X2.515Y62.889
X2.515Y52.57
X2.515Y24.289
X2.515Y13.97
X6.985Y54.348
X6.985Y15.748
X7.087Y60.952
X7.087Y22.352
X7.62Y67.016
X7.62Y28.416
X8.89Y69.08
X8.89Y30.48
X12.065Y64.0
X12.065Y25.4
X12.573Y62.095
X12.573Y57.65
X12.573Y23.495
X12.573Y19.05
X13.176Y47.49
X13.176Y8.89
X15.24Y67.048
X15.24Y28.448
X17.78Y67.016
X17.78Y28.416
X18.542Y46.22
X18.542Y7.62
X19.812Y65.651
X19.812Y27.051
X22.384Y65.746
X22.384Y27.146
X22.86Y71.112
X22.86Y32.512
X22.892Y49.947
X22.892Y11.347
X24.13Y46.22
X24.13Y7.62
X24.511Y66.413
X24.511Y49.395
X24.511Y27.813
X24.511Y10.795
X26.511Y49.554
X26.511Y10.954
X26.829Y65.746
X26.829Y27.146
X34.29Y46.22
X34.29Y7.62
X34.449Y65.746
X34.449Y61.777
X34.449Y27.146
X34.449Y23.177
X34.925Y63.492
X34.925Y24.892
X36.512Y66.381
X36.512Y27.781
X38.1Y64.635
X38.1Y62.476
X38.1Y26.035
X38.1Y23.876
X39.211Y62.571
X39.211Y23.971
X39.37Y64.635
X39.37Y26.035
X40.322Y62.412
X40.322Y23.812
X40.481Y64.635
X40.481Y26.035
X41.275Y64.476
X41.275Y62.412
X41.275Y25.876
X41.275Y23.812
X42.069Y64.476
X42.069Y62.412
X42.069Y60.031
X42.069Y58.92
X42.069Y57.809
X42.069Y25.876
X42.069Y23.812
X42.069Y21.431
X42.069Y20.32
X42.069Y19.209
X42.862Y57.015
X42.862Y18.415
X43.339Y64.159
X43.339Y25.559
X44.291Y63.047
X44.291Y61.777
X44.291Y60.349
X44.291Y58.92
X44.291Y24.447
X44.291Y23.177
X44.291Y21.749
X44.291Y20.32
X44.45Y55.11
X44.45Y53.681
X44.45Y16.51
X44.45Y15.081
X44.767Y56.38
X44.767Y17.78
X45.72Y61.619
X45.72Y53.523
X45.72Y23.019
X45.72Y14.922
X46.672Y48.442
X46.672Y9.842
X47.149Y61.619
X47.149Y58.92
X47.149Y56.38
X47.149Y53.523
X47.149Y23.019
X47.149Y20.32
X47.149Y17.78
X47.149Y14.922
X48.578Y61.619
X48.578Y53.523
X48.578Y23.019
X48.578Y14.922
X55.11Y67.81
X55.11Y29.21
X56.355Y62.889
X56.355Y52.57
X56.355Y24.289
X56.355Y13.97
X60.825Y54.348
X60.825Y15.748
X60.927Y60.952
X60.927Y22.352
X61.46Y67.016
X61.46Y28.416
X62.73Y69.08
X62.73Y30.48
X65.905Y64.0
X65.905Y25.4
X66.413Y62.095
X66.413Y57.65
X66.413Y23.495
X66.413Y19.05
X67.016Y47.49
X67.016Y8.89
X69.08Y67.048
X69.08Y28.448
X71.62Y67.016
X71.62Y28.416
X72.382Y46.22
X72.382Y7.62
X73.652Y65.651
X73.652Y27.051
X76.224Y65.746
X76.224Y27.146
X76.7Y71.112
X76.7Y32.512
X76.732Y49.947
X76.732Y11.347
X77.97Y46.22
X77.97Y7.62
X78.351Y66.413
X78.351Y49.395
X78.351Y27.813
X78.351Y10.795
X80.351Y49.554
X80.351Y10.954
X80.669Y65.746
X80.669Y27.146
X88.13Y46.22
X88.13Y7.62
X88.289Y65.746
X88.289Y61.777
X88.289Y27.146
X88.289Y23.177
X88.765Y63.492
X88.765Y24.892
X90.352Y66.381
X90.352Y27.781
X91.94Y64.635
X91.94Y62.476
X91.94Y26.035
X91.94Y23.876
X93.051Y62.571
X93.051Y23.971
X93.21Y64.635
X93.21Y26.035
X94.162Y62.412
X94.162Y23.812
X94.321Y64.635
X94.321Y26.035
X95.115Y64.476
X95.115Y62.412
X95.115Y25.876
X95.115Y23.812
X95.909Y64.476
X95.909Y62.412
X95.909Y60.031
X95.909Y58.92
X95.909Y57.809
X95.909Y25.876
X95.909Y23.812
X95.909Y21.431
X95.909Y20.32
X95.909Y19.209
X96.703Y57.015
X96.703Y18.415
X97.179Y64.159
X97.179Y25.559
X98.131Y63.047
X98.131Y61.777
X98.131Y60.349
X98.131Y58.92
X98.131Y24.447
X98.131Y23.177
X98.131Y21.749
X98.131Y20.32
X98.29Y55.11
X98.29Y53.681
X98.29Y16.51
X98.29Y15.081
X98.608Y56.38
X98.608Y17.78
X99.56Y61.619
X99.56Y53.523
X99.56Y23.019
X99.56Y14.922
X100.512Y48.442
X100.512Y9.842
X100.989Y61.619
X100.989Y58.92
X100.989Y56.38
X100.989Y53.523
X100.989Y23.019
X100.989Y20.32
X100.989Y17.78
X100.989Y14.922
X102.417Y61.619
X102.417Y53.523
X102.417Y23.019
X102.417Y14.922
X108.95Y67.81
X108.95Y29.21
X110.195Y62.889
X110.195Y52.57
X110.195Y24.289
X110.195Y13.97
X114.665Y54.348
X114.665Y15.748
X114.767Y60.952
X114.767Y22.352
X115.3Y67.016
X115.3Y28.416
X116.57Y69.08
X116.57Y30.48
X119.745Y64.0
X119.745Y25.4
X120.253Y62.095
X120.253Y57.65
X120.253Y23.495
X120.253Y19.05
X120.856Y47.49
X120.856Y8.89
X122.92Y67.048
X122.92Y28.448
X125.46Y67.016
X125.46Y28.416
X126.222Y46.22
X126.222Y7.62
X127.492Y65.651
X127.492Y27.051
X130.064Y65.746
X130.064Y27.146
X130.54Y71.112
X130.54Y32.512
X130.572Y49.947
X130.572Y11.347
X131.81Y46.22
X131.81Y7.62
X132.191Y66.413
X132.191Y49.395
X132.191Y27.813
X132.191Y10.795
X134.191Y49.554
X134.191Y10.954
X134.509Y65.746
X134.509Y27.146
X141.97Y46.22
X141.97Y7.62
X142.129Y65.746
X142.129Y61.777
X142.129Y27.146
X142.129Y23.177
X142.605Y63.492
X142.605Y24.892
X144.192Y66.381
X144.192Y27.781
X145.78Y64.635
X145.78Y62.476
X145.78Y26.035
X145.78Y23.876
X146.891Y62.571
X146.891Y23.971
X147.05Y64.635
X147.05Y26.035
X148.002Y62.412
X148.002Y23.812
X148.161Y64.635
X148.161Y26.035
X148.955Y64.476
X148.955Y62.412
X148.955Y25.876
X148.955Y23.812
X149.749Y64.476
X149.749Y62.412
X149.749Y60.031
X149.749Y58.92
X149.749Y57.809
X149.749Y25.876
X149.749Y23.812
X149.749Y21.431
X149.749Y20.32
X149.749Y19.209
X150.542Y57.015
X150.542Y18.415
X151.019Y64.159
X151.019Y25.559
X151.971Y63.047
X151.971Y61.777
X151.971Y60.349
X151.971Y58.92
X151.971Y24.447
X151.971Y23.177
X151.971Y21.749
X151.971Y20.32
X152.13Y55.11
X152.13Y53.681
X152.13Y16.51
X152.13Y15.081
X152.447Y56.38
X152.447Y17.78
X153.4Y61.619
X153.4Y53.523
X153.4Y23.019
X153.4Y14.922
X154.352Y48.442
X154.352Y9.842
X154.829Y61.619
X154.829Y58.92
X154.829Y56.38
X154.829Y53.523
X154.829Y23.019
X154.829Y20.32
X154.829Y17.78
X154.829Y14.922
X156.257Y61.619
X156.257Y53.523
X156.257Y23.019
X156.257Y14.922
T4
X7.62Y72.89
X7.62Y34.29
X10.16Y72.89
X10.16Y34.29
X13.97Y75.43
X13.97Y39.87
X13.97Y36.83
X13.97Y1.27
X16.51Y75.43
X16.51Y39.87
X16.51Y36.83
X16.51Y1.27
X19.05Y75.43
X19.05Y39.87
X19.05Y36.83
X19.05Y1.27
X21.59Y75.43
X21.59Y39.87
X21.59Y36.83
X21.59Y1.27
X24.13Y75.43
X24.13Y39.87
X24.13Y36.83
X24.13Y1.27
X26.67Y75.43
X26.67Y39.87
X26.67Y36.83
X26.67Y1.27
X29.21Y39.87
X29.21Y1.27
X31.75Y39.87
X31.75Y1.27
X34.29Y39.87
X34.29Y1.27
X61.46Y72.89
X61.46Y34.29
X64.0Y72.89
X64.0Y34.29
X67.81Y75.43
X67.81Y39.87
X67.81Y36.83
X67.81Y1.27
X70.35Y75.43
X70.35Y39.87
X70.35Y36.83
X70.35Y1.27
X72.89Y75.43
X72.89Y39.87
X72.89Y36.83
X72.89Y1.27
X75.43Y75.43
X75.43Y39.87
X75.43Y36.83
X75.43Y1.27
X77.97Y75.43
X77.97Y39.87
X77.97Y36.83
X77.97Y1.27
X80.51Y75.43
X80.51Y39.87
X80.51Y36.83
X80.51Y1.27
X83.05Y39.87
X83.05Y1.27
X85.59Y39.87
X85.59Y1.27
X88.13Y39.87
X88.13Y1.27
X115.3Y72.89
X115.3Y34.29
X117.84Y72.89
X117.84Y34.29
X121.65Y75.43
X121.65Y39.87
X121.65Y36.83
X121.65Y1.27
X124.19Y75.43
X124.19Y39.87
X124.19Y36.83
X124.19Y1.27
X126.73Y75.43
X126.73Y39.87
X126.73Y36.83
X126.73Y1.27
X129.27Y75.43
X129.27Y39.87
X129.27Y36.83
X129.27Y1.27
X131.81Y75.43
X131.81Y39.87
X131.81Y36.83
X131.81Y1.27
X134.35Y75.43
X134.35Y39.87
X134.35Y36.83
X134.35Y1.27
X136.89Y39.87
X136.89Y1.27
X139.43Y39.87
X139.43Y1.27
X141.97Y39.87
X141.97Y1.27
T5
X4.905Y60.54
X4.905Y54.76
X4.905Y21.94
X4.905Y16.16
X58.745Y60.54
X58.745Y54.76
X58.745Y21.94
X58.745Y16.16
X112.585Y60.54
X112.585Y54.76
X112.585Y21.94
X112.585Y16.16
T6
X2.54Y74.16
X2.54Y41.14
X2.54Y35.56
X2.54Y2.54
X48.26Y74.16
X48.26Y41.14
X48.26Y35.56
X48.26Y2.54
X56.38Y74.16
X56.38Y41.14
X56.38Y35.56
X56.38Y2.54
X102.1Y74.16
X102.1Y41.14
X102.1Y35.56
X102.1Y2.54
X110.22Y74.16
X110.22Y41.14
X110.22Y35.56
X110.22Y2.54
X155.94Y74.16
X155.94Y41.14
X155.94Y35.56
X155.94Y2.54
T3
G00X1.555Y61.968
M15
G01X0.955Y61.968
M16
G05
G00X1.555Y53.332
M15
G01X0.955Y53.332
M16
G05
G00X1.555Y23.368
M15
G01X0.955Y23.368
M16
G05
G00X1.555Y14.732
M15
G01X0.955Y14.732
M16
G05
G00X5.985Y61.968
M15
G01X4.885Y61.968
M16
G05
G00X5.985Y53.332
M15
G01X4.885Y53.332
M16
G05
G00X5.985Y23.368
M15
G01X4.885Y23.368
M16
G05
G00X5.985Y14.732
M15
G01X4.885Y14.732
M16
G05
G00X55.395Y61.968
M15
G01X54.795Y61.968
M16
G05
G00X55.395Y53.332
M15
G01X54.795Y53.332
M16
G05
G00X55.395Y23.368
M15
G01X54.795Y23.368
M16
G05
G00X55.395Y14.732
M15
G01X54.795Y14.732
M16
G05
G00X59.825Y61.968
M15
G01X58.725Y61.968
M16
G05
G00X59.825Y53.332
M15
G01X58.725Y53.332
M16
G05
G00X59.825Y23.368
M15
G01X58.725Y23.368
M16
G05
G00X59.825Y14.732
M15
G01X58.725Y14.732
M16
G05
G00X109.235Y61.968
M15
G01X108.635Y61.968
M16
G05
G00X109.235Y53.332
M15
G01X108.635Y53.332
M16
G05
G00X109.235Y23.368
M15
G01X108.635Y23.368
M16
G05
G00X109.235Y14.732
M15
G01X108.635Y14.732
M16
G05
G00X113.665Y61.968
M15
G01X112.565Y61.968
M16
G05
G00X113.665Y53.332
M15
G01X112.565Y53.332
M16
G05
G00X113.665Y23.368
M15
G01X112.565Y23.368
M16
G05
G00X113.665Y14.732
M15
G01X112.565Y14.732
M16
G05
T0
M30
